<svg version="1.1"
	 id="joomla" xmlns:svg="http://www.w3.org/2000/svg" xmlns:dc="http://purl.org/dc/elements/1.1/"
	 xmlns="http://www.w3.org/2000/svg" xmlns:xlink="http://www.w3.org/1999/xlink" x="0px" y="0px"
	 viewBox="9.492 3.31 282.531 59.133" enable-background="new 9.492 3.31 282.531 59.133" xml:space="preserve">
<path fill="#FFFFFF" d="M288.703,46.285c-2.911,0-3.351,1.513-3.351,2.412c0,0.928,0.439,2.484,3.351,2.484
	c2.891,0,3.32-1.557,3.32-2.484C292.023,47.798,291.594,46.285,288.703,46.285z"/>
<polyline fill="#FFFFFF" points="290.746,14.428 286.568,14.428 286.568,42.799 290.746,42.799 290.746,14.428 "/>
<path fill="#FFFFFF" d="M247.617,38.623c0-3.264,1.553-5.789,4.598-7.506c2.564-1.421,5.74-2.143,9.449-2.143
	c4.586,0,8.172,1.119,10.664,3.328c2.196,1.95,3.311,4.493,3.311,7.551c0,0,0,2.694,0,2.916c-1.758,1.939-4.322,3.473-7.631,4.543
	c-1.941,0.639-4.076,0.96-6.344,0.96c-3.77,0-6.967-0.704-9.47-2.095C249.109,44.454,247.617,41.984,247.617,38.623z
	 M275.639,26.277c0,0,0,3.366,0,4.215c-3.586-3.004-8.306-4.569-14.107-4.569c-4.699,0-8.725,0.896-11.993,2.658
	c-4.147,2.257-6.251,5.642-6.251,10.055c0,4.352,2.154,7.71,6.404,9.982c3.34,1.796,7.375,2.704,11.982,2.704
	c2.318,0,4.557-0.273,6.66-0.815c2.963-0.765,5.404-1.917,7.305-3.401c0,0.832,0,3.793,0,3.793h4.188V26.277H275.639"/>
<path fill="#FFFFFF" d="M235.728,14.996v35.903h4.178V14.996H235.728"/>
<path fill="#FFFFFF" d="M227.852,28.06c-2.391-1.416-5.455-2.137-9.102-2.137c-4.638,0-8.396,1.459-11.206,4.291
	c-2.718-2.832-6.466-4.291-11.176-4.291c-3.8,0-6.896,0.801-9.285,2.326c0-0.585,0-1.972,0-1.972h-4.188v24.621h4.188V34.051
	c0.286-1.214,1.083-2.33,2.38-3.252c1.717-1.211,3.984-1.825,6.752-1.825c2.432,0,4.536,0.502,6.231,1.491
	c2.033,1.159,3.014,2.781,3.014,4.961v15.473h4.116V35.426c0-2.183,0.98-3.814,3.004-4.985c1.716-0.972,3.841-1.467,6.303-1.467
	s4.576,0.502,6.282,1.493c2.022,1.157,3.003,2.779,3.003,4.959v15.473h4.178V36.002C232.346,32.498,230.834,29.823,227.852,28.06"/>
<path fill="#FFFFFF" d="M171.597,46.059c-2.585,1.469-5.721,2.214-9.327,2.214c-3.688,0-6.844-0.729-9.397-2.167
	c-3.105-1.739-4.617-4.186-4.617-7.482c0-3.249,1.553-5.766,4.617-7.48c2.554-1.439,5.71-2.169,9.397-2.169
	c3.647,0,6.804,0.729,9.378,2.169c3.024,1.728,4.566,4.246,4.566,7.48C176.214,41.826,174.661,44.328,171.597,46.059z
	 M174.182,28.679c-3.352-1.829-7.355-2.756-11.912-2.756c-4.515,0-8.529,0.927-11.91,2.754l0,0c-4.27,2.323-6.436,5.674-6.436,9.959
	c0,4.286,2.166,7.63,6.436,9.935c3.381,1.829,7.386,2.752,11.91,2.752c4.536,0,8.53-0.916,11.881-2.729
	c4.239-2.306,6.385-5.656,6.385-9.958S178.4,30.985,174.182,28.679"/>
<path fill="#FFFFFF" d="M132.697,46.059c-2.584,1.469-5.721,2.214-9.326,2.214c-3.688,0-6.844-0.729-9.398-2.167l0,0
	c-3.107-1.739-4.615-4.186-4.615-7.482c0-3.249,1.551-5.766,4.615-7.48c2.554-1.439,5.71-2.169,9.398-2.169
	c3.657,0,6.803,0.729,9.377,2.169c3.034,1.728,4.566,4.246,4.566,7.48C137.314,41.826,135.762,44.328,132.697,46.059z
	 M135.282,28.679c-3.351-1.829-7.355-2.756-11.911-2.756c-4.516,0-8.53,0.927-11.909,2.754h-0.001
	c-4.267,2.323-6.433,5.674-6.433,9.959c0,4.286,2.166,7.63,6.434,9.935c3.379,1.829,7.384,2.752,11.909,2.752
	c4.535,0,8.54-0.916,11.89-2.729c4.229-2.306,6.384-5.656,6.384-9.958C141.646,34.336,139.5,30.985,135.282,28.679"/>
<path fill="#FFFFFF" d="M98.38,14.996v24.78c0,2.19-0.666,4.048-1.977,5.517c-1.601,1.79-3.991,2.698-7.104,2.698l-2.791-0.207
	l-8.41-1.38l-1.396,3.161l8.545,1.32c1.594,0.245,3.081,0.369,4.415,0.369c4.624,0,8.113-1.3,10.374-3.857
	c1.82-2.09,2.743-4.822,2.743-8.12V14.996H98.38"/>
<path fill="#FFFFFF" d="M50.738,39.684l-6.166,6.174l-5.841,5.845l-1.146,1.146c-3.374,3.375-8.132,4.523-12.451,3.451
	c-0.807,3.52-3.958,6.141-7.721,6.144c-4.375,0-7.922-3.546-7.921-7.919c0-3.745,2.6-6.885,6.092-7.709
	c-1.105-4.34,0.04-9.134,3.437-12.53l0.447-0.445l5.846,5.841l-0.452,0.448c-1.896,1.898-1.896,4.97,0.002,6.87
	c1.903,1.902,4.987,1.898,6.877,0.008l1.144-1.146l5.841-5.843l6.172-6.178L50.738,39.684"/>
<path fill="#FFFFFF" d="M53.016,56.102c-4.495,1.383-9.587,0.295-13.145-3.262l-0.447-0.447l5.84-5.846l0.448,0.449
	c1.898,1.896,4.975,1.896,6.871,0.002c1.89-1.893,1.894-4.959-0.01-6.863l-1.142-1.144l-5.841-5.846l-6.172-6.177l5.846-5.84
	l6.167,6.173l5.839,5.844l1.148,1.15c3.359,3.359,4.52,8.086,3.475,12.385c3.847,0.542,6.806,3.848,6.806,7.844
	c0,4.375-3.548,7.919-7.92,7.919C56.945,62.442,53.747,59.721,53.016,56.102"/>
<path fill="#FFFFFF" d="M26.698,26.612l6.187-6.183l5.846-5.839l1.14-1.138c3.518-3.517,8.532-4.624,12.987-3.315
	c0.533-3.856,3.843-6.827,7.847-6.827c4.374,0,7.922,3.545,7.921,7.921c0,4.02-2.997,7.342-6.878,7.853
	c1.276,4.439,0.164,9.417-3.33,12.915l-0.456,0.457l-5.841-5.846l0.452-0.453c1.898-1.897,1.898-4.974,0.002-6.87
	c-1.891-1.889-4.958-1.893-6.863,0.01l-1.14,1.139l-5.846,5.842l-6.183,6.177L26.698,26.612"/>
<path fill="#FFFFFF" d="M20.16,33.145l-1.139-1.137c-3.531-3.533-4.625-8.578-3.287-13.051c-3.53-0.798-6.167-3.954-6.167-7.727
	c0.001-4.374,3.546-7.921,7.92-7.921c3.938,0.002,7.203,2.875,7.816,6.638c4.273-1.002,8.95,0.164,12.282,3.496l0.455,0.454
	l-5.845,5.842l-0.454-0.456c-1.896-1.895-4.971-1.895-6.869,0.002c-1.904,1.904-1.9,4.988-0.01,6.878l1.143,1.141l5.846,5.84
	l6.182,6.179l-5.839,5.844l-6.189-6.181L20.16,33.145"/>
</svg>
