<svg version="1.1" id="jquery" xmlns="http://www.w3.org/2000/svg" xmlns:xlink="http://www.w3.org/1999/xlink" x="0px" y="0px"
	 viewBox="0.5 1296.5 1296.001 292.505"
	 enable-background="new 0.5 1296.5 1296.001 292.505" xml:space="preserve">
<path fill="#FFFFFF" d="M554.878,1410.756L554.878,1410.756l-8.291,29.397l8.291-29.374V1410.756z"/>
<path fill="#FFFFFF" d="M597.541,1474.577l-9.132-0.049L597.541,1474.577z"/>
<path fill="#FFFFFF" d="M595.188,1518.478L595.188,1518.478l-54.764,0.198L595.188,1518.478z"/>
<path fill="#FFFFFF" d="M606.671,1474.626l-9.156-0.05L606.671,1474.626z"/>
<path fill="#FFFFFF" d="M599.99,1514.766l9.553-36.378l-9.528,36.402l0,0L599.99,1514.766z"/>
<path fill="#FFFFFF" d="M801.625,1347.207"/>
<path fill="#FFFFFF" d="M755.943,1347.207L755.943,1347.207"/>
<path fill="#FFFFFF" d="M798.581,1343.444H760.57c-2.104,0-4.208,1.685-4.652,3.763l-26.974,124.821
	c-0.445,2.055-2.548,3.736-4.651,3.736h-26.9c-26.603,0-23.533-18.411-18.09-43.628c0.05-0.248,0.101-0.495,0.174-0.769
	l16.902-84.162c0.421-2.055-0.966-3.763-3.067-3.763H654.31c-2.103,0-4.207,1.708-4.627,3.763l-17.546,83.321
	c-9.65,44.099-7.103,86.168,45.411,87.479c0.865,0.025,1.533,0.025,1.533,0.025h82.406c2.104,0,4.208-1.684,4.628-3.762
	l35.536-167.089c0.445-2.054-0.939-3.762-3.044-3.762L798.581,1343.444z"/>
<path fill="#FFFFFF" d="M950.179,1476.21c2.104,0,3.489,1.684,3.069,3.762"/>
<path fill="#FFFFFF" d="M945.874,1516.053L945.874,1516.053"/>
<path fill="#FFFFFF" d="M941.246,1519.839h0.024c-11.186,0.099-44.792,0.347-70.058,0.347
	C901.948,1520.186,941.246,1519.839,941.246,1519.839z"/>
<path fill="#FFFFFF" d="M848.546,1452.974c-0.025-1.979,2.227-5.37,4.33-5.37l-4.752-0.074
	C845.996,1469.033,848.546,1452.974,848.546,1452.974z"/>
<path fill="#FFFFFF" d="M950.179,1476.21c2.104,0,3.489,1.684,3.069,3.762"/>
<path fill="#FFFFFF" d="M941.271,1519.839L941.271,1519.839C933.079,1519.913,933.056,1519.913,941.271,1519.839z"/>
<path fill="#FFFFFF" d="M945.874,1516.053L945.874,1516.053"/>
<path fill="#FFFFFF" d="M871.213,1520.186"/>
<path fill="#FFFFFF" d="M391.575,1342.999h-41.723c-2.104,0-4.207,1.684-4.678,3.737l-7.919,34.941
	c-0.471,2.055,0.892,3.737,2.995,3.737h42.068c2.104,0,4.207-1.684,4.652-3.737l7.671-34.918l0,0
	c0.445-2.054-0.915-3.735-3.018-3.735L391.575,1342.999z"/>
<path fill="#FFFFFF" d="M382.493,1401.104L382.493,1401.104"/>
<path fill="#FFFFFF" d="M261.259,1588.732c0,0,21.035,0.272,34.422,0.272C285.511,1589.006,268.757,1588.808,261.259,1588.732h0.025
	H261.259z"/>
<path fill="#FFFFFF" d="M332.728,1401.104"/>
<path fill="#FFFFFF" d="M379.475,1397.367h-42.07c-2.103,0-4.206,1.684-4.677,3.736l-24.82,113.216
	c-0.445,2.054-1.336,5.395-2.029,7.399c0,0-7.844,23.386-21.06,23.114c-0.569,0-1.113-0.025-1.658-0.025
	c-6.409-0.124-11.432-0.223-11.432-0.223l0,0c-2.104-0.024-4.232,1.608-4.727,3.662l-8.711,36.676
	c-0.496,2.054,0.842,3.735,2.92,3.785c7.498,0.101,24.276,0.272,34.422,0.272c32.986,0,50.384-18.289,61.545-70.899l25.29-117.001
	c0.446-2.055-0.915-3.736-3.019-3.736L379.475,1397.367z"/>
<path fill="#FFFFFF" d="M976.979,1518.057c-2.103,0-3.464-1.684-3.044-3.762"/>
<path fill="#FFFFFF" d="M1020.954,1514.271"/>
<path fill="#FFFFFF" d="M974.406,1516.177c-0.248-1.04-0.099-3.563,0.348-5.643l-0.792,3.737c-0.445,2.054,0.915,3.762,3.043,3.762
	h3.837c-2.104,0-6.163-0.842-6.409-1.882L974.406,1516.177z"/>
<path fill="#FFFFFF" d="M1018.456,1517.19c-1.14,0.471-3.812,0.842-5.939,0.842h3.835c2.104,0,4.183-1.684,4.603-3.762l0.768-3.762
	C1021.302,1512.563,1019.594,1516.721,1018.456,1517.19L1018.456,1517.19z"/>
<path fill="#FFFFFF" d="M1153.943,1383.212c0.47,2.056-0.843,3.737-2.971,3.737"/>
<path fill="#FFFFFF" d="M1021.722,1510.533"/>
<path fill="#FFFFFF" d="M1153.943,1383.212l-4.331-18.313c-3.416-13.264-13.438-20.936-35.215-20.936l-100.249-0.05
	c-2.104,0-4.207,1.684-4.628,3.762l0,0l-34.743,162.907c-0.445,2.055-0.594,4.603-0.347,5.642c0.247,1.04,4.307,1.882,6.41,1.882
	h31.699c2.104,0,4.776-0.372,5.939-0.842c1.162-0.471,2.846-4.604,3.267-6.682l24.896-119.799c0.445-2.054,2.524-3.735,4.628-3.735
	l99.729-0.05c2.104,0,3.439-1.684,2.97-3.737L1153.943,1383.212z"/>
<path fill="#FFFFFF" d="M1242.733,1318.104c-2.103,0-4.825,1.436-6.013,3.167l-70.578,103.417c-1.188,1.757-2.549,1.484-3.018-0.569
	l-5.197-22.791c-0.471-2.054-2.573-3.736-4.702-3.736h-45.385c-2.104,0-3.365,1.657-2.797,3.687l20.342,71.221
	c0.569,2.029,0.618,5.37,0.1,7.398l-8.858,34.473c-0.521,2.055,0.767,3.712,2.894,3.712h44.842c2.102,0,4.256-1.683,4.775-3.712
	l8.858-34.473c0.521-2.054,1.979-5.097,3.267-6.78l114.602-152.092c1.263-1.684,0.594-3.069-1.535-3.045L1242.733,1318.104z"/>
<path fill="#FFFFFF" d="M921.82,1407.291v-0.05c-0.271,2.302-2.376,3.96-4.479,3.96h-57.536c-1.979,0-2.994-1.36-2.696-3.018
	c0.023-0.051,0.023-0.101,0.049-0.124c0,0-0.024,0-0.024,0.023c0.024-0.073,0.024-0.124,0.024-0.197c0,0,0.1-0.396,0.271-0.99
	c5.493-14.6,16.68-24.201,37.714-24.201c23.683,0,28.311,11.581,26.702,24.573L921.82,1407.291z M904.942,1340.896
	c-73.844,0-91.34,44.814-101.164,90.053c-9.824,46.103-8.982,89.235,67.434,89.235c0,0,61.843-0.248,70.058-0.322
	c2.103-0.023,4.157-1.731,4.578-3.762l7.374-36.104c0.421-2.055-0.965-3.763-3.067-3.763h-68.697
	c-27.319,0-35.437-7.25-32.442-28.606h109.826v0.024c0.024,0,0.049,0,0.074,0c1.757-0.024,3.364-1.237,4.009-2.821
	c0.124-0.297,0.223-0.619,0.271-0.966v0.025c16.308-61.496,11.631-102.922-58.229-102.922L904.942,1340.896z"/>
<path fill="#FFFFFF" d="M555.916,1407.068l-1.038,3.688c0,0.023,0,0.023,0,0.023l-8.291,29.398l-8.291,29.374
	c-0.568,2.029-2.77,3.688-4.874,3.688h-43.9c-33.285,0-41.401-26.033-33.285-64.44c8.117-39.272,24.005-63.697,56.77-66.172
	c44.766-3.365,53.725,28.111,42.936,64.465L555.916,1407.068z M586.009,1470.964c0,0,20.688-50.235,25.391-79.264
	c6.409-38.852-13.043-95.2-88.173-95.2c-74.71,0-107.128,53.8-119.526,112.276c-12.374,58.897,3.836,110.567,78.124,110.122
	l58.601-0.225l54.765-0.197c2.103-0.024,4.257-1.683,4.801-3.736l9.553-36.377c0.519-2.055-0.769-3.713-2.871-3.737l-9.157-0.05
	l-9.131-0.049c-1.807,0-2.821-1.164-2.599-2.724c0.049-0.271,0.099-0.568,0.223-0.866L586.009,1470.964L586.009,1470.964z"/>
<path fill="#FFFFFF" d="M955.821,1437.334c0,1.386-1.14,2.524-2.523,2.524c-1.387,0-2.524-1.14-2.524-2.524
	c0-1.386,1.139-2.524,2.524-2.524C954.683,1434.809,955.821,1435.924,955.821,1437.334z"/>
<path fill="#FFFFFF" d="M15.599,1372.003c-41.602,59.759,9.249,147.716,73.72,165.826c51.582,18.366,117.791-4.263,138.853-56.866
	c-34.4,44.828-104.432,42.337-148.059,13.214c-45.217-29.768-75.175-90.836-48.379-142.639"/>
<path fill="#FFFFFF" d="M79.62,1347.033c-34.527,49.644,13.621,117.855,67.834,123.468c35.548,3.68,74.273-11.563,86.337-47.693
	c-53.194,76.589-188.997-13.308-141.972-92.899"/>
<path fill="#FFFFFF" d="M133.468,1328.374c-21.508,31.687,6.828,73.724,41.384,78.491c25.569,3.526,39.287-7.712,52.702-26.969
	c-31.722,45.719-113.834-12.935-87.504-60.555"/>
</svg>
