<svg version="1.1" id="photoshop" xmlns="http://www.w3.org/2000/svg" xmlns:xlink="http://www.w3.org/1999/xlink" x="0px" y="0px"
	 viewBox="30.671 32.003 438.688 435.994"
	 enable-background="new 30.671 32.003 438.688 435.994" xml:space="preserve">
<path fill="#FFFFFF" d="M30.671,32.003v435.994h438.688V32.003H30.671z M432.593,431.459H67.436V68.542h365.157V431.459z"/>
<path fill="#FFFFFF" d="M355.916,203.413c-32.484-16.384-88.412-8.447-88.412,34.299c0,31.833,22.025,44.362,48.954,54.878
	c38.268,14.939,1.077,43.172-45.638,13.976c0,0-1.672-0.822-2.494,0c-0.822,0.821-0.822,1.644-0.822,2.494
	c0,0.822,0,30.671,0,30.671c16.328,8.362,28.517,12.614,47.367,12.416c60.803-0.624,69.562-58.848,37.219-81.241
	c-5.868-4.081-21.572-12.217-26.532-14.116c-25.71-9.808-23.528-23.754-15.364-30.784c9.015-7.795,34.016,3.997,44.532,10.573
	c6.378,3.94,7.427-0.964,7.398-5.272l-0.085-20.381C362.039,206.078,360.366,205.681,355.916,203.413z"/>
<path fill="#FFFFFF" d="M168.15,254.323v-74.665c0-0.368,1.304-1.644,1.644-1.644c31.634-1.616,49.634,4.564,51.25,38.353
	c1.842,38.777-30.671,39.6-52.894,39.6V254.323z M129.996,150.632v200.72h38.154v-64.687c46.885,3.345,89.178-13.465,89.178-67.663
	c0-21.855-6.804-43.852-22.933-57.146C211.86,143.262,159.193,147.401,129.996,150.632z"/>
</svg>
