<svg version="1.1" id="phpstorm" xmlns="http://www.w3.org/2000/svg" xmlns:xlink="http://www.w3.org/1999/xlink" x="0px" y="0px"
	 viewBox="0 0 256 256" enable-background="new 0 0 256 256" xml:space="preserve">
<polygon fill="#FFFFFF" points="256,110 222.8,27.2 158,15.2 137.489,33.424 132.8,19.2 43.6,0 0,49.2 24.4,196 48,195.758 48,48
	208,48 208,208 70.959,208 74,226 160.4,256 256,198.8 224.973,140.671 "/>
<rect x="63.2" y="178" fill="#FFFFFF" width="60" height="10"/>
<path fill="#FFFFFF" d="M89.6,68.8H62.4v66h14.8v-20h11.2c14.8,0,26.8-8,26.8-23.2C115.2,78,105.6,68.8,89.6,68.8z M88.8,102.8H77.2
	V82.4h11.2c7.6,0,12,3.6,12,10C100.4,98,95.78,102.8,88.8,102.8z"/>
<path fill="#FFFFFF" d="M118.8,125.6l8.8-10.4c6,4.8,12.4,8,20,8c6,0,9.601-2.4,9.601-6.4c0-3.6-2.4-5.6-13.601-8.4
	c-13.6-3.6-22-7.2-22-20.4v-0.4c0-12,9.6-20,23.2-20c8.972-0.039,17.698,2.917,24.8,8.4L162,87.2c-6-4-11.6-6.4-17.2-6.4
	c-5.6,0-8.399,2.4-8.399,6c0,4.4,2.8,6,14.399,8.8c13.601,3.6,21.2,8.4,21.2,20c0,13.2-10,20.8-24.4,20.8
	C136.984,136.543,126.704,132.688,118.8,125.6z"/>
</svg>
