<svg version="1.1" id="wordpress" xmlns="http://www.w3.org/2000/svg" xmlns:xlink="http://www.w3.org/1999/xlink" x="0px" y="0px"
	 viewBox="0.5 1296.5 1296 294.06" enable-background="new 0.5 1296.5 1296 294.06"
	 xml:space="preserve">
<path fill="#FFFFFF" d="M1261.733,1510.854c-11.402,0-21.379-5.983-25.651-9.691c-1.425,1.428-3.988,5.702-4.557,9.691h-5.417
	v-39.329h5.7c2.279,18.813,15.389,29.928,32.205,29.928c9.12,0,16.531-5.133,16.531-13.677c0-7.409-6.55-13.111-18.242-18.526
	l-16.246-7.694c-11.399-5.419-19.951-14.829-19.951-27.362c0-13.68,12.826-25.363,30.497-25.363c9.405,0,17.383,3.425,22.231,7.414
	c1.428-1.146,2.851-4.277,3.7-7.699h5.422v33.634h-5.983c-1.996-13.397-9.405-24.512-24.509-24.512
	c-7.979,0-15.394,4.556-15.394,11.688c0,7.408,5.986,11.397,19.663,17.664l15.673,7.694c13.682,6.552,19.094,17.102,19.094,25.65
	C1296.5,1498.315,1280.826,1510.854,1261.733,1510.854z"/>
<path fill="#FFFFFF" d="M1173.953,1510.854c-11.399,0-21.376-5.983-25.65-9.691c-1.426,1.428-3.989,5.702-4.558,9.691h-5.417
	v-39.329h5.7c2.282,18.813,15.389,29.928,32.205,29.928c9.125,0,16.536-5.133,16.536-13.677c0-7.409-6.554-13.111-18.244-18.526
	l-16.246-7.694c-11.402-5.419-19.951-14.829-19.951-27.362c0-13.68,12.83-25.363,30.497-25.363c9.405,0,17.383,3.425,22.235,7.414
	c1.424-1.146,2.85-4.277,3.706-7.699h5.414v33.634h-5.985c-1.996-13.397-9.405-24.512-24.509-24.512
	c-7.979,0-15.394,4.556-15.394,11.688c0,7.408,5.985,11.397,19.668,17.664l15.667,7.694c13.683,6.554,19.095,17.104,19.095,25.653
	C1208.723,1498.315,1193.048,1510.854,1173.953,1510.854z"/>
<path fill="#FFFFFF" d="M1116.1,1480.361l-1.426,5.129c-2.563,9.405-5.702,12.825-25.941,12.825h-3.986
	c-14.822,0-17.384-3.42-17.384-23.649v-13.108c22.231,0,23.942,1.992,23.942,16.814h5.415v-42.473h-5.415
	c0,14.819-1.711,16.813-23.942,16.813v-31.917h15.667c20.244,0,23.371,3.42,25.942,12.825l1.428,5.417h4.558l-1.992-26.789h-83.794
	v5.412c15.953,0,18.526,3.42,18.526,23.652v36.482c0,18.511-2.18,23.174-14.763,23.844c-11.954-1.831-20.165-8.35-31.404-20.705
	l-13.111-14.251c17.672-3.139,27.077-14.251,27.077-26.793c0-15.673-13.395-27.644-38.475-27.644h-50.155v5.412
	c15.953,0,18.523,3.42,18.523,23.651v36.485c0,20.239-2.563,23.944-18.523,23.944v5.415h56.717v-5.415
	c-15.957,0-18.53-3.705-18.53-23.944v-10.253h4.851l31.634,39.612h117.14l1.711-26.787L1116.1,1480.361L1116.1,1480.361z
	 M965.051,1458.696v-37.9h11.678c12.831,0,18.533,8.839,18.533,19.095c0,9.977-5.702,18.809-18.533,18.809L965.051,1458.696
	L965.051,1458.696z"/>
<path fill="#FFFFFF" d="M880.974,1501.45v5.7h-65.266v-5.7c19.097,0,22.517-4.848,22.517-33.351v-45.595
	c0-28.505-3.42-33.058-22.517-33.058v-5.707h58.994c29.354,0,45.605,15.105,45.605,35.345c0,19.665-16.251,35.054-45.605,35.054
	h-16.245v13.961C858.457,1496.607,861.877,1501.45,880.974,1501.45z M874.702,1394h-16.245v49.594h16.245
	c15.963,0,23.372-11.115,23.372-24.509C898.074,1405.404,890.665,1394,874.702,1394z"/>
<path fill="#FFFFFF" d="M752.156,1412.244H701.14v5.412c15.952,0,18.521,3.42,18.521,23.652v36.487
	c0,20.239-2.561,23.944-18.521,23.944c-12.253-1.713-20.525-8.266-31.925-20.806l-13.109-14.251
	c17.669-3.139,27.072-14.251,27.072-26.793c0-15.673-13.393-27.644-38.475-27.644h-50.16v5.412c15.958,0,18.523,3.42,18.523,23.651
	v36.485c0,20.239-2.565,23.944-18.523,23.944v5.415h56.71v-5.415c-15.953,0-18.519-3.705-18.519-23.944v-10.253h4.844l31.637,39.612
	h82.941c40.749,0,58.426-21.658,58.426-47.597C810.582,1433.619,792.913,1412.244,752.156,1412.244z M632.741,1458.696v-37.9h11.684
	c12.823,0,18.528,8.839,18.528,19.095c0,9.977-5.705,18.809-18.528,18.809L632.741,1458.696L632.741,1458.696z M753.013,1498.315
	h-1.997c-10.252,0-11.683-2.558-11.683-15.669v-61.851c0,0,12.545,0,13.68,0c29.64,0,35.052,21.657,35.052,38.475
	C788.064,1476.653,782.65,1498.315,753.013,1498.315z"/>
<path fill="#FFFFFF" d="M532.705,1510.854c-31.349,0-57-23.083-57-51.303c0-27.934,25.653-51.017,57-51.017
	c31.351,0,57,23.083,57,51.017C589.705,1487.771,564.056,1510.854,532.705,1510.854z M532.705,1417.376
	c-26.218,0-35.34,23.649-35.34,42.178c0,18.813,9.122,42.182,35.34,42.182c26.508,0,35.628-23.368,35.628-42.182
	C568.333,1441.025,559.213,1417.376,532.705,1417.376z"/>
<path fill="#FFFFFF" d="M435.808,1469.247l19.665-58.149c5.703-16.814,3.137-21.653-15.104-21.653v-5.702h53.58v5.702
	c-17.954,0-22.229,4.27-29.354,25.075l-32.494,97.477h-3.703l-29.073-89.208l-29.638,89.208h-3.706l-31.634-97.472
	c-6.841-20.806-11.4-25.075-27.932-25.075v-5.702h63.271v5.702c-16.817,0-21.38,3.989-15.392,21.653l19.095,58.149l28.785-85.505
	h5.417L435.808,1469.247z"/>
<path fill="#FFFFFF" d="M147.529,1296.5c-81.07,0-147.029,65.954-147.029,147.023c0,81.079,65.959,147.036,147.029,147.036
	c81.067,0,147.036-65.952,147.036-147.036C294.563,1362.454,228.596,1296.5,147.529,1296.5z M147.529,1583.815
	c-77.352,0-140.287-62.935-140.287-140.292c0-77.35,62.933-140.277,140.287-140.277c77.35,0,140.28,62.931,140.28,140.277
	C287.809,1520.881,224.878,1583.815,147.529,1583.815z"/>
<path fill="#FFFFFF" d="M258.202,1383.01c0.542,4.018,0.85,8.336,0.85,12.97c0,12.8-2.39,27.188-9.59,45.178l-38.527,111.392
	c37.498-21.866,62.719-62.491,62.719-109.027C273.656,1421.598,268.055,1400.977,258.202,1383.01z"/>
<path fill="#FFFFFF" d="M149.742,1454.557l-37.843,109.961c11.299,3.326,23.249,5.143,35.63,5.143
	c14.688,0,28.773-2.544,41.885-7.149c-0.338-0.54-0.646-1.113-0.897-1.737L149.742,1454.557z"/>
<path fill="#FFFFFF" d="M232.676,1437.159c0-15.588-5.599-26.384-10.401-34.786c-6.394-10.39-12.386-19.188-12.386-29.577
	c0-11.595,8.793-22.388,21.18-22.388c0.559,0,1.09,0.07,1.634,0.102c-22.44-20.554-52.336-33.11-85.173-33.11
	c-44.064,0-82.831,22.607-105.384,56.851c2.959,0.089,5.748,0.151,8.117,0.151c13.193,0,33.614-1.601,33.614-1.601
	c6.799-0.401,7.601,9.585,0.809,10.39c0,0-6.833,0.804-14.436,1.202l45.931,136.62l27.602-82.778l-19.651-53.847
	c-6.792-0.398-13.227-1.202-13.227-1.202c-6.797-0.398-6-10.791,0.797-10.39c0,0,20.83,1.601,33.223,1.601
	c13.19,0,33.614-1.601,33.614-1.601c6.804-0.401,7.604,9.585,0.809,10.39c0,0-6.847,0.804-14.436,1.202l45.581,135.586
	l12.581-42.041C228.526,1460.487,232.676,1447.957,232.676,1437.159z"/>
<path fill="#FFFFFF" d="M21.399,1443.523c0,49.93,29.013,93.07,71.085,113.521l-60.166-164.852
	C25.321,1407.879,21.399,1425.238,21.399,1443.523z"/>
</svg>
