<svg xmlns="http://www.w3.org/2000/svg" x="0px" y="0px" width="300px" height="100px" viewBox="0 0 300 100" enable-background="new 0 0 300 100" xml:space="preserve" fill="#ffffff">
	<g class="tagline">
		<path d="M44.201,82.761c-1.034-0.532-2.232-0.799-3.595-0.799h-4.533v12.967h4.533c1.362,0,2.561-0.266,3.595-0.799
			c1.034-0.532,1.833-1.285,2.396-2.257c0.563-0.972,0.845-2.108,0.845-3.409s-0.282-2.443-0.845-3.427
			C46.034,84.052,45.235,83.293,44.201,82.761z M43.672,91.604c-0.743,0.743-1.796,1.114-3.158,1.115h-1.839v-8.564h1.839
			c1.362,0,2.415,0.381,3.158,1.142c0.743,0.762,1.115,1.818,1.115,3.167C44.787,89.814,44.415,90.86,43.672,91.604z"/>
		<path d="M56.687,85.101c-0.774-0.421-1.65-0.631-2.628-0.631c-1.016,0-1.914,0.217-2.694,0.65s-1.387,1.053-1.82,1.857
			c-0.434,0.805-0.65,1.74-0.65,2.805c0,1.053,0.22,1.981,0.66,2.787c0.439,0.805,1.053,1.427,1.839,1.867
			c0.786,0.44,1.675,0.66,2.666,0.66c1.226,0,2.26-0.319,3.103-0.957c0.842-0.638,1.412-1.452,1.709-2.442h-2.805
			c-0.409,0.83-1.096,1.245-2.062,1.245c-0.669,0-1.232-0.21-1.69-0.632c-0.458-0.421-0.719-1.003-0.78-1.746h7.523
			c0.049-0.297,0.074-0.631,0.074-1.003c0-1.003-0.213-1.892-0.641-2.666S57.46,85.522,56.687,85.101z M51.55,88.817
			c0.099-0.693,0.368-1.235,0.808-1.625c0.439-0.39,0.981-0.585,1.625-0.585c0.681,0,1.257,0.202,1.728,0.604
			c0.47,0.402,0.712,0.938,0.725,1.607H51.55z"/>
		<path d="M67.179,89.43c-0.483-0.198-1.096-0.391-1.839-0.576c-0.731-0.186-1.27-0.368-1.616-0.548
			c-0.347-0.18-0.521-0.443-0.521-0.79c0-0.31,0.127-0.551,0.381-0.725s0.616-0.26,1.087-0.26c0.508,0,0.913,0.121,1.217,0.362
			c0.303,0.242,0.474,0.567,0.511,0.976h2.489c-0.074-1.041-0.477-1.867-1.208-2.48c-0.731-0.613-1.709-0.92-2.935-0.92
			c-0.83,0-1.551,0.137-2.164,0.409c-0.613,0.272-1.084,0.644-1.412,1.115s-0.492,0.991-0.492,1.561
			c0,0.694,0.177,1.245,0.529,1.653c0.353,0.409,0.774,0.712,1.264,0.91c0.489,0.198,1.117,0.39,1.885,0.576
			c0.743,0.199,1.285,0.381,1.625,0.548c0.34,0.167,0.511,0.418,0.511,0.752c0,0.31-0.139,0.563-0.418,0.762
			c-0.278,0.198-0.666,0.297-1.161,0.297c-0.508,0-0.932-0.13-1.272-0.39c-0.341-0.26-0.536-0.588-0.585-0.984h-2.619
			c0.037,0.632,0.25,1.208,0.641,1.728s0.919,0.932,1.588,1.235s1.424,0.455,2.267,0.456c0.817,0,1.533-0.133,2.146-0.399
			s1.083-0.635,1.412-1.105s0.492-1.003,0.492-1.598c-0.012-0.681-0.195-1.229-0.548-1.644S67.662,89.628,67.179,89.43z"/>
		<rect x="71.072" y="84.637" width="2.601" height="10.292"/>
		<path d="M72.391,80.364c-0.458,0-0.839,0.146-1.142,0.437c-0.304,0.292-0.456,0.653-0.456,1.087s0.152,0.796,0.456,1.087
			c0.303,0.291,0.684,0.437,1.142,0.437s0.839-0.146,1.143-0.437c0.303-0.291,0.455-0.653,0.455-1.087s-0.152-0.795-0.455-1.087
			C73.23,80.51,72.849,80.364,72.391,80.364z"/>
		<path d="M83.701,86.105c-0.334-0.483-0.792-0.876-1.375-1.18c-0.582-0.303-1.257-0.455-2.025-0.455
			c-0.879,0-1.675,0.217-2.387,0.65c-0.712,0.434-1.275,1.053-1.69,1.858s-0.622,1.728-0.622,2.768c0,1.053,0.207,1.985,0.622,2.796
			c0.415,0.812,0.981,1.44,1.7,1.886s1.511,0.668,2.378,0.668c0.755,0,1.427-0.161,2.016-0.483c0.588-0.322,1.05-0.724,1.384-1.208
			v1.598c0,0.917-0.235,1.601-0.706,2.053c-0.471,0.452-1.084,0.678-1.839,0.678c-0.644,0-1.192-0.14-1.644-0.418
			c-0.452-0.279-0.746-0.653-0.882-1.124h-2.582c0.124,1.176,0.653,2.105,1.588,2.787C78.57,99.659,79.769,100,81.23,100
			c1.09,0,2.019-0.22,2.787-0.659c0.768-0.44,1.344-1.034,1.728-1.784s0.576-1.601,0.576-2.554V84.637h-2.62V86.105z M83.329,91.408
			c-0.248,0.452-0.582,0.799-1.003,1.04c-0.421,0.242-0.873,0.362-1.356,0.362c-0.471,0-0.914-0.124-1.329-0.372
			c-0.415-0.248-0.749-0.604-1.003-1.068s-0.381-1.006-0.381-1.625s0.127-1.155,0.381-1.607c0.254-0.452,0.585-0.795,0.994-1.031
			c0.409-0.235,0.854-0.353,1.337-0.353s0.935,0.121,1.356,0.362c0.421,0.241,0.755,0.588,1.003,1.04
			c0.248,0.452,0.371,0.994,0.371,1.625S83.577,90.956,83.329,91.408z"/>
		<path d="M94.555,84.489c-0.644,0-1.235,0.127-1.774,0.38c-0.539,0.254-0.981,0.604-1.329,1.05v-1.282h-2.601v10.292h2.601v-5.685
			c0-0.817,0.208-1.446,0.623-1.886c0.415-0.439,0.981-0.659,1.7-0.659c0.706,0,1.263,0.22,1.672,0.659
			c0.409,0.44,0.613,1.068,0.613,1.886v5.685h2.601v-6.038c0-1.387-0.378-2.467-1.133-3.242
			C96.772,84.875,95.781,84.488,94.555,84.489z"/>
		<path d="M116.419,90.842l1.523-2.638h-1.82l-1.263,2.118l-0.334,0.52l-3.864-3.882c-0.482-0.508-0.826-0.935-1.031-1.282
			c-0.204-0.347-0.307-0.706-0.307-1.078c0-0.433,0.152-0.79,0.455-1.068c0.304-0.279,0.703-0.418,1.198-0.418
			c0.471,0,0.855,0.146,1.152,0.437c0.297,0.291,0.439,0.69,0.427,1.198h1.691c0.024-0.57-0.087-1.087-0.334-1.551
			c-0.248-0.464-0.62-0.827-1.115-1.087c-0.496-0.26-1.078-0.39-1.746-0.39c-0.681,0-1.282,0.124-1.802,0.372
			c-0.521,0.248-0.92,0.591-1.199,1.031c-0.278,0.44-0.418,0.932-0.418,1.477c0,0.471,0.087,0.904,0.26,1.3
			c0.173,0.396,0.458,0.83,0.854,1.3c-1.003,0.397-1.762,0.938-2.276,1.625c-0.514,0.688-0.771,1.483-0.771,2.388
			c0,0.792,0.188,1.486,0.566,2.081c0.377,0.594,0.91,1.053,1.598,1.375s1.477,0.483,2.369,0.483c0.904,0,1.715-0.158,2.434-0.474
			c0.718-0.316,1.393-0.802,2.025-1.458l1.69,1.709h2.21l-2.917-2.917C115.961,91.603,116.209,91.213,116.419,90.842z
				M112.045,93.313c-0.539,0.26-1.143,0.39-1.811,0.39c-0.842,0-1.526-0.242-2.053-0.725s-0.79-1.09-0.79-1.82
			c0-1.313,0.792-2.272,2.377-2.879l3.809,3.827C113.095,92.65,112.584,93.052,112.045,93.313z"/>
		<path d="M133.315,82.761c-1.034-0.532-2.232-0.799-3.595-0.799h-4.533v12.967h4.533c1.362,0,2.561-0.266,3.595-0.799
			c1.034-0.532,1.833-1.285,2.396-2.257c0.563-0.972,0.845-2.108,0.845-3.409s-0.282-2.443-0.845-3.427
			C135.148,84.052,134.349,83.293,133.315,82.761z M132.786,91.604c-0.743,0.743-1.796,1.114-3.158,1.115h-1.839v-8.564h1.839
			c1.362,0,2.415,0.381,3.158,1.142c0.743,0.762,1.114,1.818,1.114,3.167C133.9,89.814,133.529,90.86,132.786,91.604z"/>
		<path d="M145.801,85.101c-0.774-0.421-1.65-0.631-2.629-0.631c-1.016,0-1.913,0.217-2.693,0.65s-1.387,1.053-1.821,1.857
			c-0.434,0.805-0.65,1.74-0.65,2.805c0,1.053,0.22,1.981,0.659,2.787s1.053,1.427,1.839,1.867c0.786,0.44,1.675,0.66,2.666,0.66
			c1.226,0,2.26-0.319,3.103-0.957c0.842-0.638,1.412-1.452,1.709-2.442h-2.805c-0.409,0.83-1.096,1.245-2.062,1.245
			c-0.668,0-1.232-0.21-1.69-0.632c-0.458-0.421-0.718-1.003-0.78-1.746h7.524c0.049-0.297,0.074-0.631,0.074-1.003
			c0-1.003-0.214-1.892-0.641-2.666S146.575,85.522,145.801,85.101z M140.664,88.817c0.099-0.693,0.369-1.235,0.808-1.625
			c0.44-0.39,0.981-0.585,1.625-0.585c0.681,0,1.257,0.202,1.728,0.604s0.712,0.938,0.725,1.607H140.664z"/>
		<polygon points="154.06,92.532 151.459,84.637 148.672,84.637 152.462,94.929 155.62,94.929 159.428,84.637 156.661,84.637 		"/>
		<path d="M167.613,85.101c-0.774-0.421-1.65-0.631-2.628-0.631c-1.016,0-1.914,0.217-2.694,0.65
			c-0.78,0.434-1.387,1.053-1.82,1.857c-0.434,0.805-0.65,1.74-0.65,2.805c0,1.053,0.22,1.981,0.66,2.787
			c0.439,0.805,1.052,1.427,1.839,1.867c0.787,0.44,1.675,0.66,2.666,0.66c1.226,0,2.26-0.319,3.103-0.957
			c0.842-0.638,1.412-1.452,1.709-2.442h-2.805c-0.409,0.83-1.096,1.245-2.062,1.245c-0.669,0-1.232-0.21-1.69-0.632
			c-0.458-0.421-0.719-1.003-0.78-1.746h7.523c0.049-0.297,0.074-0.631,0.074-1.003c0-1.003-0.213-1.892-0.641-2.666
			S168.387,85.522,167.613,85.101z M162.477,88.817c0.099-0.693,0.368-1.235,0.808-1.625c0.439-0.39,0.981-0.585,1.625-0.585
			c0.681,0,1.256,0.202,1.728,0.604c0.47,0.402,0.712,0.938,0.725,1.607H162.477z"/>
		<rect x="171.999" y="81.182" width="2.601" height="13.747"/>
		<path d="M184.563,85.129c-0.805-0.439-1.703-0.66-2.694-0.66s-1.889,0.22-2.693,0.66c-0.806,0.439-1.44,1.062-1.904,1.867
			s-0.697,1.734-0.697,2.786c0,1.053,0.226,1.982,0.678,2.787c0.452,0.805,1.074,1.427,1.867,1.867
			c0.792,0.439,1.684,0.659,2.675,0.659c1.003,0,1.91-0.22,2.722-0.659c0.811-0.439,1.455-1.062,1.932-1.867
			c0.477-0.805,0.715-1.734,0.715-2.787c0-1.052-0.232-1.981-0.697-2.786S185.368,85.569,184.563,85.129z M184.117,91.455
			c-0.248,0.458-0.579,0.802-0.994,1.031c-0.415,0.229-0.858,0.344-1.328,0.344c-0.743,0-1.359-0.263-1.848-0.79
			c-0.49-0.526-0.734-1.279-0.734-2.257c0-0.978,0.25-1.73,0.752-2.257s1.124-0.79,1.867-0.79s1.371,0.263,1.885,0.79
			s0.771,1.279,0.771,2.257C184.488,90.439,184.364,90.997,184.117,91.455z"/>
		<path d="M197.477,85.12c-0.712-0.434-1.508-0.65-2.387-0.65c-0.755,0-1.427,0.158-2.016,0.474s-1.049,0.709-1.384,1.18v-1.486
			h-2.601v15.196h2.601v-6.372c0.359,0.471,0.827,0.861,1.402,1.17c0.576,0.31,1.242,0.464,1.997,0.464
			c0.879,0,1.675-0.223,2.387-0.668c0.712-0.446,1.275-1.074,1.69-1.886c0.415-0.811,0.623-1.743,0.623-2.796
			c0-1.052-0.208-1.979-0.623-2.777C198.752,86.169,198.189,85.554,197.477,85.12z M196.752,91.38
			c-0.254,0.458-0.588,0.812-1.003,1.059c-0.415,0.248-0.864,0.372-1.347,0.372c-0.471,0-0.914-0.121-1.329-0.362
			c-0.415-0.241-0.749-0.591-1.003-1.049c-0.254-0.458-0.381-0.997-0.381-1.616c0-0.62,0.127-1.158,0.381-1.616
			c0.253-0.458,0.588-0.808,1.003-1.05s0.857-0.362,1.329-0.362c0.483,0,0.932,0.118,1.347,0.353
			c0.415,0.235,0.749,0.579,1.003,1.031c0.254,0.452,0.381,0.988,0.381,1.607C197.133,90.377,197.006,90.923,196.752,91.38z"/>
		<path d="M214.525,84.489c-0.743,0-1.434,0.18-2.071,0.539c-0.638,0.359-1.124,0.836-1.458,1.43
			c-0.347-0.631-0.836-1.117-1.468-1.458c-0.631-0.34-1.35-0.511-2.155-0.511c-0.632,0-1.211,0.124-1.737,0.372
			c-0.527,0.248-0.957,0.588-1.292,1.021v-1.245h-2.601v10.292h2.601v-5.685c0-0.805,0.208-1.421,0.623-1.849
			c0.415-0.427,0.981-0.641,1.7-0.641c0.706,0,1.263,0.213,1.672,0.641s0.613,1.043,0.613,1.849v5.685h2.601v-5.685
			c0-0.805,0.207-1.421,0.622-1.849s0.976-0.641,1.681-0.641c0.706,0,1.263,0.213,1.672,0.641s0.613,1.043,0.613,1.849v5.685h2.601
			v-6.038c0-1.387-0.387-2.467-1.161-3.242C216.807,84.875,215.788,84.488,214.525,84.489z"/>
		<path d="M228.362,85.101c-0.774-0.421-1.65-0.631-2.628-0.631c-1.016,0-1.914,0.217-2.694,0.65
			c-0.78,0.434-1.387,1.053-1.82,1.857c-0.434,0.805-0.65,1.74-0.65,2.805c0,1.053,0.219,1.981,0.659,2.787
			c0.439,0.805,1.052,1.427,1.839,1.867c0.786,0.44,1.675,0.66,2.666,0.66c1.226,0,2.26-0.319,3.103-0.957
			c0.842-0.638,1.412-1.452,1.709-2.442h-2.805c-0.409,0.83-1.096,1.245-2.062,1.245c-0.669,0-1.232-0.21-1.69-0.632
			c-0.458-0.421-0.719-1.003-0.78-1.746h7.523c0.049-0.297,0.074-0.631,0.075-1.003c0-1.003-0.214-1.892-0.641-2.666
			S229.136,85.522,228.362,85.101z M223.226,88.817c0.099-0.693,0.368-1.235,0.808-1.625c0.439-0.39,0.981-0.585,1.625-0.585
			c0.681,0,1.257,0.202,1.728,0.604c0.47,0.402,0.712,0.938,0.725,1.607H223.226z"/>
		<path d="M238.462,84.489c-0.644,0-1.235,0.127-1.774,0.38c-0.539,0.254-0.981,0.604-1.328,1.05v-1.282h-2.601v10.292h2.601v-5.685
			c0-0.817,0.208-1.446,0.622-1.886c0.415-0.439,0.981-0.659,1.7-0.659c0.706,0,1.263,0.22,1.672,0.659
			c0.408,0.44,0.613,1.068,0.613,1.886v5.685h2.601v-6.038c0-1.387-0.378-2.467-1.133-3.242
			C240.679,84.875,239.688,84.488,238.462,84.489z"/>
		<path d="M247.905,82.092h-2.619v2.545h-1.226v2.136h1.226v4.96c0,2.13,1.096,3.195,3.288,3.195h1.635v-2.192h-1.208
			c-0.396,0-0.678-0.077-0.845-0.232s-0.251-0.406-0.251-0.752v-4.979v0h2.304v-2.136h-2.304V82.092z"/>
	</g>
	<g class="signature">
		<path d="M298.017,42.344c-1.276-0.009-2.553,0.013-3.829-0.005c-3.506-0.051-6.997,0.182-10.474,0.582
			c-5.196,0.599-10.328,1.576-15.417,2.777c-5.209,1.229-10.348,2.697-15.386,4.512c-0.335,0.121-0.687,0.196-0.972,0.276
			c-1.036-1.884-2.022-3.684-3.014-5.481c-0.466-0.844-0.759-1.729-0.704-2.71c0.054-0.964-0.32-1.766-0.973-2.451
			c-0.23-0.242-0.491-0.475-0.854-0.405c-0.399,0.076-0.433,0.45-0.526,0.761c-0.023,0.078-0.035,0.162-0.04,0.243
			c-0.041,0.721-0.347,1.348-0.687,1.963c-1.041,1.882-2.28,3.622-3.752,5.191c-1.908,2.034-5.63,5.611-8.212,6.709
			c-0.837,0.356-1.697,0.591-2.604,0.674c-0.523,0.048-1.063-0.009-1.587-0.081c-0.105-0.015-0.301-0.073-0.504-0.149
			c-0.451-0.267-0.672-0.761-0.688-1.351c-0.016-0.615,0.032-1.234,0.105-1.845c0.026-0.213,0.213-0.408,0.331-0.618
			c0.295,0.084,0.533,0.145,0.766,0.22c1.401,0.448,2.762,0.321,4.082-0.298c1.625-0.764,2.833-1.974,3.622-3.572
			c1.061-2.149,0.561-4.814-1.165-6.486c-1.229-1.191-2.516-1.414-4.069-0.702c-0.873,0.4-1.615,0.979-2.274,1.671
			c-1.806,1.895-2.95,4.141-3.539,6.68c-0.09,0.387-0.154,0.771-0.195,1.153c-0.833,0.874-1.208,2.114-2.347,2.604
			c-1.963,0.846-4.143-0.256-5.015-2.815c-0.453-1.329-0.46-1.335,0.527-2.393c1.379-1.478,2.66-3.034,3.776-4.721
			c2.546-3.847,4.489-7.951,5.241-12.546c0.26-1.588,0.407-3.186,0.109-4.791c-0.213-1.147-0.543-2.243-1.358-3.125
			c-0.85-0.919-1.798-1.111-2.887-0.492c-0.565,0.321-1.086,0.745-1.563,1.191c-1.217,1.138-2.143,2.506-2.836,4.011
			c-0.636,1.38-1.231,2.786-1.734,4.219c-1.556,4.44-2.17,9.026-1.988,13.724c0.024,0.613,0.003,1.228,0.003,1.925
			c-1.074,0.958-2.161,1.962-3.287,2.921c-0.688,0.585-1.413,1.137-2.165,1.636c-0.474,0.313-1.014,0.547-1.553,0.735
			c-0.511,0.178-0.867-0.029-1.102-0.521c-0.07-0.148-0.14-0.302-0.175-0.461c-0.335-1.5-0.546-3.014-0.067-4.512
			c0.182-0.566,0.14-1.04-0.129-1.532c-0.303-0.554-0.683-1.031-1.291-1.272c-0.428-0.17-0.84-0.012-0.987,0.455
			c-0.16,0.505-0.281,1.035-0.331,1.562c-0.27,2.825,0.539,5.376,2.069,7.716c1.042,1.593,2.932,1.994,4.536,0.951
			c0.79-0.514,1.526-1.12,2.246-1.732c0.751-0.64,1.448-1.345,2.181-2.007c0.296-0.268,0.545-0.615,1.055-0.708
			c0.209,0.428,0.425,0.864,0.636,1.302c0.773,1.609,1.894,2.886,3.532,3.652c3.024,0.347,4.202-0.875,5.06-2.029
			c0.173,0.808,0.449,1.603,0.82,2.388c0.419,0.888,0.99,1.446,1.709,1.807c0.78,0.537,1.695,0.807,2.663,0.794
			c1.05-0.013,2.025-0.259,2.983-0.649c2.557-1.041,6.273-4.563,8.246-6.463c1.367-1.317,2.586-2.765,3.764-4.25
			c0.274-0.346,0.498-0.744,0.866-0.988c0.074,0.036,0.129,0.043,0.146,0.073c0.802,1.386,1.61,2.77,2.397,4.165
			c0.308,0.545,0.255,1.107-0.04,1.651c-0.281,0.52-0.658,0.934-1.196,1.207c-0.366,0.186-0.715,0.409-1.054,0.64
			c-0.625,0.424-0.798,1.029-0.593,1.733c0.125,0.433,0.288,0.859,0.476,1.27c0.493,1.076,1.641,1.452,2.675,0.853
			c0.422-0.245,0.837-0.548,1.157-0.912c0.673-0.766,1.509-1.256,2.422-1.659c2.524-1.114,5.098-2.099,7.72-2.952
			c7.013-2.282,14.144-4.088,21.432-5.256c3.66-0.587,7.333-1.049,11.039-1.195c1.809-0.071,3.62-0.095,5.431-0.146
			c0.448-0.013,0.908,0.042,1.324-0.186C300.019,42.879,299.535,42.355,298.017,42.344z M217.508,43.477
			c0.294-4.97,1.406-9.737,3.562-14.241c0.732-1.529,1.626-2.951,2.867-4.124c0.354-0.335,0.756-0.63,1.169-0.891
			c0.186-0.117,0.455-0.103,0.634-0.138c0.371,0.295,0.313,0.642,0.326,0.959c0.085,2.076-0.27,4.097-0.863,6.07
			c-1.342,4.468-3.587,8.447-6.642,11.97c-0.257,0.296-0.503,0.619-0.934,0.798C217.569,43.691,217.502,43.582,217.508,43.477z
				M233.327,43.541c0.378-0.217,0.836-0.322,1.271-0.404c0.343-0.065,0.624,0.257,0.61,0.606c-0.005,0.122-0.023,0.244-0.046,0.364
			c-0.461,2.324-2.644,4.487-4.967,4.916c-0.398,0.073-0.807,0.169-1.336-0.217C229.886,46.617,231.222,44.751,233.327,43.541z"/>
		<path d="M205.273,38.904c0.617,0.313,1.251,0.62,1.913,0.808c0.627,0.178,1.159-0.2,1.285-0.832
			c0.146-0.73,0.154-1.473-0.089-2.189c-0.497-1.458-1.403-1.996-2.925-1.755c-0.115,0.018-0.225,0.071-0.342,0.11
			c-0.123,0.695-0.28,1.372-0.35,2.057c-0.041,0.398,0.02,0.819,0.11,1.212C204.925,38.535,205.084,38.808,205.273,38.904z"/>
		<path d="M200.959,78.359c-0.317-0.695-0.5-2.309-0.621-3.377c-0.033-0.292-0.062-0.544-0.09-0.757
			c-0.228-1.721-0.323-4.6-0.375-6.615c-0.078-3.031-0.132-6.615-0.145-9.586c-0.012-2.797,0.007-6.333,0.023-9.452
			c0.005-0.994,0.01-1.951,0.014-2.837l0.01-2.304c0.013-2.728,0.026-5.82,0.032-8.194c0.001-0.581,0.002-1.173,0.002-1.775
			c0.004-3.526,0.01-7.522,0.12-10.985c0.039-1.229,0.073-2.791,0.105-4.301c0.033-1.521,0.067-3.094,0.106-4.327
			c0.041-1.262,0.102-2.547,0.162-3.79l0.01-0.203c0.074-1.55,0.124-3.381-0.073-5.203c-0.117-1.087-0.427-2.023-0.946-2.862
			c-0.389-0.627-0.889-1.119-1.485-1.461c-0.782-0.449-1.589-0.439-2.285,0.022c-0.403,0.267-0.859,0.57-1.247,0.964
			c-0.647,0.659-1.492,1.535-2.283,2.473c-2.558,3.037-4.823,6.378-6.732,9.934c-1.987,3.7-3.981,7.474-5.909,11.124
			c-0.622,1.177-1.243,2.354-1.866,3.53c-0.489,0.923-0.981,1.863-1.457,2.772c-0.71,1.357-1.445,2.761-2.181,4.132
			c-1.229,2.292-2.726,4.478-4.448,6.498c-0.659,0.773-1.257,1.358-1.883,1.841c-0.451,0.348-0.849,0.567-1.251,0.69
			c-0.181,0.055-0.349,0.083-0.5,0.083c-0.334,0-0.603-0.135-0.843-0.425c-0.229-0.277-0.521-0.645-0.736-1.03
			c-0.293-0.526-0.571-1.096-0.849-1.742c-0.581-1.351-0.993-2.742-1.352-4.043c-0.31-1.122-0.617-2.245-0.924-3.368
			c-0.331-1.21-0.673-2.46-1.013-3.69c-0.287-1.037-0.616-1.919-1.006-2.697c-0.351-0.7-0.798-1.298-1.33-1.78
			c-0.466-0.422-0.998-0.713-1.581-0.865c-0.177-0.046-0.35-0.069-0.514-0.069c-0.567,0-1.04,0.265-1.366,0.767
			c-0.136,0.209-0.306,0.47-0.427,0.758c-0.038,0.09-0.075,0.18-0.113,0.27c-0.231,0.549-0.47,1.117-0.663,1.704l-0.482,1.472
			c-1.357,4.143-2.761,8.427-4.109,12.652c-1.117,3.5-2.028,7.153-2.708,10.856c-0.082,0.444-0.158,0.896-0.231,1.331
			c-0.029,0.171-0.058,0.343-0.087,0.514c-0.128,0.752,0.152,1.375,0.789,1.754c0.038,0.022,0.076,0.045,0.115,0.067
			c0.105,0.061,0.205,0.119,0.275,0.176c0.361,0.298,0.777,0.45,1.236,0.45c0.217,0,0.443-0.033,0.69-0.101
			c0.505-0.139,0.83-0.476,0.938-0.972c0.067-0.311,0.126-0.618,0.174-0.914c0.574-3.543,1.402-7.137,2.46-10.682
			c1.178-3.945,2.394-7.879,3.569-11.684c0.335-1.087,0.708-2.187,1.067-3.252c0.508,1.651,1.018,3.317,1.513,4.936l0.462,1.51
			c0.534,1.743,1.125,3.59,1.959,5.333c0.523,1.093,1.043,1.935,1.635,2.651c0.625,0.757,1.284,1.339,2.015,1.779
			c0.667,0.401,1.363,0.605,2.067,0.605c0.539,0,1.083-0.12,1.616-0.356c0.487-0.216,0.912-0.471,1.264-0.759
			c0.536-0.439,1.048-0.918,1.522-1.425c1.151-1.234,2.115-2.604,2.929-3.792c1.34-1.958,2.605-4.12,3.981-6.805
			c2.127-4.152,4.505-8.616,7.268-13.646c0.219-0.399,0.438-0.799,0.656-1.199c0.909-1.667,1.85-3.392,2.866-5.027
			c1.989-3.2,4.089-5.948,6.42-8.403c0.723-0.761,1.422-1.357,2.138-1.824c0.001,0.028,0.002,0.057,0.003,0.087
			c0.001,0.047,0.003,0.095,0.005,0.142c0.078,1.751-0.039,3.544-0.151,5.277l-0.025,0.385c-0.157,2.425-0.359,6.231-0.468,8.276
			c-0.161,3.015-0.24,6.233-0.243,9.839c-0.001,1.652,0.016,3.693,0.031,5.495c0.004,0.517,0.008,1.017,0.012,1.486
			c0.005,0.694,0.01,1.462,0.015,2.254c0.01,1.508,0.02,3.067,0.034,4.377c0.007,0.66,0.015,1.382,0.022,2.137
			c0.029,2.673,0.061,5.702,0.077,8.012c0.041,5.719,0.105,11.717,0.41,16.671c0.016,0.257,0.033,0.549,0.051,0.865
			c0.089,1.556,0.212,3.687,0.407,4.964c0.035,0.232,0.073,0.526,0.117,0.867c0.157,1.227,0.353,2.754,0.71,3.591
			c0.092,0.216,0.203,0.466,0.35,0.702c0.284,0.455,0.722,0.783,1.266,0.951c0.131,0.041,0.261,0.061,0.387,0.061
			c0.342,0,0.645-0.148,0.852-0.417c0.34-0.441,0.13-0.898,0.051-1.07L200.959,78.359z"/>
		<path d="M132.762,47.174c2.994-1.416,5.698-3.286,8.306-5.304c0.119-0.092,0.188-0.25,0.268-0.361
			c-0.443-0.771-0.443-0.771-1.1-1.224c-0.354,0.232-0.728,0.481-1.107,0.723c-1.423,0.904-2.825,1.845-4.278,2.699
			c-1.563,0.918-3.207,1.672-4.952,2.198c-1.442,0.435-2.912,0.554-4.395,0.38c-0.604-0.071-1.206-0.265-1.774-0.488
			c-0.981-0.385-1.591-1.09-1.806-2.169c-0.184-0.924-0.482-1.828-0.755-2.733c-0.182-0.603-0.515-1.117-1.019-1.513
			c-0.723-0.568-1.193-0.59-1.857,0.027c-0.45,0.417-0.875,0.88-1.226,1.381c-1.25,1.786-2.464,3.598-3.694,5.398
			c-0.222,0.324-0.38,0.704-0.822,1.016c-0.044-0.25-0.104-0.396-0.089-0.534c0.07-0.613,0.153-1.225,0.249-1.834
			c0.316-2.032,0.63-4.064,0.965-6.094c0.164-0.992-0.093-1.875-0.621-2.698c-0.276-0.431-0.644-0.733-1.271-0.743
			c-0.177,0.24-0.387,0.486-0.553,0.759c-0.795,1.31-1.742,2.501-2.854,3.551c-1.137,1.073-2.288,2.134-3.479,3.146
			c-2.482,2.109-5.125,3.999-7.962,5.606c-1.114,0.631-2.266,1.165-3.507,1.5c-0.691,0.187-1.385,0.221-2.073,0.044
			c-0.709-0.183-1.048-0.585-1.068-1.322c-0.017-0.614,0.031-1.234,0.105-1.845c0.026-0.214,0.213-0.408,0.331-0.619
			c0.295,0.084,0.533,0.145,0.766,0.22c1.401,0.448,2.762,0.321,4.082-0.298c1.625-0.763,2.833-1.974,3.622-3.572
			c1.061-2.149,0.561-4.814-1.165-6.486c-1.229-1.19-2.516-1.414-4.069-0.702c-0.873,0.4-1.616,0.979-2.274,1.671
			c-1.806,1.895-2.95,4.142-3.539,6.68c-0.524,2.256-0.201,4.408,0.781,6.488c0.771,1.63,2.05,2.522,3.824,2.743
			c0.796,0.099,1.555-0.073,2.307-0.299c1.111-0.335,2.129-0.87,3.121-1.461c1.912-1.142,3.725-2.426,5.423-3.865
			c1.476-1.25,2.921-2.537,4.378-3.809c0.589-0.514,1.169-1.039,1.769-1.54c0.133-0.111,0.333-0.142,0.546-0.227
			c0,0.339,0.021,0.586-0.004,0.829c-0.111,1.105-0.275,2.207-0.343,3.314c-0.077,1.271-0.09,2.547-0.098,3.821
			c-0.005,0.85,0.356,1.605,0.768,2.319c0.477,0.827,1.398,0.914,2.071,0.209c0.281-0.294,0.505-0.648,0.729-0.992
			c0.85-1.313,1.653-2.656,2.54-3.943c0.956-1.388,1.98-2.729,2.988-4.081c0.19-0.256,0.442-0.466,0.79-0.825
			c0.19,0.418,0.3,0.633,0.386,0.856c0.237,0.614,0.455,1.235,0.697,1.847c0.508,1.286,1.411,2.205,2.657,2.79
			c0.94,0.441,1.926,0.696,2.969,0.755C128.681,48.687,130.762,48.12,132.762,47.174z M95.819,38.726
			c0.378-0.217,0.835-0.322,1.271-0.404c0.343-0.065,0.624,0.257,0.61,0.606c-0.005,0.122-0.023,0.245-0.046,0.364
			c-0.461,2.324-2.645,4.487-4.967,4.916c-0.398,0.074-0.807,0.169-1.336-0.217C92.378,41.802,93.714,39.936,95.819,38.726z"/>
		<path d="M83.194,46.921c0.59-0.777,0.999-1.529,1.249-2.3c0.808-2.483,0.279-4.682-1.57-6.536
			c-0.342-0.342-0.727-0.634-1.092-0.897c-0.711-0.514-1.515-0.961-2.531-1.409c-1.463-0.644-3.082-1.189-4.95-1.668
			c-3.021-0.773-6.278-1.29-10.56-1.675c-2.082-0.188-4.358-0.313-6.961-0.385c-1.26-0.035-2.563-0.053-3.875-0.053
			c-2.521,0-5.101,0.063-7.887,0.19c-0.789,0.036-1.587,0.086-2.359,0.135c-0.37,0.023-0.74,0.046-1.11,0.068l-0.671,0.04
			c-0.592,0.035-1.199,0.071-1.805,0.105c0.256-0.08,0.512-0.161,0.769-0.241c0.93-0.292,1.892-0.595,2.84-0.87
			c8.387-2.43,16.605-4.805,24.427-7.059c2.193-0.632,4.425-1.269,6.583-1.885c2.602-0.743,5.293-1.511,7.937-2.276
			c2.713-0.785,4.898-1.536,6.878-2.363c0.681-0.285,1.325-0.618,1.979-0.962c0.306-0.162,0.606-0.383,0.867-0.64
			c0.584-0.576,0.833-1.362,0.667-2.104c-0.167-0.746-0.732-1.354-1.511-1.628c-0.686-0.241-1.45-0.419-2.405-0.562
			c-1.793-0.268-3.588-0.33-5.323-0.39c-0.984-0.034-1.989-0.05-3.072-0.05c-2.39,0-4.759,0.08-7.582,0.2
			c-0.764,0.032-1.667,0.075-2.583,0.147c-1.794,0.141-3.829,0.3-5.813,0.487l-0.379,0.036c-2.3,0.216-4.678,0.439-7.015,0.715
			c-1.842,0.217-3.708,0.473-5.513,0.719c-0.786,0.107-1.599,0.219-2.398,0.325c-3.309,0.44-6.728,0.973-10.161,1.582
			c-5.939,1.054-10.498,1.949-14.781,2.903c-5.074,1.131-8.917,2.109-12.462,3.172c-2.96,0.888-5.326,1.723-7.444,2.626
			c-0.818,0.349-1.687,0.749-2.5,1.313l-0.054,0.037c-0.173,0.119-0.37,0.254-0.54,0.445c-0.431,0.48-0.584,1.127-0.413,1.731
			c0.172,0.605,0.645,1.074,1.264,1.255c0.099,0.029,0.202,0.049,0.307,0.061c0.104,0.012,0.209,0.025,0.313,0.039
			c0.269,0.034,0.546,0.07,0.833,0.081c0.328,0.012,0.667,0.019,1.01,0.019c2.149,0,4.302-0.24,6.384-0.473l0.371-0.041
			c1.776-0.198,3.58-0.426,5.17-0.628c1.674-0.212,3.339-0.438,4.747-0.629c0.844-0.115,1.702-0.236,2.53-0.354
			c0.599-0.084,1.197-0.169,1.796-0.252c0.646-0.09,1.292-0.178,1.938-0.266c1.144-0.156,2.326-0.317,3.489-0.485
			c1.217-0.176,2.652-0.356,4.077-0.356c0.195,0,0.389,0.003,0.577,0.01c0.146,0.005,0.291-0.003,0.419-0.011
			c0,0.031,0,0.062,0,0.093c-0.006,1.328-0.012,2.656-0.02,3.985c0,0.05,0.001,0.102,0.002,0.153c0.002,0.076,0.003,0.13,0,0.174
			c-0.16,0.058-0.334,0.122-0.508,0.183c-0.512,0.179-1.023,0.358-1.535,0.538c-1.104,0.387-2.247,0.786-3.37,1.183
			c-0.279,0.099-0.541,0.224-0.764,0.333c-1.143,0.559-1.422,1.004-1.425,2.269c-0.002,0.817,0.492,1.423,1.289,1.583
			c0.175,0.035,0.365,0.049,0.555,0.043c0.17-0.005,0.34-0.01,0.51-0.015c0.654-0.019,1.33-0.039,1.998-0.076
			c0.618-0.035,1.242-0.081,1.847-0.125c0.403-0.029,0.82-0.06,1.23-0.087c0,0.009,0,0.018-0.001,0.026
			c-0.028,0.904-0.056,1.808-0.084,2.711c-0.073,2.352-0.147,4.784-0.234,7.174c-0.033,0.912-0.033,1.833-0.032,2.724
			c0.001,1.324,0.002,2.693-0.109,4.024c-0.081,0.97,0.666,1.38,0.911,1.515c0.209,0.115,0.419,0.173,0.625,0.173
			c0.413,0,0.905-0.25,1.051-0.951c0.085-0.412,0.14-0.811,0.162-1.184c0.152-2.603,0.272-4.778,0.378-6.844
			c0.088-1.711,0.173-3.45,0.256-5.132c0.069-1.399,0.137-2.798,0.208-4.197c0.005-0.093,0.017-0.19,0.032-0.296
			c0.258-0.018,0.516-0.036,0.773-0.054c1.098-0.077,2.234-0.156,3.35-0.221c1.213-0.069,2.645-0.146,4.071-0.192
			c0.493-0.016,0.987-0.033,1.48-0.05c1.884-0.064,3.833-0.131,5.744-0.131h0.033c1.872,0.001,3.782,0.078,5.628,0.152
			c0.38,0.015,0.759,0.03,1.139,0.045c2.472,0.096,5.077,0.326,7.743,0.684c2.354,0.316,4.463,0.728,6.447,1.259
			c2.02,0.54,3.505,1.08,4.817,1.75c0.56,0.286,1.282,0.685,1.897,1.231c0.445,0.396,0.778,0.833,1.018,1.335
			c0.271,0.57,0.264,1.089-0.025,1.633c-0.342,0.645-0.771,1.247-1.313,1.84c-0.608,0.666-1.315,1.313-2.225,2.037
			c-1.412,1.123-2.993,2.218-4.833,3.349c-3.166,1.943-6.619,3.858-10.558,5.855c-5.976,3.029-11.835,5.955-16.779,8.418
			c-3.655,1.821-7.38,3.655-10.983,5.429c-0.997,0.491-1.994,0.982-2.991,1.473c-2.465,1.215-4.931,2.428-7.397,3.641
			c-3.933,1.935-7.999,3.936-11.996,5.91c-2.127,1.051-4.172,2.153-6.077,3.276c-1.261,0.743-2.395,1.49-3.467,2.284
			c-0.696,0.515-0.858,1.027-0.578,1.828c0.156,0.447,0.525,0.724,0.963,0.724c0.173,0,0.345-0.044,0.511-0.13
			c0.165-0.086,0.308-0.189,0.423-0.272c1.483-1.069,3.107-2.058,4.828-2.938c2.282-1.167,4.188-2.121,6-3
			c3.861-1.873,7.79-3.773,11.588-5.61c4.317-2.088,8.781-4.247,13.168-6.377c7.684-3.731,15.875-7.726,24.103-11.933
			c3.89-1.989,6.989-3.692,9.753-5.357c2.546-1.535,4.413-2.827,6.053-4.19C81.674,48.678,82.505,47.83,83.194,46.921z
				M35.348,22.238c-0.033,0.264-0.038,0.522-0.039,0.765c-0.001,0.267-0.002,0.533-0.004,0.8c-0.126-0.028-0.232-0.028-0.289-0.028
			c-0.027,0-0.054,0-0.082,0.001c-0.019,0-0.037,0.001-0.055,0.001h-0.012c-0.096-0.001-0.192-0.002-0.288-0.002
			c-0.205,0-0.373,0.005-0.527,0.017c-0.132,0.01-0.264,0.019-0.396,0.029c-0.624,0.045-1.269,0.091-1.906,0.162
			c-1.511,0.168-3.006,0.356-4.139,0.5c-0.784,0.1-1.58,0.207-2.349,0.31c-0.717,0.096-1.458,0.196-2.187,0.289
			c-1.941,0.25-3.513,0.445-4.947,0.616l-0.373,0.044c-1.68,0.2-3.418,0.407-5.127,0.583c-1.195,0.123-2.414,0.228-3.593,0.331
			c-0.572,0.05-1.144,0.1-1.716,0.151c-0.916,0.083-1.883,0.124-2.956,0.124c0.075-0.033,0.15-0.065,0.226-0.096
			c2.41-1.012,4.889-1.782,7.208-2.464c6.107-1.794,12.256-3.08,16.932-4c3.382-0.665,6.876-1.318,10.683-1.996
			c1.828-0.325,3.699-0.605,5.509-0.877c0.372-0.056,0.744-0.111,1.115-0.167c1.615-0.244,3.334-0.489,5.412-0.772
			c1.559-0.212,3.152-0.416,4.734-0.605c1.369-0.164,2.802-0.322,4.261-0.469c1.797-0.181,3.559-0.348,5.237-0.495
			c1.679-0.147,2.975-0.247,4.202-0.325c0.356-0.022,0.712-0.045,1.069-0.068c1.686-0.109,3.429-0.222,5.14-0.27
			c1.039-0.029,2.146-0.042,3.589-0.042c0.638,0,1.276,0.002,1.915,0.005c0.401,0.001,0.803,0.003,1.204,0.004
			c1.458,0.003,2.949,0.101,4.561,0.297c0.402,0.049,0.8,0.124,1.208,0.208c-1.694,0.744-3.588,1.406-5.772,2.018
			c-6.525,1.827-13.171,3.669-18.889,5.253c-1.307,0.362-2.614,0.722-3.921,1.082c-4.694,1.293-9.548,2.63-14.298,4.04
			c-1.164,0.345-2.326,0.693-3.489,1.041c-1.212,0.363-2.464,0.737-3.699,1.104c-0.006-0.63-0.012-1.26-0.017-1.891
			c-0.008-0.915-0.016-1.861-0.028-2.792l-0.001-0.104c-0.003-0.358-0.007-0.729-0.082-1.11c-0.197-1.007-0.809-1.698-1.771-1.996
			c-0.106-0.033-0.213-0.05-0.318-0.05C35.795,21.391,35.411,21.74,35.348,22.238z"/>
	</g>
</svg>