<?xml version="1.0" encoding="utf-8"?>
<!-- Generator: Adobe Illustrator 16.0.0, SVG Export Plug-In . SVG Version: 6.00 Build 0)  -->
<!DOCTYPE svg PUBLIC "-//W3C//DTD SVG 1.1//EN" "http://www.w3.org/Graphics/SVG/1.1/DTD/svg11.dtd">
<svg version="1.1" id="Layer_1" xmlns="http://www.w3.org/2000/svg" xmlns:xlink="http://www.w3.org/1999/xlink" x="0px" y="0px"
	 width="528px" height="124px" viewBox="0 0 528 124" enable-background="new 0 0 528 124" xml:space="preserve">
<g id="color" focusable="false">
	<g>
		<path fill="#FFFFFF" d="M497.302,86.534h-0.159v24.473h-6.505V51.899h6.505v7.118h0.159c3.198-5.377,7.878-8.067,14.04-8.067
			c5.234,0,9.319,1.814,12.254,5.438c2.935,3.625,4.404,8.48,4.404,14.568c0,6.774-1.651,12.198-4.955,16.271
			c-3.309,4.07-7.829,6.106-13.564,6.106C504.215,93.334,500.159,91.068,497.302,86.534z M497.146,70.206v5.653
			c0,3.35,1.088,6.188,3.271,8.521c2.181,2.333,4.949,3.5,8.309,3.5c3.938,0,7.026-1.502,9.26-4.507
			c2.232-3.005,3.351-7.185,3.351-12.534c0-4.507-1.044-8.04-3.13-10.596c-2.092-2.556-4.916-3.835-8.486-3.835
			c-3.779,0-6.823,1.313-9.124,3.936C498.294,62.962,497.146,66.25,497.146,70.206z"/>
		<path fill="#FFFFFF" d="M479.263,92.385h-6.505v-6.328h-0.159c-2.829,4.854-6.993,7.277-12.493,7.277
			c-4.043,0-7.209-1.068-9.5-3.203c-2.284-2.134-3.431-4.967-3.431-8.5c0-7.566,4.468-11.966,13.405-13.206l12.178-1.7
			c0-6.88-2.79-10.317-8.367-10.317c-4.892,0-9.308,1.661-13.246,4.98v-6.641c3.993-2.531,8.595-3.795,13.805-3.795
			c9.543,0,14.316,5.035,14.316,15.105v26.329L479.263,92.385L479.263,92.385z M472.758,71.902l-9.795,1.344
			c-3.014,0.424-5.289,1.166-6.824,2.232c-1.533,1.064-2.3,2.961-2.3,5.672c0,1.977,0.705,3.595,2.119,4.847
			c1.415,1.248,3.299,1.875,5.654,1.875c3.225,0,5.89-1.127,7.99-3.377c2.104-2.254,3.151-5.108,3.151-8.562v-4.031H472.758z"/>
		<path fill="#FFFFFF" d="M443.774,58.461c-1.137-0.87-2.774-1.304-4.915-1.304c-2.774,0-5.097,1.304-6.959,3.915
			c-1.864,2.607-2.797,6.171-2.797,10.674v20.641H422.6V51.899h6.506v8.342h0.158c0.926-2.846,2.34-5.066,4.245-6.662
			c1.902-1.594,4.03-2.394,6.386-2.394c1.69,0,2.986,0.186,3.888,0.552v6.724H443.774z"/>
		<path fill="#FFFFFF" d="M414.934,91.988c-1.533,0.842-3.556,1.267-6.066,1.267c-7.111,0-10.667-3.954-10.667-11.862V57.43h-6.98
			v-5.536h6.98V42.01l6.505-2.098v11.982h10.232v5.536h-10.232v22.815c0,2.716,0.459,4.653,1.387,5.81
			c0.926,1.16,2.46,1.74,4.602,1.74c1.639,0,3.054-0.445,4.244-1.343v5.536H414.934z"/>
		<path fill="#FFFFFF" d="M359.259,90.921v-6.955c3.544,2.608,7.443,3.912,11.7,3.912c5.709,0,8.566-1.896,8.566-5.69
			c0-1.082-0.245-1.998-0.732-2.748c-0.49-0.752-1.15-1.418-1.98-1.996c-0.834-0.578-1.813-1.099-2.938-1.563
			c-1.121-0.461-2.334-0.943-3.63-1.445c-1.798-0.709-3.378-1.429-4.741-2.154c-1.359-0.725-2.496-1.542-3.408-2.452
			s-1.599-1.945-2.062-3.106c-0.462-1.16-0.695-2.516-0.695-4.072c0-1.896,0.437-3.575,1.308-5.039
			c0.873-1.462,2.037-2.69,3.492-3.679c1.454-0.989,3.114-1.731,4.978-2.232c1.862-0.5,3.784-0.751,5.77-0.751
			c3.517,0,6.665,0.607,9.44,1.82v6.562c-2.989-1.951-6.426-2.925-10.311-2.925c-1.216,0-2.314,0.137-3.291,0.415
			c-0.979,0.278-1.819,0.666-2.52,1.167c-0.698,0.501-1.24,1.099-1.623,1.798c-0.386,0.699-0.575,1.469-0.575,2.314
			c0,1.057,0.192,1.938,0.575,2.647c0.383,0.711,0.943,1.343,1.686,1.898c0.737,0.554,1.639,1.054,2.697,1.502
			c1.057,0.445,2.262,0.938,3.608,1.463c1.798,0.687,3.411,1.393,4.839,2.115c1.427,0.726,2.645,1.543,3.648,2.453
			s1.774,1.959,2.32,3.143c0.542,1.188,0.814,2.599,0.814,4.231c0,2.003-0.447,3.743-1.333,5.218
			c-0.886,1.476-2.066,2.703-3.546,3.676c-1.482,0.975-3.188,1.701-5.118,2.177c-1.931,0.474-3.953,0.709-6.067,0.709
			C365.948,93.334,362.325,92.527,359.259,90.921z"/>
		<path fill="#FFFFFF" d="M352.768,91.988c-1.535,0.842-3.557,1.267-6.067,1.267c-7.111,0-10.668-3.954-10.668-11.862V57.43h-6.979
			v-5.536h6.979V42.01l6.506-2.098v11.982h10.231v5.536h-10.231v22.815c0,2.716,0.459,4.653,1.387,5.81
			c0.927,1.16,2.46,1.74,4.601,1.74c1.64,0,3.055-0.445,4.246-1.343v5.536H352.768z"/>
		<path fill="#FFFFFF" d="M304.495,93.334c-6,0-10.793-1.891-14.374-5.672c-3.583-3.78-5.375-8.797-5.375-15.044
			c0-6.804,1.861-12.113,5.593-15.936c3.728-3.819,8.763-5.731,15.112-5.731c6.055,0,10.779,1.857,14.177,5.575
			c3.396,3.719,5.097,8.871,5.097,15.46c0,6.457-1.832,11.633-5.492,15.517C315.566,91.389,310.657,93.334,304.495,93.334z
			 M304.973,56.407c-4.178,0-7.481,1.417-9.914,4.25c-2.435,2.834-3.646,6.741-3.646,11.722c0,4.797,1.229,8.583,3.688,11.35
			s5.752,4.149,9.877,4.149c4.202,0,7.438-1.354,9.697-4.069c2.258-2.718,3.387-6.578,3.387-11.588
			c0-5.061-1.129-8.963-3.387-11.704C312.409,57.774,309.175,56.407,304.973,56.407z"/>
		<path fill="#FFFFFF" d="M257.302,93.334c-6,0-10.793-1.891-14.374-5.672c-3.583-3.78-5.375-8.797-5.375-15.044
			c0-6.804,1.862-12.113,5.593-15.936c3.728-3.819,8.763-5.731,15.112-5.731c6.055,0,10.78,1.857,14.178,5.575
			c3.396,3.719,5.096,8.871,5.096,15.46c0,6.457-1.831,11.633-5.491,15.517C268.373,91.389,263.464,93.334,257.302,93.334z
			 M257.779,56.407c-4.178,0-7.482,1.417-9.914,4.25c-2.435,2.834-3.647,6.741-3.647,11.722c0,4.797,1.228,8.583,3.688,11.35
			c2.459,2.767,5.752,4.149,9.877,4.149c4.202,0,7.437-1.354,9.695-4.069c2.258-2.718,3.389-6.578,3.389-11.588
			c0-5.061-1.131-8.963-3.389-11.704C265.216,57.774,261.981,56.407,257.779,56.407z"/>
		<path fill="#FFFFFF" d="M189.41,92.385V35.436h22.367c9.779,0,16.397,5.683,16.397,14.208c0,5.927-4.354,11.445-9.858,12.431
			v0.317c7.761,0.986,12.747,6.433,12.747,14.008c0,10.025-7.207,15.984-19.356,15.984H189.41L189.41,92.385z M196.537,59.985h11.4
			c8.434,0,13.024-3.355,13.024-9.521c0-5.643-3.88-8.76-10.808-8.76H196.54v18.281H196.537z M210.629,86.109
			c8.591,0,13.105-3.471,13.105-10.057c0-6.583-4.671-9.945-13.776-9.945h-13.421v20.009L210.629,86.109z"/>
	</g>
	<g>
		
			<linearGradient id="SVGID_1_" gradientUnits="userSpaceOnUse" x1="-334.2476" y1="350.5205" x2="-220.2078" y2="236.4807" gradientTransform="matrix(1 0 0 -1 356 355.5)">
			<stop  offset="0" style="stop-color:#8F13FE"/>
			<stop  offset="0.5" style="stop-color:#7A11F7"/>
			<stop  offset="1" style="stop-color:#6A10F3"/>
		</linearGradient>
		<path fill="url(#SVGID_1_)" d="M140.271,107.926c0,8.84-7.257,16.074-16.123,16.074h-90.75c-8.868,0-16.123-7.234-16.123-16.074
			c0,0,0-0.23,0-12.859S11.287,65.902,0,65.902v-7.806c11.287,0,17.275-16.304,17.275-29.164c0-12.859,0-12.859,0-12.859
			C17.275,7.234,24.53,0,33.398,0h90.75c8.866,0,16.123,7.234,16.123,16.074c0,0,0,0,0,12.859c0,12.86,5.989,29.164,16.583,29.164
			v7.807c-10.594,0-16.583,15.845-16.583,28.933C140.271,107.926,140.271,107.926,140.271,107.926z"/>
		<path fill="#FFFFFF" d="M93.415,60.027c5.53-2.358,9.537-8.314,9.537-14.748c0-10.605-8.168-17.729-20.326-17.729h-27.39v69.226
			h27.305c14.92,0,23.828-7.414,23.828-19.832C106.369,68.537,101.379,62.156,93.415,60.027z M80.704,36.804
			c7.654,0,11.869,3.356,11.869,9.449c0,8.551-7.881,10.347-14.492,10.347H65.516V36.804H80.704z M65.513,87.521V65.68h14.96
			c10.207,0,15.381,3.651,15.381,10.852c0,7.289-4.906,10.984-14.588,10.984L65.513,87.521z"/>
	</g>
</g>
<g id="mask">
	<g>
		<path fill="#FFFFFF" d="M497.302,86.534h-0.159v24.473h-6.505V51.899h6.505v7.118h0.159c3.198-5.377,7.878-8.067,14.04-8.067
			c5.234,0,9.319,1.814,12.254,5.438c2.935,3.625,4.404,8.48,4.404,14.568c0,6.774-1.651,12.198-4.955,16.271
			c-3.309,4.07-7.829,6.106-13.564,6.106C504.215,93.334,500.159,91.068,497.302,86.534z M497.146,70.206v5.653
			c0,3.35,1.088,6.188,3.271,8.521c2.181,2.333,4.949,3.5,8.309,3.5c3.938,0,7.026-1.502,9.26-4.507
			c2.232-3.005,3.351-7.185,3.351-12.534c0-4.507-1.044-8.04-3.13-10.596c-2.092-2.556-4.916-3.835-8.486-3.835
			c-3.779,0-6.823,1.313-9.124,3.936C498.294,62.962,497.146,66.25,497.146,70.206z"/>
		<path fill="#FFFFFF" d="M479.263,92.385h-6.505v-6.328h-0.159c-2.829,4.854-6.993,7.277-12.493,7.277
			c-4.043,0-7.209-1.068-9.5-3.203c-2.284-2.134-3.431-4.967-3.431-8.5c0-7.566,4.468-11.966,13.405-13.206l12.178-1.7
			c0-6.88-2.79-10.317-8.367-10.317c-4.892,0-9.308,1.661-13.246,4.98v-6.641c3.993-2.531,8.595-3.795,13.805-3.795
			c9.543,0,14.316,5.035,14.316,15.105v26.329L479.263,92.385L479.263,92.385z M472.758,71.902l-9.795,1.344
			c-3.014,0.424-5.289,1.166-6.824,2.232c-1.533,1.064-2.3,2.961-2.3,5.672c0,1.977,0.705,3.595,2.119,4.847
			c1.415,1.248,3.299,1.875,5.654,1.875c3.225,0,5.89-1.127,7.99-3.377c2.104-2.254,3.151-5.108,3.151-8.562v-4.031H472.758z"/>
		<path fill="#FFFFFF" d="M443.774,58.461c-1.137-0.87-2.774-1.304-4.915-1.304c-2.774,0-5.097,1.304-6.959,3.915
			c-1.864,2.607-2.797,6.171-2.797,10.674v20.641H422.6V51.899h6.506v8.342h0.158c0.926-2.846,2.34-5.066,4.245-6.662
			c1.902-1.594,4.03-2.394,6.386-2.394c1.69,0,2.986,0.186,3.888,0.552v6.724H443.774z"/>
		<path fill="#FFFFFF" d="M414.934,91.988c-1.533,0.842-3.556,1.267-6.066,1.267c-7.111,0-10.667-3.954-10.667-11.862V57.43h-6.98
			v-5.536h6.98V42.01l6.505-2.098v11.982h10.232v5.536h-10.232v22.815c0,2.716,0.459,4.653,1.387,5.81
			c0.926,1.16,2.46,1.74,4.602,1.74c1.639,0,3.054-0.445,4.244-1.343v5.536H414.934z"/>
		<path fill="#FFFFFF" d="M359.259,90.921v-6.955c3.544,2.608,7.443,3.912,11.7,3.912c5.709,0,8.566-1.896,8.566-5.69
			c0-1.082-0.245-1.998-0.732-2.748c-0.49-0.752-1.15-1.418-1.98-1.996c-0.834-0.578-1.813-1.099-2.938-1.563
			c-1.121-0.461-2.334-0.943-3.63-1.445c-1.798-0.709-3.378-1.429-4.741-2.154c-1.359-0.725-2.496-1.542-3.408-2.452
			s-1.599-1.945-2.062-3.106c-0.462-1.16-0.695-2.516-0.695-4.072c0-1.896,0.437-3.575,1.308-5.039
			c0.873-1.462,2.037-2.69,3.492-3.679c1.454-0.989,3.114-1.731,4.978-2.232c1.862-0.5,3.784-0.751,5.77-0.751
			c3.517,0,6.665,0.607,9.44,1.82v6.562c-2.989-1.951-6.426-2.925-10.311-2.925c-1.216,0-2.314,0.137-3.291,0.415
			c-0.979,0.278-1.819,0.666-2.52,1.167c-0.698,0.501-1.24,1.099-1.623,1.798c-0.386,0.699-0.575,1.469-0.575,2.314
			c0,1.057,0.192,1.938,0.575,2.647c0.383,0.711,0.943,1.343,1.686,1.898c0.737,0.554,1.639,1.054,2.697,1.502
			c1.057,0.445,2.262,0.938,3.608,1.463c1.798,0.687,3.411,1.393,4.839,2.115c1.427,0.726,2.645,1.543,3.648,2.453
			s1.774,1.959,2.32,3.143c0.542,1.188,0.814,2.599,0.814,4.231c0,2.003-0.447,3.743-1.333,5.218
			c-0.886,1.476-2.066,2.703-3.546,3.676c-1.482,0.975-3.188,1.701-5.118,2.177c-1.931,0.474-3.953,0.709-6.067,0.709
			C365.948,93.334,362.325,92.527,359.259,90.921z"/>
		<path fill="#FFFFFF" d="M352.768,91.988c-1.535,0.842-3.557,1.267-6.067,1.267c-7.111,0-10.668-3.954-10.668-11.862V57.43h-6.979
			v-5.536h6.979V42.01l6.506-2.098v11.982h10.231v5.536h-10.231v22.815c0,2.716,0.459,4.653,1.387,5.81
			c0.927,1.16,2.46,1.74,4.601,1.74c1.64,0,3.055-0.445,4.246-1.343v5.536H352.768z"/>
		<path fill="#FFFFFF" d="M304.495,93.334c-6,0-10.793-1.891-14.374-5.672c-3.583-3.78-5.375-8.797-5.375-15.044
			c0-6.804,1.861-12.113,5.593-15.936c3.728-3.819,8.763-5.731,15.112-5.731c6.055,0,10.779,1.857,14.177,5.575
			c3.396,3.719,5.097,8.871,5.097,15.46c0,6.457-1.832,11.633-5.492,15.517C315.566,91.389,310.657,93.334,304.495,93.334z
			 M304.973,56.407c-4.178,0-7.481,1.417-9.914,4.25c-2.435,2.834-3.646,6.741-3.646,11.722c0,4.797,1.229,8.583,3.688,11.35
			s5.752,4.149,9.877,4.149c4.202,0,7.438-1.354,9.697-4.069c2.258-2.718,3.387-6.578,3.387-11.588
			c0-5.061-1.129-8.963-3.387-11.704C312.409,57.774,309.175,56.407,304.973,56.407z"/>
		<path fill="#FFFFFF" d="M257.302,93.334c-6,0-10.793-1.891-14.374-5.672c-3.583-3.78-5.375-8.797-5.375-15.044
			c0-6.804,1.862-12.113,5.593-15.936c3.728-3.819,8.763-5.731,15.112-5.731c6.055,0,10.78,1.857,14.178,5.575
			c3.396,3.719,5.096,8.871,5.096,15.46c0,6.457-1.831,11.633-5.491,15.517C268.373,91.389,263.464,93.334,257.302,93.334z
			 M257.779,56.407c-4.178,0-7.482,1.417-9.914,4.25c-2.435,2.834-3.647,6.741-3.647,11.722c0,4.797,1.228,8.583,3.688,11.35
			c2.459,2.767,5.752,4.149,9.877,4.149c4.202,0,7.437-1.354,9.695-4.069c2.258-2.718,3.389-6.578,3.389-11.588
			c0-5.061-1.131-8.963-3.389-11.704C265.216,57.774,261.981,56.407,257.779,56.407z"/>
		<path fill="#FFFFFF" d="M189.41,92.385V35.436h22.367c9.779,0,16.397,5.683,16.397,14.208c0,5.927-4.354,11.445-9.858,12.431
			v0.317c7.761,0.986,12.747,6.433,12.747,14.008c0,10.025-7.207,15.984-19.356,15.984H189.41L189.41,92.385z M196.537,59.985h11.4
			c8.434,0,13.024-3.355,13.024-9.521c0-5.643-3.88-8.76-10.808-8.76H196.54v18.281H196.537z M210.629,86.109
			c8.591,0,13.105-3.471,13.105-10.057c0-6.583-4.671-9.945-13.776-9.945h-13.421v20.009L210.629,86.109z"/>
	</g>
	<g>
		<path fill="#FFFFFF" d="M80.473,65.68h-14.96v21.842l15.753-0.006c9.682,0,14.588-3.695,14.588-10.984
			C95.854,69.331,90.68,65.68,80.473,65.68z"/>
		<path fill="#FFFFFF" d="M92.573,46.253c0-6.093-4.215-9.449-11.869-9.449H65.516V56.6h12.565
			C84.692,56.6,92.573,54.804,92.573,46.253z"/>
		<path fill="#FFFFFF" d="M140.271,28.933c0-12.859,0-12.859,0-12.859c0-8.84-7.257-16.074-16.123-16.074h-90.75
			C24.53,0,17.275,7.234,17.275,16.073c0,0,0,0,0,12.859c0,12.86-5.988,29.164-17.275,29.164v7.806
			c11.287,0,17.275,16.535,17.275,29.164s0,12.859,0,12.859c0,8.84,7.255,16.074,16.123,16.074h90.75
			c8.866,0,16.123-7.234,16.123-16.074c0,0,0,0,0-13.089c0-13.088,5.989-28.933,16.583-28.933v-7.807
			C146.26,58.097,140.271,41.793,140.271,28.933z M82.541,96.775H55.236V27.55h27.39c12.158,0,20.326,7.124,20.326,17.729
			c0,6.434-4.007,12.39-9.537,14.748c7.964,2.129,12.954,8.51,12.954,16.917C106.369,89.361,97.461,96.775,82.541,96.775z"/>
	</g>
</g>
</svg>
