<svg version="1.1" id="bootstrap" focusable="false"
	 xmlns="http://www.w3.org/2000/svg" xmlns:xlink="http://www.w3.org/1999/xlink" x="0px" y="0px" 
	 viewBox="0 0 150.927 36" enable-background="new 0 0 150.927 36" xml:space="preserve">
<path fill="#FFFFFF" d="M140.904,25.819h-0.052v8.015h-2.124V14.476h2.124v2.331h0.052c1.044-1.761,2.572-2.642,4.584-2.642
	c1.709,0,3.043,0.594,4.001,1.781s1.438,2.777,1.438,4.771c0,2.219-0.539,3.995-1.618,5.329c-1.08,1.333-2.556,2-4.429,2
	C143.161,28.046,141.837,27.304,140.904,25.819z M140.853,20.471v1.852c0,1.097,0.355,2.027,1.068,2.791
	c0.712,0.764,1.616,1.146,2.713,1.146c1.286,0,2.294-0.492,3.023-1.476c0.729-0.984,1.094-2.353,1.094-4.105
	c0-1.476-0.341-2.633-1.022-3.47c-0.683-0.837-1.605-1.256-2.771-1.256c-1.234,0-2.228,0.43-2.979,1.289
	C141.228,18.099,140.853,19.176,140.853,20.471z"/>
<path fill="#FFFFFF" d="M135.014,27.735h-2.124v-2.072h-0.052c-0.924,1.589-2.283,2.383-4.079,2.383c-1.32,0-2.354-0.35-3.102-1.049
	c-0.746-0.699-1.12-1.627-1.12-2.784c0-2.478,1.459-3.919,4.377-4.325l3.976-0.557c0-2.253-0.911-3.379-2.732-3.379
	c-1.597,0-3.039,0.544-4.325,1.631v-2.175c1.304-0.829,2.806-1.243,4.507-1.243c3.116,0,4.675,1.649,4.675,4.947V27.735z
	 M132.89,21.027l-3.198,0.44c-0.984,0.139-1.727,0.382-2.228,0.731s-0.751,0.97-0.751,1.858c0,0.647,0.23,1.177,0.692,1.587
	c0.462,0.409,1.077,0.614,1.846,0.614c1.053,0,1.923-0.369,2.609-1.106c0.687-0.738,1.029-1.673,1.029-2.804V21.027z"/>
<path fill="#FFFFFF" d="M123.427,16.625c-0.371-0.285-0.906-0.427-1.605-0.427c-0.906,0-1.664,0.427-2.272,1.282
	c-0.609,0.854-0.913,2.021-0.913,3.496v6.76h-2.124v-13.26h2.124v2.732h0.052c0.302-0.932,0.764-1.659,1.386-2.182
	c0.621-0.522,1.316-0.784,2.085-0.784c0.552,0,0.975,0.061,1.269,0.181V16.625z"/>
<path fill="#FFFFFF" d="M114.01,27.605c-0.501,0.276-1.161,0.415-1.981,0.415c-2.322,0-3.483-1.295-3.483-3.885v-7.848h-2.279
	v-1.813h2.279v-3.237l2.124-0.687v3.924h3.341v1.813h-3.341v7.472c0,0.89,0.15,1.524,0.453,1.903c0.302,0.38,0.803,0.57,1.502,0.57
	c0.535,0,0.997-0.146,1.386-0.44V27.605z"/>
<path fill="#FFFFFF" d="M95.832,27.256v-2.278c1.157,0.854,2.43,1.281,3.82,1.281c1.864,0,2.797-0.621,2.797-1.864
	c0-0.354-0.08-0.654-0.239-0.9c-0.16-0.246-0.376-0.464-0.647-0.653c-0.272-0.19-0.592-0.36-0.959-0.512
	c-0.366-0.151-0.762-0.309-1.185-0.473c-0.587-0.233-1.103-0.468-1.548-0.706c-0.444-0.237-0.815-0.505-1.113-0.803
	s-0.522-0.637-0.673-1.017c-0.151-0.38-0.227-0.824-0.227-1.334c0-0.621,0.142-1.171,0.427-1.65c0.285-0.479,0.665-0.881,1.14-1.205
	s1.017-0.567,1.625-0.731s1.236-0.246,1.884-0.246c1.148,0,2.176,0.199,3.082,0.596v2.149c-0.976-0.639-2.098-0.958-3.366-0.958
	c-0.397,0-0.756,0.045-1.075,0.136c-0.319,0.091-0.594,0.218-0.822,0.382s-0.405,0.36-0.53,0.589
	c-0.126,0.229-0.188,0.481-0.188,0.758c0,0.346,0.063,0.635,0.188,0.867c0.125,0.233,0.308,0.44,0.55,0.622
	c0.241,0.181,0.535,0.345,0.881,0.492c0.345,0.146,0.738,0.307,1.178,0.479c0.587,0.225,1.114,0.456,1.58,0.693
	s0.863,0.505,1.191,0.803s0.58,0.641,0.758,1.029c0.177,0.389,0.266,0.851,0.266,1.386c0,0.656-0.146,1.226-0.435,1.709
	s-0.675,0.885-1.158,1.204c-0.484,0.319-1.041,0.557-1.671,0.713c-0.63,0.155-1.291,0.232-1.981,0.232
	C98.016,28.046,96.833,27.782,95.832,27.256z"/>
<path fill="#FFFFFF" d="M93.712,27.605c-0.501,0.276-1.161,0.415-1.981,0.415c-2.322,0-3.483-1.295-3.483-3.885v-7.848h-2.279
	v-1.813h2.279v-3.237l2.124-0.687v3.924h3.341v1.813h-3.341v7.472c0,0.89,0.15,1.524,0.453,1.903c0.302,0.38,0.803,0.57,1.502,0.57
	c0.535,0,0.997-0.146,1.386-0.44V27.605z"/>
<path fill="#FFFFFF" d="M77.951,28.046c-1.959,0-3.524-0.619-4.693-1.858c-1.17-1.238-1.755-2.881-1.755-4.927
	c0-2.228,0.608-3.967,1.826-5.219c1.217-1.251,2.861-1.877,4.934-1.877c1.977,0,3.52,0.608,4.629,1.826s1.664,2.905,1.664,5.063
	c0,2.115-0.598,3.81-1.793,5.082C81.566,27.409,79.963,28.046,77.951,28.046z M78.107,15.952c-1.364,0-2.443,0.464-3.237,1.392
	c-0.795,0.928-1.191,2.208-1.191,3.839c0,1.571,0.401,2.811,1.204,3.717s1.878,1.359,3.225,1.359c1.372,0,2.428-0.444,3.166-1.333
	c0.737-0.89,1.106-2.154,1.106-3.795c0-1.657-0.369-2.935-1.106-3.833C80.535,16.4,79.479,15.952,78.107,15.952z"/>
<path fill="#FFFFFF" d="M62.542,28.046c-1.959,0-3.524-0.619-4.693-1.858c-1.17-1.238-1.755-2.881-1.755-4.927
	c0-2.228,0.608-3.967,1.826-5.219c1.217-1.251,2.861-1.877,4.934-1.877c1.977,0,3.52,0.608,4.629,1.826s1.664,2.905,1.664,5.063
	c0,2.115-0.598,3.81-1.793,5.082C66.157,27.409,64.554,28.046,62.542,28.046z M62.698,15.952c-1.364,0-2.443,0.464-3.237,1.392
	c-0.795,0.928-1.191,2.208-1.191,3.839c0,1.571,0.401,2.811,1.204,3.717s1.878,1.359,3.225,1.359c1.372,0,2.428-0.444,3.166-1.333
	c0.737-0.89,1.106-2.154,1.106-3.795c0-1.657-0.369-2.935-1.106-3.833C65.126,16.4,64.07,15.952,62.698,15.952z"/>
<path fill="#FFFFFF" d="M40.375,27.735V9.084h7.303c3.193,0,5.354,1.861,5.354,4.653c0,1.941-1.422,3.748-3.219,4.071v0.104
	c2.534,0.323,4.162,2.107,4.162,4.588c0,3.283-2.353,5.235-6.32,5.235H40.375z M42.702,17.124h3.722
	c2.754,0,4.253-1.099,4.253-3.118c0-1.848-1.267-2.869-3.529-2.869h-4.445V17.124z M47.303,25.68c2.805,0,4.279-1.137,4.279-3.294
	c0-2.156-1.525-3.257-4.498-3.257h-4.382v6.553L47.303,25.68z"/>
<path fill="#FFFFFF" d="M30,0.471C33.05,0.48,35.52,2.95,35.529,6v24c-0.01,3.05-2.479,5.52-5.529,5.529H6
	C2.95,35.52,0.48,33.05,0.471,30V6C0.48,2.95,2.95,0.48,6,0.471H30 M30,0H6C2.7,0,0,2.7,0,6v24c0,3.3,2.7,6,6,6h24c3.3,0,6-2.7,6-6
	V6C36,2.7,33.3,0,30,0z"/>
<path fill="#FFFFFF" d="M11.575,27.735V9.084h7.302c3.193,0,5.354,1.861,5.354,4.653c0,1.941-1.422,3.748-3.219,4.071v0.104
	c2.534,0.323,4.162,2.107,4.162,4.588c0,3.283-2.353,5.235-6.32,5.235H11.575z M13.901,17.124h3.722
	c2.753,0,4.252-1.099,4.252-3.118c0-1.848-1.267-2.869-3.529-2.869h-4.445V17.124z M18.502,25.68c2.805,0,4.279-1.137,4.279-3.294
	c0-2.156-1.525-3.257-4.498-3.257h-4.382v6.553L18.502,25.68z"/>
</svg>
