<?xml version="1.0" encoding="utf-8"?>
<!-- Generator: Adobe Illustrator 16.0.0, SVG Export Plug-In . SVG Version: 6.00 Build 0)  -->
<!DOCTYPE svg PUBLIC "-//W3C//DTD SVG 1.1//EN" "http://www.w3.org/Graphics/SVG/1.1/DTD/svg11.dtd">
<svg version="1.1" xmlns="http://www.w3.org/2000/svg" xmlns:xlink="http://www.w3.org/1999/xlink" x="0px" y="0px" width="528px"
	 height="488px" viewBox="0 0 528 488" enable-background="new 0 0 528 488" xml:space="preserve">
<g id="color" focusable="false">
	
		<linearGradient id="b_2_" gradientUnits="userSpaceOnUse" x1="41.1323" y1="430.8457" x2="41.1323" y2="429.6338" gradientTransform="matrix(435.7063 0 0 -292.809 -17657.6055 126288.3438)">
		<stop  offset="0" style="stop-color:#5C24AE"/>
		<stop  offset="1" style="stop-color:#30135A"/>
	</linearGradient>
	<path id="b_1_" fill="url(#b_2_)" d="M215.224,146.781L20.12,277.862c-26.827,18.023-26.827,47.516,0,65.539l195.104,131.081
		c26.827,18.023,70.724,18.023,97.551,0L507.88,343.401c26.827-18.023,26.827-47.516,0-65.539L312.775,146.781
		C285.948,128.758,242.051,128.758,215.224,146.781L215.224,146.781z"/>
	
		<linearGradient id="e_2_" gradientUnits="userSpaceOnUse" x1="41.1323" y1="431.0947" x2="41.1323" y2="429.6731" gradientTransform="matrix(435.7063 0 0 -292.809 -17657.6055 126233.3281)">
		<stop  offset="0" style="stop-color:#7331D4"/>
		<stop  offset="1" style="stop-color:#461B84"/>
	</linearGradient>
	<path id="e_1_" fill="url(#e_2_)" d="M215.224,80.149L20.12,211.229c-26.827,18.023-26.827,47.517,0,65.54l195.104,131.08
		c26.827,18.022,70.724,18.022,97.551,0L507.88,276.77c26.827-18.023,26.827-47.517,0-65.54L312.775,80.149
		C285.948,62.126,242.051,62.126,215.224,80.149L215.224,80.149z"/>
	
		<linearGradient id="h_2_" gradientUnits="userSpaceOnUse" x1="41.1323" y1="430.9238" x2="41.1323" y2="429.7129" gradientTransform="matrix(435.7063 0 0 -292.809 -17657.6055 126178.3281)">
		<stop  offset="0" style="stop-color:#905BDD"/>
		<stop  offset="1" style="stop-color:#5521A0"/>
	</linearGradient>
	<path id="h_1_" fill="url(#h_2_)" d="M215.224,13.517L20.12,144.598c-26.827,18.023-26.827,47.516,0,65.54l195.104,131.079
		c26.827,18.023,70.724,18.023,97.551,0L507.88,210.138c26.827-18.024,26.827-47.517,0-65.54L312.775,13.517
		C285.948-4.506,242.051-4.506,215.224,13.517L215.224,13.517z"/>
	<path fill="#FFFFFF" d="M292.36,256.942L140.739,155.076l59.368-39.886c25.951-17.436,58.645-19.071,81.338-3.823
		c15.782,10.602,18.915,28.237,6.937,39.812l0.841,0.566c23.222-12.073,50.962-11.223,71.133,2.329
		c26.687,17.931,23.43,41.444-8.823,63.115L292.36,256.942z M225.006,186.278l30.261-20.33
		c22.378-15.036,25.635-29.227,9.224-40.252c-15.026-10.095-33.621-8.755-52.018,3.604l-36.137,24.279L225.006,186.278z
		 M331.97,207.88c22.8-15.318,25.529-29.58,8-41.357c-17.531-11.778-38.878-9.458-63.041,6.776l-35.621,23.932l53.271,35.79
		L331.97,207.88z"/>
</g>
<g id="mask">
	<path fill="#FFFFFF" d="M264.491,125.695c-15.026-10.095-33.621-8.755-52.018,3.604l-36.137,24.279l48.67,32.699l30.261-20.33
		C277.646,150.912,280.902,136.721,264.491,125.695z"/>
	<path fill="#FFFFFF" d="M339.97,166.522c-17.531-11.778-38.878-9.458-63.041,6.776l-35.621,23.932l53.271,35.79l37.391-25.14
		C354.77,192.562,357.499,178.3,339.97,166.522z"/>
	<path fill="#FFFFFF" d="M507.88,211.229l-0.813-0.546l0.813-0.546c26.827-18.024,26.827-47.517,0-65.54L312.775,13.517
		c-26.827-18.023-70.724-18.023-97.551,0L20.12,144.598c-26.827,18.023-26.827,47.516,0,65.54l0.813,0.546l-0.813,0.546
		c-26.827,18.023-26.827,47.517,0,65.54l0.813,0.547l-0.813,0.546c-26.827,18.023-26.827,47.516,0,65.539l195.104,131.081
		c26.827,18.023,70.724,18.023,97.551,0L507.88,343.401c26.827-18.023,26.827-47.516,0-65.539l-0.813-0.546l0.813-0.547
		C534.707,258.746,534.707,229.253,507.88,211.229z M351.532,217.188l-59.172,39.754L140.739,155.076l59.368-39.886
		c25.951-17.436,58.645-19.071,81.338-3.823c15.782,10.602,18.915,28.237,6.937,39.812l0.841,0.566
		c23.222-12.073,50.962-11.223,71.133,2.329C387.042,172.004,383.785,195.518,351.532,217.188z"/>
</g>
</svg>