<?xml version="1.0" encoding="utf-8"?>
<!-- Generator: Adobe Illustrator 16.0.0, SVG Export Plug-In . SVG Version: 6.00 Build 0)  -->
<!DOCTYPE svg PUBLIC "-//W3C//DTD SVG 1.1//EN" "http://www.w3.org/Graphics/SVG/1.1/DTD/svg11.dtd">
<svg version="1.1" id="Layer_1" xmlns="http://www.w3.org/2000/svg" xmlns:xlink="http://www.w3.org/1999/xlink" x="0px" y="0px"
	 width="100px" height="100px" viewBox="0 0 100 100" enable-background="new 0 0 100 100" xml:space="preserve">
<g>
	<path d="M12.216,98h75.568c5.198,0,9.427-4.229,9.427-9.427V20.782c0-5.197-4.229-9.427-9.427-9.427h-2.231l-0.001-4.688
		C85.552,4.1,83.449,2,80.883,2h-0.472c-2.567,0-4.667,2.1-4.667,4.667v4.689H65.119V6.667C65.118,4.1,63.018,2,60.451,2h-0.472
		c-2.566,0-4.667,2.1-4.667,4.667v4.689H44.688V6.667C44.688,4.1,42.586,2,40.02,2h-0.472c-2.566,0-4.667,2.1-4.667,4.667v4.689
		H24.256V6.667C24.256,4.1,22.156,2,19.589,2h-0.472c-2.567,0-4.669,2.1-4.669,4.667v4.689h-2.233c-5.197,0-9.427,4.229-9.427,9.427
		v67.792C2.79,93.771,7.019,98,12.216,98L12.216,98z M9.443,31.259h81.113v57.312c0,1.53-1.245,2.772-2.773,2.772H12.215
		c-1.528,0-2.773-1.243-2.773-2.772V31.259H9.443z"/>
	<path d="M17.225,38.478H35.37v11.728H17.225V38.478z"/>
	<path d="M40.927,38.478h18.144v11.728H40.927V38.478z"/>
	<path d="M64.628,38.478h18.146v11.728H64.628V38.478z"/>
	<path d="M17.225,55.759H35.37v11.727H17.225V55.759z"/>
	<path d="M40.927,55.759h18.144v11.727H40.927V55.759z"/>
	<path d="M64.628,55.759h18.146v11.727H64.628V55.759z"/>
	<path d="M17.225,73.039H35.37v11.727H17.225V73.039z"/>
	<path d="M40.927,73.039h18.144v11.727H40.927V73.039z"/>
</g>
</svg>
