<svg xmlns="http://www.w3.org/2000/svg" x="0px" y="0px" width="100px" height="100px" viewBox="-701.5 587.5 100 100" enable-background="new -701.5 587.5 100 100" xml:space="preserve">
	<path d="M-651.5,687.499c-0.016,0-0.031,0-0.047-0.001h-0.001c-0.97-0.009-1.87-0.312-2.616-0.823l-45.134-29.952
		c-0.505-0.317-0.958-0.737-1.324-1.253c-0.042-0.06-0.083-0.119-0.123-0.181c-0.522-0.811-0.767-1.724-0.754-2.622v-30.332
		c-0.013-0.896,0.229-1.805,0.747-2.613c0.034-0.053,0.068-0.104,0.104-0.156c0.37-0.528,0.83-0.961,1.346-1.286l45.138-29.955
		c0.746-0.511,1.646-0.813,2.616-0.823c0.001,0,0.003,0,0.004,0c0.03-0.001,0.06-0.001,0.089,0c0.001,0,0.003,0,0.005,0
		c0.97,0.01,1.869,0.313,2.615,0.823l45.137,29.955c0.521,0.327,0.985,0.765,1.357,1.303c0.028,0.042,0.058,0.084,0.085,0.127
		c0.523,0.812,0.768,1.726,0.755,2.627v30.331c0.013,0.897-0.229,1.81-0.751,2.618c-0.042,0.063-0.084,0.128-0.129,0.188
		c-0.365,0.512-0.814,0.931-1.317,1.246l-45.138,29.956c-0.746,0.511-1.646,0.813-2.615,0.822c-0.002,0-0.004,0-0.005,0
		C-651.471,687.499-651.484,687.499-651.5,687.499z M-688.281,652.702l32.061,21.275V654.85l-17.747-11.776L-688.281,652.702z
		M-646.779,654.851v19.129l32.061-21.276l-14.313-9.629L-646.779,654.851z M-665.486,637.369l13.986,9.282l13.988-9.282
		l-13.988-9.409L-665.486,637.369z M-692.057,631.068v12.795l9.574-6.44L-692.057,631.068z M-620.518,637.423l9.576,6.44v-12.796
		L-620.518,637.423z M-688.24,622.271l14.237,9.447l17.782-11.962v-18.735L-688.24,622.271z M-646.779,619.756l17.782,11.962
		l14.237-9.447l-32.02-21.25V619.756L-646.779,619.756z"/>
</svg>
