<?xml version="1.0" encoding="utf-8"?>
<!-- Generator: Adobe Illustrator 16.0.0, SVG Export Plug-In . SVG Version: 6.00 Build 0)  -->
<!DOCTYPE svg PUBLIC "-//W3C//DTD SVG 1.1//EN" "http://www.w3.org/Graphics/SVG/1.1/DTD/svg11.dtd">
<svg version="1.1" xmlns="http://www.w3.org/2000/svg" xmlns:xlink="http://www.w3.org/1999/xlink" x="0px" y="0px" width="374px"
	 height="527.999px" viewBox="0 0 374 527.999" enable-background="new 0 0 374 527.999" xml:space="preserve">
<g id="color">
	<path fill="#CCCCCC" d="M293.076,19.538h-31.021l32.268,35.041v16.665h-66.48V51.727h32.27l-32.27-35.041V0h65.256L293.076,19.538z
		 M214.644,19.538h-31.065l32.311,35.041v16.665h-66.501V51.727h32.269l-32.269-35.041V0h65.255V19.538z M136.972,20.34H103.5
		v30.584h33.473v20.34H79.678V0h57.294V20.34z"/>
	<path fill="#1572B6" d="M34.042,485.608L0,103.792h374l-34.084,381.753l-153.148,42.454L34.042,485.608z"/>
	<path fill="#33A9DC" d="M187,495.557l123.75-34.324l29.103-326.223H187V495.557z"/>
	<polygon fill="#FFFFFF" points="187,178.584 187,225.39 253.226,225.39 248.961,273.336 187,273.336 187,320.205 244.807,320.205 
		239.352,380.824 187.127,394.91 187.127,443.701 283.109,417.09 304.416,178.584 	"/>
	<path fill="#EBEBEB" d="M187.254,394.953h-0.212l-52.141-14.088l-3.336-37.342H84.599l6.568,73.523l95.918,26.697h0.274v-48.791
		H187.254z M187.169,178.584v46.826H74.104l-4.224-46.826H187.169z M187,273.336v46.826h-51.549l-4.16-46.826h55.689H187z"/>
</g>
<g id="mask">
	<path fill="#FFFFFF" d="M293.076,19.538h-31.021l32.268,35.041v16.665h-66.48V51.727h32.27l-32.27-35.041V0h65.256L293.076,19.538z
		 M214.644,19.538h-31.065l32.311,35.041v16.665h-66.501V51.727h32.269l-32.269-35.041V0h65.255V19.538z M136.972,20.34H103.5
		v30.584h33.473v20.34H79.678V0h57.294V20.34z"/>
	<path fill="#FFFFFF" d="M0,103.792l34.042,381.816l152.726,42.391l153.148-42.454L374,103.792H0z M310.751,461.232L187.18,495.507
		L63.609,461.232L34.506,135.01h305.347L310.751,461.232z"/>
	<polygon fill="#FFFFFF" points="304.416,178.584 69.879,178.584 74.104,225.41 253.226,225.39 248.961,273.336 131.291,273.336 
		135.451,320.162 244.807,320.205 239.352,380.824 187.042,394.953 134.902,380.865 131.566,343.523 84.599,343.523 91.167,417.047 
		187.085,443.744 283.109,417.09 	"/>
</g>
</svg>