<svg version="1.1" id="css3" xmlns="http://www.w3.org/2000/svg" xmlns:xlink="http://www.w3.org/1999/xlink" x="0px" y="0px"
	 viewBox="0.5 1296.5 918.12 1296" enable-background="new 0.5 1296.5 918.12 1296"
	 xml:space="preserve">
<path fill="#FFFFFF" d="M0.5,1551.255l83.555,937.161L458.997,2592.5l375.984-104.235l83.639-937.01H0.5z M745.019,1765.608
	l-27.816,311.873l-0.043,0.457l-21.678,242.35l-235.234,65.195v0.019l-0.531,0.148l-235.438-65.362l-16.103-180.466h115.378
	l8.183,91.663l128.012,34.567l0.102-0.031v-0.012l128.193-34.604l13.405-149.063l-267.909,0.019h-0.367l-10.291-114.939
	l288.775-0.013l10.5-117.699H182.694h-0.367l-10.291-114.942h575.738L745.019,1765.608z"/>
<polygon fill="#FFFFFF" points="719.971,1344.484 643.769,1344.484 723.015,1430.475 723.015,1471.407 559.787,1471.407
	559.787,1423.484 639.021,1423.484 559.787,1337.49 559.787,1296.5 719.971,1296.5 "/>
<polygon fill="#FFFFFF" points="527.434,1344.484 451.23,1344.484 530.474,1430.475 530.474,1471.407 367.246,1471.407
	367.246,1423.484 446.486,1423.484 367.246,1337.49 367.246,1296.5 527.434,1296.5 "/>
<polygon fill="#FFFFFF" points="336.778,1346.433 254.551,1346.433 254.551,1421.478 336.778,1421.478 336.778,1471.407
	196.108,1471.407 196.108,1296.5 336.778,1296.5 "/>
</svg>
