<svg xmlns="http://www.w3.org/2000/svg" x="0px" y="0px" width="100px" height="100px" viewBox="-701.5 587.5 100 100" enable-background="new -701.5 587.5 100 100" xml:space="preserve">
	<path d="M-651.5,588.734c-27.609,0-50,22.385-50,50c0,22.088,14.324,40.82,34.195,47.441c2.5,0.459,3.412-1.086,3.412-2.41
		c0-1.188-0.043-4.332-0.068-8.504c-13.906,3.025-16.836-6.707-16.836-6.707c-2.273-5.775-5.551-7.314-5.551-7.314
		c-4.545-3.094,0.338-3.037,0.338-3.037c5.018,0.354,7.658,5.152,7.658,5.152c4.461,7.641,11.703,5.434,14.551,4.154
		c0.455-3.23,1.746-5.434,3.174-6.686c-11.102-1.254-22.773-5.553-22.773-24.703c0-5.459,1.953-9.922,5.146-13.416
		c-0.514-1.268-2.23-6.35,0.49-13.232c0,0,4.197-1.344,13.75,5.125c8.194-2.244,16.841-2.244,25.036,0
		c9.545-6.471,13.735-5.125,13.735-5.125c2.734,6.885,1.013,11.967,0.498,13.232c3.205,3.496,5.14,7.959,5.14,13.416
		c0,19.209-11.689,23.438-22.828,24.672c1.795,1.543,3.395,4.596,3.395,9.26c0,6.684-0.061,12.076-0.061,13.717
		c0,1.338,0.899,2.893,3.438,2.404c19.85-6.625,34.162-25.354,34.162-47.436C-601.5,611.121-623.889,588.734-651.5,588.734z"/>
</svg>
