<?xml version="1.0" encoding="utf-8"?>
<!-- Generator: Adobe Illustrator 16.0.0, SVG Export Plug-In . SVG Version: 6.00 Build 0)  -->
<!DOCTYPE svg PUBLIC "-//W3C//DTD SVG 1.1//EN" "http://www.w3.org/Graphics/SVG/1.1/DTD/svg11.dtd">
<svg version="1.1" xmlns="http://www.w3.org/2000/svg" xmlns:xlink="http://www.w3.org/1999/xlink" x="0px" y="0px" width="374px"
	 height="528px" viewBox="0 0 374 528" enable-background="new 0 0 374 528" xml:space="preserve">
<g id="color">
	<path fill="#CCCCCC" d="M34.467,0h23.794v23.512h21.766V0h23.795v71.201H80.028V47.359H58.263v23.842H34.469V0H34.467z
		 M135.11,23.612h-20.944V0h65.699v23.612h-20.957v47.589h-23.794V23.612h-0.001H135.11z M190.292,0h24.81l15.261,25.018L245.61,0
		h24.82v71.201h-23.697V35.91l-16.37,25.316h-0.411l-16.38-25.316v35.292h-23.281V0z M282.271,0h23.801v47.667h33.46v23.535H282.27
		L282.271,0L282.271,0z"/>
	<path fill="#E44D26" d="M374,103.765l-34.072,381.768L186.771,528L34.037,485.592L0,103.765H374L374,103.765z"/>
	<path fill="#F16529" d="M187,495.539l123.758-34.316l29.116-326.239H187V495.539z"/>
	<path fill="#EBEBEB" d="M120.765,228.645H187v-46.83H69.595l12.629,141.613H187v-46.83h-61.957L120.765,228.645z M131.317,346.844
		H84.316l6.559,73.529l95.91,26.628l0.216-0.059V398.22l-0.206,0.054l-52.144-14.083L131.317,346.844L131.317,346.844z"/>
	<path fill="#FFFFFF" d="M186.839,323.428h57.655l-5.437,60.734l-52.22,14.097v48.72l95.985-26.606l12.85-143.774H186.839V323.428
		L186.839,323.428z M186.839,228.53v0.114h113.094l4.191-46.83H186.839v46.717V228.53z"/>
</g>
<g id="mask">
	<path fill="#FFFFFF" d="M34.467,0h23.794v23.512h21.766V0h23.795v71.201H80.028V47.359H58.263v23.842H34.469V0H34.467z
		 M135.11,23.612h-20.944V0h65.699v23.612h-20.957v47.589h-23.794V23.612h-0.001H135.11z M190.292,0h24.81l15.261,25.018L245.61,0
		h24.82v71.201h-23.697V35.91l-16.37,25.316h-0.411l-16.38-25.316v35.292h-23.281V0z M282.271,0h23.801v47.667h33.46v23.535H282.27
		L282.271,0L282.271,0z"/>
	<path fill="#FFFFFF" d="M0,103.765l34.037,381.827L186.771,528l153.157-42.467L374,103.765H0z M310.758,461.223l-123.423,34.224
		L63.912,461.223L34.796,134.984h305.078L310.758,461.223z"/>
	<polygon fill="#FFFFFF" points="299.933,228.645 304.125,181.815 69.595,181.815 82.224,323.428 244.494,323.428 239.058,384.163 
		186.838,398.26 186.838,398.263 186.795,398.274 134.651,384.192 131.317,346.844 84.316,346.844 90.875,420.373 186.785,447.001 
		282.823,420.373 295.673,276.599 125.044,276.599 120.765,228.645 	"/>
</g>
</svg>