<svg version="1.1" id="html5" xmlns="http://www.w3.org/2000/svg" xmlns:xlink="http://www.w3.org/1999/xlink" x="0px" y="0px"
	 viewBox="0.5 1296.5 918.169 1296" enable-background="new 0.5 1296.5 918.169 1296"
	 xml:space="preserve">
<path fill="#FFFFFF" d="M0.5,1551.195l83.56,937.215l374.963,104.09l376-104.241l83.646-937.063H0.5z M736.835,1857.721h-0.37
	h-439.49l10.508,117.706h418.892l-31.541,352.896l-235.249,65.199v0.019l-0.53,0.148l-235.455-65.366l-16.104-180.476h115.385
	l8.187,91.669l128.016,34.568l0.105-0.03v-0.013l128.2-34.606l13.342-149.07h-398.37l-31.004-347.596h575.771L736.835,1857.721z"/>
<path fill="#FFFFFF" d="M694.283,1296.5h58.43v116.999h82.146v57.767H694.28V1296.5H694.283z"/>
<path fill="#FFFFFF" d="M468.472,1296.5h60.911l37.465,61.409l37.434-61.409h60.931v174.769h-58.174v-86.625l-40.193,62.138h-1.003
	l-40.215-62.138v86.625h-57.158L468.472,1296.5L468.472,1296.5z"/>
<path fill="#FFFFFF" d="M333.007,1354.455h-51.426V1296.5h161.291v57.955h-51.447v116.813H333.01L333.007,1354.455L333.007,1354.455
	z"/>
<path fill="#FFFFFF" d="M85.927,1296.5h58.415v57.711h53.436V1296.5h58.418v174.769H197.78v-58.52h-53.433v58.52H85.927V1296.5
	L85.927,1296.5z"/>
</svg>
