<svg version="1.1" id="illustrator" xmlns="http://www.w3.org/2000/svg" xmlns:xlink="http://www.w3.org/1999/xlink" x="0px"
	 y="0px" viewBox="30.671 32.003 438.688 435.994"
	 enable-background="new 30.671 32.003 438.688 435.994" xml:space="preserve">
<path fill="#FFFFFF" d="M30.671,32.003v435.994h438.688V32.003H30.671z M432.593,431.459H67.436V68.542h365.157V431.459z"/>
<path fill="#FFFFFF" d="M324.82,206.645h34.639c0.893,0,1.616,0.724,1.616,1.616v142.213c0,0.893-0.724,1.616-1.616,1.616H324.82
	c-0.893,0-1.616-0.724-1.616-1.616V208.26C323.204,207.368,323.928,206.645,324.82,206.645z"/>
<ellipse fill="#FFFFFF" cx="342.14" cy="168.179" rx="20.126" ry="19.247"/>
<path fill="#FFFFFF" d="M248.342,301.236l14.201,47.026c0.737,2.778,2.184,3.458,4.139,3.43h36.369
	c2.806,0.028,3.004-0.821,2.579-2.692l-60.066-200.352c-0.113-0.369-0.397-0.624-0.964-0.624l-50.371-0.142
	c-1.984,0-2.013,1.021-1.843,2.948c0.624,6.973,0.284,10.885-1.19,16.356l-53.178,181.927c-0.567,1.729-0.425,2.579,1.843,2.607
	l34.327-0.028c3.628-0.113,3.827-1.105,4.45-2.919l11.906-47.537H248.342z M241,264.67h-41.697l20.211-81.751L241,264.67z"/>
</svg>
