<?xml version="1.0" encoding="utf-8"?>
<!-- Generator: Adobe Illustrator 16.0.0, SVG Export Plug-In . SVG Version: 6.00 Build 0)  -->
<!DOCTYPE svg PUBLIC "-//W3C//DTD SVG 1.1//EN" "http://www.w3.org/Graphics/SVG/1.1/DTD/svg11.dtd">
<svg version="1.1" xmlns="http://www.w3.org/2000/svg" xmlns:xlink="http://www.w3.org/1999/xlink" x="0px" y="0px" width="528px"
	 height="514px" viewBox="1034.5 1435.5 528 514" enable-background="new 1034.5 1435.5 528 514" xml:space="preserve">
<g id="color">
	
		<radialGradient id="square_1_" cx="850.5532" cy="1106.5264" r="0.1606" gradientTransform="matrix(2291.6716 0 0 -2215.3037 -1947973.75 2452854)" gradientUnits="userSpaceOnUse">
		<stop  offset="0" style="stop-color:#423325;stop-opacity:0.98"/>
		<stop  offset="1" style="stop-color:#1C0A00"/>
	</radialGradient>
	<path id="square" fill="url(#square_1_)" d="M1056.5,1457.466h484v470.067h-484V1457.466z"/>
	<path id="text" fill="#FF7F18" d="M1056.5,1457.466h484v470.067h-484V1457.466z M1034.5,1949.5h528v-514h-528V1949.5z
		 M1380.34,1618.695c0-1.757,0.659-2.637,2.641-2.637h34.54c1.759,0,2.64,0.659,2.64,2.637v173.31c0,1.756-0.44,2.636-2.64,2.636
		h-34.101c-2.199,0-2.86-1.098-2.86-2.854v-173.091H1380.34L1380.34,1618.695z M1377.92,1568.832
		c0-14.058,9.899-22.404,22.44-22.404c13.42,0,22.439,9.006,22.439,22.404c0,14.497-9.459,22.405-22.879,22.405
		C1387.16,1591.238,1377.92,1583.329,1377.92,1568.832z M1278.92,1690.962c-6.159-24.382-20.679-77.539-26.18-103.239h-0.44
		c-4.62,25.7-16.279,69.192-25.519,103.239H1278.92z M1217.76,1726.548l-17.38,65.897c-0.44,1.756-1.1,2.194-3.299,2.194h-32.34
		c-2.2,0-2.641-0.658-2.2-3.294l62.479-218.34c1.1-3.954,1.76-7.469,2.2-18.231c0-1.538,0.66-2.197,1.76-2.197h46.2
		c1.54,0,2.199,0.44,2.641,2.197l69.959,237.011c0.44,1.756,0,2.854-1.76,2.854h-36.521c-1.76,0-2.86-0.438-3.299-1.976
		l-18.04-66.116H1217.76L1217.76,1726.548z"/>
</g>
<g id="mask">
	<path id="white" fill="#FFFFFF" d="M1056.5,1457.466h484v470.067h-484V1457.466z M1034.5,1949.5h528v-514h-528V1949.5z
		 M1380.34,1618.695c0-1.757,0.659-2.637,2.641-2.637h34.54c1.759,0,2.64,0.659,2.64,2.637v173.31c0,1.756-0.44,2.636-2.64,2.636
		h-34.101c-2.199,0-2.86-1.098-2.86-2.854v-173.091H1380.34L1380.34,1618.695z M1377.92,1568.832
		c0-14.058,9.899-22.404,22.44-22.404c13.42,0,22.439,9.006,22.439,22.404c0,14.497-9.459,22.405-22.879,22.405
		C1387.16,1591.238,1377.92,1583.329,1377.92,1568.832z M1278.92,1690.962c-6.159-24.382-20.679-77.539-26.18-103.239h-0.44
		c-4.62,25.7-16.279,69.192-25.519,103.239H1278.92z M1217.76,1726.548l-17.38,65.897c-0.44,1.756-1.1,2.194-3.299,2.194h-32.34
		c-2.2,0-2.641-0.658-2.2-3.294l62.479-218.34c1.1-3.954,1.76-7.469,2.2-18.231c0-1.538,0.66-2.197,1.76-2.197h46.2
		c1.54,0,2.199,0.44,2.641,2.197l69.959,237.011c0.44,1.756,0,2.854-1.76,2.854h-36.521c-1.76,0-2.86-0.438-3.299-1.976
		l-18.04-66.116H1217.76L1217.76,1726.548z"/>
</g>
</svg>