<svg version="1.1" id="indesign" xmlns="http://www.w3.org/2000/svg" xmlns:xlink="http://www.w3.org/1999/xlink" x="0px" y="0px"
	 viewBox="31.011 32.343 438.007 435.314"
	 enable-background="new 31.011 32.343 438.007 435.314" xml:space="preserve">
<path fill="#FFFFFF" d="M31.011,32.343v435.314h438.007V32.343H31.011z M432.31,431.176H67.719V68.825h364.59V431.176z"/>
<path fill="#FFFFFF" d="M301.633,225.155v93.798c-33.676,2.494-46.913-21.316-47.395-45.609
	c-0.199-10.403,1.842-20.948,5.811-29.424C267.986,226.997,284.994,223.992,301.633,225.155z M343.104,329.639V147.854
	l-42.774-0.822l-0.341,45.241c0,0.142-1.359-0.028-1.644,0c-5.188,0.454-27.382-3.458-49.351,11.508
	c-18.113,12.331-34.81,30.416-35.376,70.752c-0.68,48.643,30.642,76.082,75.572,78.321c12.926,0.624,26.701-1.077,38.777-5.952
	c2.409-0.964,6.435-2.665,9.893-4.281c4.904-2.295,7.37-3.939,5.896-8.985L343.104,329.639z"/>
<path fill="#FFFFFF" d="M157.464,148.676h36.198c0.908,0,1.644,0.736,1.644,1.644v197.432c0,0.908-0.736,1.645-1.644,1.645h-36.198
	c-0.908,0-1.645-0.736-1.645-1.645V150.32C155.819,149.413,156.556,148.676,157.464,148.676z"/>
</svg>
