<?xml version="1.0" encoding="utf-8"?>
<!-- Generator: Adobe Illustrator 16.0.0, SVG Export Plug-In . SVG Version: 6.00 Build 0)  -->
<!DOCTYPE svg PUBLIC "-//W3C//DTD SVG 1.1//EN" "http://www.w3.org/Graphics/SVG/1.1/DTD/svg11.dtd">
<svg version="1.1" xmlns="http://www.w3.org/2000/svg" xmlns:xlink="http://www.w3.org/1999/xlink" x="0px" y="0px" width="528px"
	 height="514px" viewBox="1034.5 1435.5 528 514" enable-background="new 1034.5 1435.5 528 514" xml:space="preserve">
<g id="color">
	
		<radialGradient id="square_1_" cx="850.5532" cy="1106.5264" r="0.1606" gradientTransform="matrix(2291.6716 0 0 -2215.3037 -1947973.75 2452854)" gradientUnits="userSpaceOnUse">
		<stop  offset="0" style="stop-color:#4B2B36;stop-opacity:0.98"/>
		<stop  offset="1" style="stop-color:#250012"/>
	</radialGradient>
	<path id="square" fill="url(#square_1_)" d="M1056.5,1457.466h484v470.067h-484V1457.466z"/>
	<path id="text" fill="#FF408C" d="M1056.5,1457.466h484v470.067h-484V1457.466z M1034.5,1949.5h528v-514h-528V1949.5z
		 M1368.46,1649.007c-3.3-1.537-7.7-2.196-12.98-2.196c-28.38,0-48.18,21.747-48.18,57.989c0,41.296,20.24,57.99,45.541,57.99
		c5.499,0,11.22-0.659,15.619-2.636V1649.007z M1356.8,1613.203c4.62,0,7.261,0,11.659,0.439v-58.429
		c0-1.538,1.101-2.196,2.199-2.196h35.641c1.76,0,2.199,0.658,2.199,1.757v205.381c0,6.149,0,13.838,1.101,22.185
		c0,1.537-0.44,1.757-1.979,2.636c-18.921,9.006-38.939,12.961-57.64,12.961c-48.62,0-83.381-30.093-83.381-91.378
		C1266.38,1654.059,1301.14,1613.203,1356.8,1613.203L1356.8,1613.203z M1227.661,1791.786c0,2.195-0.44,2.854-2.86,2.854h-33.88
		c-2.199,0-2.86-1.098-2.86-2.854v-235.914c0-2.196,1.1-2.855,2.86-2.855h34.1c1.76,0,2.641,0.658,2.641,2.636V1791.786z"/>
</g>
<g id="mask">
	<path id="white" fill="#FFFFFF" d="M1056.5,1457.466h484v470.067h-484V1457.466z M1034.5,1949.5h528v-514h-528V1949.5z
		 M1368.46,1649.007c-3.3-1.537-7.7-2.196-12.98-2.196c-28.38,0-48.18,21.747-48.18,57.989c0,41.296,20.24,57.99,45.541,57.99
		c5.499,0,11.22-0.659,15.619-2.636V1649.007z M1356.8,1613.203c4.62,0,7.261,0,11.659,0.439v-58.429
		c0-1.538,1.101-2.196,2.199-2.196h35.641c1.76,0,2.199,0.658,2.199,1.757v205.381c0,6.149,0,13.838,1.101,22.185
		c0,1.537-0.44,1.757-1.979,2.636c-18.921,9.006-38.939,12.961-57.64,12.961c-48.62,0-83.381-30.093-83.381-91.378
		C1266.38,1654.059,1301.14,1613.203,1356.8,1613.203L1356.8,1613.203z M1227.661,1791.786c0,2.195-0.44,2.854-2.86,2.854h-33.88
		c-2.199,0-2.86-1.098-2.86-2.854v-235.914c0-2.196,1.1-2.855,2.86-2.855h34.1c1.76,0,2.641,0.658,2.641,2.636V1791.786z"/>
</g>
</svg>