<?xml version="1.0" encoding="utf-8"?>
<!-- Generator: Adobe Illustrator 16.0.0, SVG Export Plug-In . SVG Version: 6.00 Build 0)  -->
<!DOCTYPE svg PUBLIC "-//W3C//DTD SVG 1.1//EN" "http://www.w3.org/Graphics/SVG/1.1/DTD/svg11.dtd">
<svg version="1.1" id="Layer_1" xmlns="http://www.w3.org/2000/svg" xmlns:xlink="http://www.w3.org/1999/xlink" x="0px" y="0px"
	 width="528px" height="110px" viewBox="0 0 528 110" enable-background="new 0 0 528 110" xml:space="preserve">
<g id="color">
	<g>
		<path fill="#FFFFFF" d="M521.795,79.942c-5.44,0-6.262,2.814-6.262,4.487c0,1.727,0.82,4.62,6.262,4.62
			c5.403,0,6.205-2.896,6.205-4.62C528,82.756,527.198,79.942,521.795,79.942z"/>
		<polyline fill="#FFFFFF" points="525.613,20.683 517.806,20.683 517.806,73.458 525.613,73.458 525.613,20.683 		"/>
		<path fill="#FFFFFF" d="M445.013,65.689c0-6.071,2.902-10.768,8.593-13.962c4.792-2.644,10.727-3.986,17.659-3.986
			c8.57,0,15.272,2.081,19.929,6.19c4.104,3.628,6.188,8.357,6.188,14.046c0,0,0,5.012,0,5.424
			c-3.285,3.607-8.077,6.461-14.261,8.451c-3.628,1.188-7.618,1.786-11.856,1.786c-7.046,0-13.021-1.31-17.698-3.897
			C447.801,76.536,445.013,71.941,445.013,65.689z M497.381,42.724c0,0,0,6.261,0,7.84c-6.702-5.587-15.522-8.499-26.363-8.499
			c-8.782,0-16.305,1.667-22.413,4.944c-7.75,4.199-11.682,10.495-11.682,18.704c0,8.096,4.025,14.342,11.968,18.567
			c6.242,3.342,13.782,5.03,22.392,5.03c4.332,0,8.516-0.507,12.446-1.515c5.537-1.424,10.099-3.566,13.652-6.327
			c0,1.548,0,7.056,0,7.056h7.826V42.724H497.381"/>
		<path fill="#FFFFFF" d="M422.794,21.739v66.786h7.808V21.739H422.794"/>
		<path fill="#FFFFFF" d="M408.076,46.041c-4.469-2.634-10.194-3.976-17.01-3.976c-8.667,0-15.69,2.715-20.942,7.982
			c-5.079-5.268-12.084-7.982-20.886-7.982c-7.102,0-12.887,1.491-17.352,4.327c0-1.088,0-3.668,0-3.668h-7.827v45.799h7.827V57.185
			c0.535-2.258,2.023-4.334,4.447-6.049c3.209-2.253,7.446-3.395,12.619-3.395c4.545,0,8.477,0.934,11.644,2.773
			c3.8,2.156,5.633,5.173,5.633,9.228v28.783h7.692V59.742c0-4.061,1.832-7.094,5.614-9.273c3.208-1.808,7.179-2.729,11.779-2.729
			c4.601,0,8.552,0.934,11.74,2.777c3.779,2.152,5.612,5.169,5.612,9.224v28.783h7.808V60.814
			C416.474,54.296,413.648,49.32,408.076,46.041"/>
		<path fill="#FFFFFF" d="M302.946,79.521c-4.831,2.733-10.692,4.119-17.431,4.119c-6.892,0-12.79-1.356-17.561-4.031
			c-5.803-3.234-8.628-7.786-8.628-13.917c0-6.043,2.902-10.726,8.628-13.914c4.773-2.677,10.671-4.035,17.561-4.035
			c6.815,0,12.715,1.356,17.526,4.035c5.651,3.214,8.534,7.898,8.534,13.914C311.574,71.647,308.671,76.302,302.946,79.521z
			 M307.776,47.192c-6.264-3.402-13.745-5.127-22.261-5.127c-8.438,0-15.938,1.725-22.258,5.124l0,0
			c-7.979,4.321-12.027,10.554-12.027,18.525c0,7.973,4.048,14.193,12.027,18.481c6.319,3.402,13.804,5.119,22.258,5.119
			c8.477,0,15.941-1.704,22.204-5.076c7.922-4.29,11.932-10.521,11.932-18.524C319.65,57.711,315.659,51.482,307.776,47.192"/>
		<path fill="#FFFFFF" d="M230.248,79.521c-4.829,2.733-10.691,4.119-17.429,4.119c-6.892,0-12.79-1.356-17.563-4.031l0,0
			c-5.807-3.234-8.625-7.786-8.625-13.917c0-6.043,2.899-10.726,8.625-13.914c4.773-2.677,10.671-4.035,17.563-4.035
			c6.834,0,12.714,1.356,17.524,4.035c5.67,3.214,8.533,7.898,8.533,13.914C238.876,71.647,235.976,76.302,230.248,79.521z
			 M235.079,47.192c-6.263-3.402-13.745-5.127-22.26-5.127c-8.439,0-15.941,1.725-22.256,5.124h-0.001
			c-7.975,4.321-12.022,10.554-12.022,18.525c0,7.973,4.048,14.193,12.024,18.481c6.315,3.402,13.799,5.119,22.256,5.119
			c8.475,0,15.96-1.704,22.22-5.076c7.903-4.29,11.931-10.521,11.931-18.524C246.972,57.714,242.962,51.482,235.079,47.192"/>
		<path fill="#FFFFFF" d="M166.116,21.739v46.095c0,4.074-1.244,7.53-3.694,10.263c-2.993,3.329-7.459,5.019-13.276,5.019
			l-5.216-0.385l-15.716-2.567l-2.609,5.88l15.969,2.455c2.979,0.456,5.757,0.687,8.25,0.687c8.642,0,15.162-2.418,19.387-7.175
			c3.401-3.888,5.127-8.97,5.127-15.104V21.739H166.116"/>
	</g>
	<g>
		<path fill="#5091CD" d="M77.082,67.663L65.558,79.148L54.643,90.02L52.5,92.151c-6.305,6.278-15.197,8.414-23.269,6.42
			c-1.508,6.547-7.396,11.422-14.429,11.428C6.627,110-0.002,103.404,0,95.27c0-6.967,4.859-12.808,11.385-14.341
			c-2.065-8.072,0.075-16.99,6.423-23.307l0.835-0.828l10.925,10.865l-0.845,0.833c-3.543,3.531-3.543,9.245,0.004,12.779
			c3.556,3.538,9.32,3.532,12.852,0.015l2.138-2.132l10.916-10.868l11.534-11.492L77.082,67.663"/>
		<path fill="#F44321" d="M81.338,98.203c-8.4,2.573-17.916,0.549-24.565-6.067l-0.835-0.832l10.914-10.875l0.837,0.836
			c3.547,3.527,9.298,3.527,12.841,0.004c3.532-3.521,3.54-9.225-0.019-12.767l-2.134-2.128L67.46,55.499l-11.534-11.49
			l10.925-10.863l11.525,11.482l10.912,10.87l2.146,2.14c6.277,6.248,8.447,15.041,6.494,23.038
			c7.189,1.008,12.719,7.158,12.719,14.591c0,8.138-6.63,14.73-14.801,14.73C88.681,109.996,82.705,104.935,81.338,98.203"/>
		<path fill="#F9A541" d="M32.155,43.347l11.563-11.501l10.925-10.861l2.13-2.117c6.574-6.542,15.945-8.602,24.271-6.167
			C82.04,5.528,88.225,0.002,95.708,0.002c8.174,0,14.805,6.594,14.803,14.734c0,7.478-5.601,13.657-12.854,14.608
			c2.384,8.257,0.306,17.517-6.223,24.023l-0.853,0.85L79.666,43.343l0.845-0.843c3.547-3.529,3.547-9.252,0.003-12.779
			c-3.534-3.514-9.265-3.521-12.826,0.019l-2.13,2.119L54.633,42.726l-11.555,11.49L32.155,43.347"/>
		<path fill="#7AC143" d="M19.937,55.499l-2.128-2.115c-6.599-6.571-8.644-15.956-6.143-24.276
			C5.068,27.623,0.14,21.752,0.14,14.734C0.142,6.598,6.767,0,14.941,0c7.36,0.004,13.461,5.348,14.607,12.348
			c7.985-1.864,16.726,0.305,22.953,6.503l0.851,0.845L42.428,30.562l-0.849-0.848c-3.543-3.524-9.29-3.524-12.837,0.004
			c-3.558,3.542-3.551,9.278-0.019,12.794l2.136,2.123l10.925,10.864l11.553,11.494L42.426,77.863L30.86,66.365L19.937,55.499"/>
	</g>
</g>
<g id="mask">
	<g>
		<path fill="#FFFFFF" d="M521.795,79.942c-5.44,0-6.262,2.814-6.262,4.487c0,1.727,0.82,4.62,6.262,4.62
			c5.403,0,6.205-2.896,6.205-4.62C528,82.756,527.198,79.942,521.795,79.942z"/>
		<polyline fill="#FFFFFF" points="525.613,20.683 517.806,20.683 517.806,73.458 525.613,73.458 525.613,20.683 		"/>
		<path fill="#FFFFFF" d="M445.013,65.689c0-6.071,2.902-10.768,8.593-13.962c4.792-2.644,10.727-3.986,17.659-3.986
			c8.57,0,15.272,2.081,19.929,6.19c4.104,3.628,6.188,8.357,6.188,14.046c0,0,0,5.012,0,5.424
			c-3.285,3.607-8.077,6.461-14.261,8.451c-3.628,1.188-7.618,1.786-11.856,1.786c-7.046,0-13.021-1.31-17.698-3.897
			C447.801,76.536,445.013,71.941,445.013,65.689z M497.381,42.724c0,0,0,6.261,0,7.84c-6.702-5.587-15.522-8.499-26.363-8.499
			c-8.782,0-16.305,1.667-22.413,4.944c-7.75,4.199-11.682,10.495-11.682,18.704c0,8.096,4.025,14.342,11.968,18.567
			c6.242,3.342,13.782,5.03,22.392,5.03c4.332,0,8.516-0.507,12.446-1.515c5.537-1.424,10.099-3.566,13.652-6.327
			c0,1.548,0,7.056,0,7.056h7.826V42.724H497.381"/>
		<path fill="#FFFFFF" d="M422.794,21.739v66.786h7.808V21.739H422.794"/>
		<path fill="#FFFFFF" d="M408.076,46.041c-4.469-2.634-10.194-3.976-17.01-3.976c-8.667,0-15.69,2.715-20.942,7.982
			c-5.079-5.268-12.084-7.982-20.886-7.982c-7.102,0-12.887,1.491-17.352,4.327c0-1.088,0-3.668,0-3.668h-7.827v45.799h7.827V57.185
			c0.535-2.258,2.023-4.334,4.447-6.049c3.209-2.253,7.446-3.395,12.619-3.395c4.545,0,8.477,0.934,11.644,2.773
			c3.8,2.156,5.633,5.173,5.633,9.228v28.783h7.692V59.742c0-4.061,1.832-7.094,5.614-9.273c3.208-1.808,7.179-2.729,11.779-2.729
			c4.601,0,8.552,0.934,11.74,2.777c3.779,2.152,5.612,5.169,5.612,9.224v28.783h7.808V60.814
			C416.474,54.296,413.648,49.32,408.076,46.041"/>
		<path fill="#FFFFFF" d="M302.946,79.521c-4.831,2.733-10.692,4.119-17.431,4.119c-6.892,0-12.79-1.356-17.561-4.031
			c-5.803-3.234-8.628-7.786-8.628-13.917c0-6.043,2.902-10.726,8.628-13.914c4.773-2.677,10.671-4.035,17.561-4.035
			c6.815,0,12.715,1.356,17.526,4.035c5.651,3.214,8.534,7.898,8.534,13.914C311.574,71.647,308.671,76.302,302.946,79.521z
			 M307.776,47.192c-6.264-3.402-13.745-5.127-22.261-5.127c-8.438,0-15.938,1.725-22.258,5.124l0,0
			c-7.979,4.321-12.027,10.554-12.027,18.525c0,7.973,4.048,14.193,12.027,18.481c6.319,3.402,13.804,5.119,22.258,5.119
			c8.477,0,15.941-1.704,22.204-5.076c7.922-4.29,11.932-10.521,11.932-18.524C319.65,57.711,315.659,51.482,307.776,47.192"/>
		<path fill="#FFFFFF" d="M230.248,79.521c-4.829,2.733-10.691,4.119-17.429,4.119c-6.892,0-12.79-1.356-17.563-4.031l0,0
			c-5.807-3.234-8.625-7.786-8.625-13.917c0-6.043,2.899-10.726,8.625-13.914c4.773-2.677,10.671-4.035,17.563-4.035
			c6.834,0,12.714,1.356,17.524,4.035c5.67,3.214,8.533,7.898,8.533,13.914C238.876,71.647,235.976,76.302,230.248,79.521z
			 M235.079,47.192c-6.263-3.402-13.745-5.127-22.26-5.127c-8.439,0-15.941,1.725-22.256,5.124h-0.001
			c-7.975,4.321-12.022,10.554-12.022,18.525c0,7.973,4.048,14.193,12.024,18.481c6.315,3.402,13.799,5.119,22.256,5.119
			c8.475,0,15.96-1.704,22.22-5.076c7.903-4.29,11.931-10.521,11.931-18.524C246.972,57.714,242.962,51.482,235.079,47.192"/>
		<path fill="#FFFFFF" d="M166.116,21.739v46.095c0,4.074-1.244,7.53-3.694,10.263c-2.993,3.329-7.459,5.019-13.276,5.019
			l-5.216-0.385l-15.716-2.567l-2.609,5.88l15.969,2.455c2.979,0.456,5.757,0.687,8.25,0.687c8.642,0,15.162-2.418,19.387-7.175
			c3.401-3.888,5.127-8.97,5.127-15.104V21.739H166.116"/>
	</g>
	<g>
		<path fill="#FFFFFF" d="M77.082,67.663L65.558,79.148L54.643,90.02L52.5,92.151c-6.305,6.278-15.197,8.414-23.269,6.42
			c-1.508,6.547-7.396,11.422-14.429,11.428C6.627,110-0.002,103.404,0,95.27c0-6.967,4.859-12.808,11.385-14.341
			c-2.065-8.072,0.075-16.99,6.423-23.307l0.835-0.828l10.925,10.865l-0.845,0.833c-3.543,3.531-3.543,9.245,0.004,12.779
			c3.556,3.538,9.32,3.532,12.852,0.015l2.138-2.132l10.916-10.868l11.534-11.492L77.082,67.663"/>
		<path fill="#FFFFFF" d="M81.338,98.203c-8.4,2.573-17.916,0.549-24.565-6.067l-0.835-0.832l10.914-10.875l0.837,0.836
			c3.547,3.527,9.298,3.527,12.841,0.004c3.532-3.521,3.54-9.225-0.019-12.767l-2.134-2.128L67.46,55.499l-11.534-11.49
			l10.925-10.863l11.525,11.482l10.912,10.87l2.146,2.14c6.277,6.248,8.447,15.041,6.494,23.038
			c7.189,1.008,12.719,7.158,12.719,14.591c0,8.138-6.63,14.73-14.801,14.73C88.681,109.996,82.705,104.935,81.338,98.203"/>
		<path fill="#FFFFFF" d="M32.155,43.347l11.563-11.501l10.925-10.861l2.13-2.117c6.574-6.542,15.945-8.602,24.271-6.167
			C82.04,5.528,88.225,0.002,95.708,0.002c8.174,0,14.805,6.594,14.803,14.734c0,7.478-5.601,13.657-12.854,14.608
			c2.384,8.257,0.306,17.517-6.223,24.023l-0.853,0.85L79.666,43.343l0.845-0.843c3.547-3.529,3.547-9.252,0.003-12.779
			c-3.534-3.514-9.265-3.521-12.826,0.019l-2.13,2.119L54.633,42.726l-11.555,11.49L32.155,43.347"/>
		<path fill="#FFFFFF" d="M19.937,55.499l-2.128-2.115c-6.599-6.571-8.644-15.956-6.143-24.276
			C5.068,27.623,0.14,21.752,0.14,14.734C0.142,6.598,6.767,0,14.941,0c7.36,0.004,13.461,5.348,14.607,12.348
			c7.985-1.864,16.726,0.305,22.953,6.503l0.851,0.845L42.428,30.562l-0.849-0.848c-3.543-3.524-9.29-3.524-12.837,0.004
			c-3.558,3.542-3.551,9.278-0.019,12.794l2.136,2.123l10.925,10.864l11.553,11.494L42.426,77.863L30.86,66.365L19.937,55.499"/>
	</g>
</g>
</svg>
