<?xml version="1.0" encoding="utf-8"?>
<!-- Generator: Adobe Illustrator 16.0.0, SVG Export Plug-In . SVG Version: 6.00 Build 0)  -->
<!DOCTYPE svg PUBLIC "-//W3C//DTD SVG 1.1//EN" "http://www.w3.org/Graphics/SVG/1.1/DTD/svg11.dtd">
<svg version="1.1" xmlns="http://www.w3.org/2000/svg" xmlns:xlink="http://www.w3.org/1999/xlink" x="0px" y="0px" width="528px"
	 height="523px" viewBox="0 0 528 523" enable-background="new 0 0 528 523" xml:space="preserve">
<g id="color">
	<linearGradient id="SVGID_1_" gradientUnits="userSpaceOnUse" x1="24.729" y1="148.5483" x2="402.7666" y2="508.584">
		<stop  offset="0" style="stop-color:#78CFF5"/>
		<stop  offset="1" style="stop-color:#0769AD"/>
	</linearGradient>
	<path fill="url(#SVGID_1_)" d="M515.742,388.192l-2.364,6.124c-40.27,78.406-111.633,126.507-213.422,128.628
		c-47.584,0.982-92.922-11.226-122.54-24.497C113.5,469.736,59.737,416.492,30.378,359.604
		c-42.116-81.551-49.712-194.992,37.86-279.722c1.352,0-10.623,18.373-9.271,18.373l-2.41,7.841
		C-6.547,303.615,187.875,472.887,376.87,453.526C422.291,448.872,480.21,424.003,515.742,388.192"/>
	<linearGradient id="SVGID_2_" gradientUnits="userSpaceOnUse" x1="129.0288" y1="39.0342" x2="507.0664" y2="399.0698">
		<stop  offset="0" style="stop-color:#78CFF5"/>
		<stop  offset="1" style="stop-color:#0769AD"/>
	</linearGradient>
	<path fill="url(#SVGID_2_)" d="M401.374,306.518c47.549,0.323,97.213-21.894,126.626-53.086
		c-25.732,65.3-100.235,107.271-200.143,93.923c-83.657-11.189-163.346-95.35-171.552-179.681
		c-6.002-61.373,15.391-98.001,50.647-142.436C194.7,48.478,190.12,66.399,188.98,77.83
		C175.588,210.591,295.059,305.817,401.374,306.518"/>
	<linearGradient id="SVGID_3_" gradientUnits="userSpaceOnUse" x1="213.9897" y1="-50.1753" x2="592.0273" y2="309.8604">
		<stop  offset="0" style="stop-color:#78CFF5"/>
		<stop  offset="1" style="stop-color:#0769AD"/>
	</linearGradient>
	<path fill="url(#SVGID_3_)" d="M523.22,141.619c-7.39,16.95-49.947,48.959-68.742,52.961
		c-74.421,15.853-122.081-19.431-147.05-59.58c-3.709-5.996-10.57-22.37-11.798-26.538C285.946,75.55,290.397,25.767,319.281,0
		c-8.702,24.504-9.971,52.963-5.392,71.465c2.775,11.185,11.229,30.715,19.688,43c15.392,22.375,25.156,27.812,44.928,39.696
		c8.906,5.349,18.459,9.64,22.587,10.815c18.749,5.519,58.33,20.054,122.134-23.356"/>
</g>
<g id="mask">
	<path fill="#FFFFFF" d="M515.742,388.192l-2.364,6.124c-40.27,78.406-111.633,126.507-213.422,128.628
		c-47.584,0.982-92.922-11.226-122.54-24.497C113.5,469.736,59.737,416.492,30.378,359.604
		c-42.116-81.551-49.712-194.992,37.86-279.722c1.352,0-10.623,18.373-9.271,18.373l-2.41,7.841
		C-6.547,303.615,187.875,472.887,376.87,453.526C422.291,448.872,480.21,424.003,515.742,388.192"/>
	<path fill="#FFFFFF" d="M401.374,306.518c47.549,0.323,97.213-21.894,126.626-53.086c-25.732,65.3-100.235,107.271-200.143,93.923
		c-83.657-11.189-163.346-95.35-171.552-179.681c-6.002-61.373,15.391-98.001,50.647-142.436
		C194.7,48.478,190.12,66.399,188.98,77.83C175.588,210.591,295.059,305.817,401.374,306.518"/>
	<path fill="#FFFFFF" d="M523.22,141.619c-7.39,16.95-49.947,48.959-68.742,52.961c-74.421,15.853-122.081-19.431-147.05-59.58
		c-3.709-5.996-10.57-22.37-11.798-26.538C285.946,75.55,290.397,25.767,319.281,0c-8.702,24.504-9.971,52.963-5.392,71.465
		c2.775,11.185,11.229,30.715,19.688,43c15.392,22.375,25.156,27.812,44.928,39.696c8.906,5.349,18.459,9.64,22.587,10.815
		c18.749,5.519,58.33,20.054,122.134-23.356"/>
</g>
</svg>