<?xml version="1.0" encoding="utf-8"?>
<!-- Generator: Adobe Illustrator 16.0.0, SVG Export Plug-In . SVG Version: 6.00 Build 0)  -->
<!DOCTYPE svg PUBLIC "-//W3C//DTD SVG 1.1//EN" "http://www.w3.org/Graphics/SVG/1.1/DTD/svg11.dtd">
<svg version="1.1" id="Layer_1" xmlns="http://www.w3.org/2000/svg" xmlns:xlink="http://www.w3.org/1999/xlink" x="0px" y="0px"
	 width="528px" height="120px" viewBox="0 0 528 120" enable-background="new 0 0 528 120" xml:space="preserve">
<g id="color">
	<g>
		<path fill="#FFFFFF" d="M225.857,46.548L225.857,46.548l-3.377,11.978l3.377-11.968V46.548z"/>
		<path fill="#FFFFFF" d="M243.239,72.55l-3.72-0.02L243.239,72.55z"/>
		<path fill="#FFFFFF" d="M242.28,90.435L242.28,90.435l-22.311,0.081L242.28,90.435z"/>
		<path fill="#FFFFFF" d="M246.958,72.57l-3.73-0.02L246.958,72.57z"/>
		<path fill="#FFFFFF" d="M244.236,88.923l3.892-14.821l-3.882,14.831l0,0L244.236,88.923z"/>
		<path fill="#FFFFFF" d="M326.384,20.659"/>
		<path fill="#FFFFFF" d="M307.772,20.659L307.772,20.659"/>
		<path fill="#FFFFFF" d="M325.144,19.125h-15.485c-0.857,0-1.714,0.686-1.896,1.533l-10.99,50.853
			c-0.18,0.837-1.038,1.522-1.894,1.522h-10.961c-10.837,0-9.586-7.501-7.368-17.774c0.021-0.102,0.041-0.203,0.07-0.314
			l6.886-34.289c0.172-0.837-0.393-1.532-1.249-1.532h-15.89c-0.856,0-1.713,0.695-1.885,1.532l-7.148,33.946
			c-3.932,17.967-2.894,35.105,18.501,35.64c0.351,0.011,0.624,0.011,0.624,0.011h33.573c0.856,0,1.714-0.687,1.885-1.533
			l14.479-68.074c0.181-0.836-0.382-1.532-1.241-1.532L325.144,19.125z"/>
		<path fill="#FFFFFF" d="M386.906,73.215c0.857,0,1.422,0.685,1.249,1.532"/>
		<path fill="#FFFFFF" d="M385.152,89.447L385.152,89.447"/>
		<path fill="#FFFFFF" d="M383.267,90.99h0.01c-4.557,0.041-18.249,0.142-28.542,0.142C367.256,91.131,383.267,90.99,383.267,90.99z
			"/>
		<path fill="#FFFFFF" d="M345.5,63.749c-0.01-0.806,0.907-2.188,1.764-2.188l-1.936-0.03C344.462,70.291,345.5,63.749,345.5,63.749
			z"/>
		<path fill="#FFFFFF" d="M386.906,73.215c0.857,0,1.422,0.685,1.249,1.532"/>
		<path fill="#FFFFFF" d="M383.276,90.99L383.276,90.99C379.938,91.02,379.93,91.02,383.276,90.99z"/>
		<path fill="#FFFFFF" d="M385.152,89.447L385.152,89.447"/>
		<path fill="#FFFFFF" d="M354.734,91.131"/>
		<path fill="#FFFFFF" d="M159.327,18.944h-16.998c-0.857,0-1.714,0.686-1.906,1.523l-3.227,14.234
			c-0.191,0.838,0.363,1.523,1.221,1.523h17.138c0.857,0,1.714-0.686,1.896-1.523l3.125-14.225l0,0
			c0.182-0.837-0.372-1.522-1.229-1.522L159.327,18.944z"/>
		<path fill="#FFFFFF" d="M155.626,42.617L155.626,42.617"/>
		<path fill="#FFFFFF" d="M106.236,119.057c0,0,8.57,0.111,14.023,0.111C116.116,119.169,109.291,119.088,106.236,119.057h0.01
			H106.236z"/>
		<path fill="#FFFFFF" d="M135.353,42.617"/>
		<path fill="#FFFFFF" d="M154.397,41.094h-17.139c-0.857,0-1.714,0.686-1.906,1.522l-10.112,46.125
			c-0.181,0.836-0.545,2.198-0.827,3.014c0,0-3.196,9.528-8.58,9.417c-0.231,0-0.454-0.01-0.676-0.01
			c-2.611-0.051-4.657-0.091-4.657-0.091l0,0c-0.856-0.011-1.724,0.654-1.925,1.491l-3.549,14.942
			c-0.203,0.837,0.342,1.522,1.189,1.542c3.054,0.042,9.89,0.111,14.024,0.111c13.438,0,20.526-7.451,25.073-28.884l10.304-47.667
			c0.182-0.837-0.373-1.522-1.23-1.522L154.397,41.094z"/>
		<path fill="#FFFFFF" d="M397.824,90.264c-0.856,0-1.412-0.687-1.239-1.532"/>
		<path fill="#FFFFFF" d="M415.74,88.722"/>
		<path fill="#FFFFFF" d="M396.776,89.498c-0.102-0.424-0.041-1.452,0.142-2.299l-0.322,1.523c-0.182,0.836,0.373,1.532,1.238,1.532
			h1.563c-0.856,0-2.51-0.343-2.609-0.766L396.776,89.498z"/>
		<path fill="#FFFFFF" d="M414.723,89.91c-0.465,0.192-1.554,0.343-2.421,0.343h1.563c0.858,0,1.705-0.686,1.876-1.532l0.313-1.533
			C415.881,88.025,415.187,89.719,414.723,89.91L414.723,89.91z"/>
		<path fill="#FFFFFF" d="M469.922,35.327c0.189,0.838-0.345,1.521-1.212,1.521"/>
		<path fill="#FFFFFF" d="M416.054,87.198"/>
		<path fill="#FFFFFF" d="M469.922,35.327l-1.766-7.461c-1.392-5.404-5.475-8.53-14.346-8.53l-40.844-0.021
			c-0.856,0-1.714,0.686-1.885,1.534l0,0l-14.155,66.37c-0.181,0.836-0.242,1.875-0.141,2.298c0.101,0.423,1.754,0.766,2.61,0.766
			h12.914c0.858,0,1.946-0.151,2.421-0.343c0.474-0.192,1.158-1.876,1.33-2.722l10.143-48.807c0.182-0.837,1.028-1.521,1.887-1.521
			l40.631-0.021c0.856,0,1.399-0.685,1.209-1.522L469.922,35.327z"/>
		<path fill="#FFFFFF" d="M506.095,8.802c-0.856,0-1.967,0.585-2.45,1.29l-28.753,42.132c-0.485,0.717-1.039,0.605-1.231-0.231
			l-2.116-9.285c-0.191-0.837-1.048-1.522-1.916-1.522h-18.49c-0.855,0-1.37,0.676-1.14,1.502l8.287,29.017
			c0.233,0.827,0.253,2.187,0.041,3.014l-3.607,14.045c-0.213,0.836,0.312,1.511,1.179,1.511h18.268
			c0.857,0,1.735-0.685,1.945-1.511l3.609-14.045c0.212-0.837,0.807-2.077,1.332-2.762l46.689-61.963
			c0.515-0.686,0.242-1.25-0.626-1.241L506.095,8.802z"/>
		<path fill="#FFFFFF" d="M375.353,45.137v-0.021c-0.11,0.938-0.968,1.613-1.826,1.613h-23.439c-0.806,0-1.22-0.554-1.099-1.229
			c0.01-0.021,0.01-0.041,0.02-0.051c0,0-0.01,0-0.01,0.01c0.01-0.03,0.01-0.051,0.01-0.081c0,0,0.041-0.161,0.111-0.403
			c2.238-5.948,6.796-9.86,15.365-9.86c9.647,0,11.535,4.718,10.878,10.011L375.353,45.137z M368.475,18.087
			c-30.083,0-37.211,18.257-41.214,36.688c-4.002,18.783-3.659,36.355,27.474,36.355c0,0,25.194-0.102,28.542-0.132
			c0.857-0.009,1.692-0.705,1.864-1.533l3.005-14.708c0.172-0.838-0.393-1.534-1.249-1.534h-27.987
			c-11.131,0-14.438-2.954-13.218-11.653h44.744v0.01c0.01,0,0.02,0,0.03,0c0.715-0.01,1.37-0.504,1.633-1.149
			c0.052-0.122,0.091-0.252,0.109-0.395v0.011c6.646-25.055,4.739-41.931-23.723-41.931L368.475,18.087z"/>
		<path fill="#FFFFFF" d="M226.281,45.045l-0.423,1.502c0,0.009,0,0.009,0,0.009l-3.377,11.978l-3.378,11.967
			c-0.231,0.827-1.129,1.502-1.986,1.502h-17.885c-13.56,0-16.867-10.606-13.56-26.253c3.307-15.999,9.779-25.951,23.128-26.959
			c18.238-1.371,21.888,11.453,17.492,26.264L226.281,45.045z M238.541,71.078c0,0,8.428-20.466,10.345-32.292
			C251.497,22.957,243.571,0,212.963,0c-30.438,0-43.646,21.919-48.696,45.742c-5.042,23.995,1.563,45.046,31.828,44.865
			l23.875-0.092l22.311-0.081c0.857-0.01,1.734-0.686,1.956-1.522l3.893-14.819c0.211-0.837-0.313-1.513-1.17-1.522l-3.731-0.02
			l-3.72-0.02c-0.736,0-1.15-0.475-1.06-1.111c0.021-0.11,0.041-0.23,0.092-0.353L238.541,71.078L238.541,71.078z"/>
		<path fill="#FFFFFF" d="M389.204,57.376c0,0.565-0.465,1.028-1.027,1.028c-0.565,0-1.029-0.464-1.029-1.028
			c0-0.563,0.465-1.028,1.029-1.028C388.74,56.347,389.204,56.803,389.204,57.376z"/>
	</g>
	<g>
		<path fill="#78CFF5" d="M94.226,76.804l-0.432,1.119c-7.357,14.324-20.396,23.112-38.993,23.5
			c-8.693,0.179-16.976-2.051-22.388-4.476C20.737,91.701,10.915,81.974,5.55,71.581c-7.694-14.899-9.082-35.625,6.918-51.104
			c0.247,0-1.941,3.357-1.694,3.357l-0.44,1.432C-1.195,61.352,34.325,92.277,68.854,88.74
			C77.153,87.89,87.734,83.347,94.226,76.804"/>
		<path fill="#78CFF5" d="M73.331,61.882c8.687,0.06,17.761-4,23.134-9.698C91.764,64.113,78.153,71.781,59.9,69.343
			c-15.285-2.044-29.844-17.42-31.343-32.828c-1.097-11.212,2.812-17.904,9.253-26.023c-2.238,4.247-3.075,7.521-3.284,9.609
			C32.081,44.356,53.907,61.753,73.331,61.882"/>
		<path fill="#78CFF5" d="M95.592,31.755c-1.351,3.097-9.125,8.945-12.559,9.676c-13.596,2.896-22.305-3.55-26.866-10.885
			c-0.678-1.096-1.931-4.087-2.155-4.849c-1.77-6.012-0.957-15.108,4.321-19.816c-1.59,4.478-1.822,9.677-0.985,13.057
			c0.507,2.044,2.051,5.612,3.597,7.855c2.812,4.088,4.596,5.081,8.208,7.252c1.626,0.978,3.373,1.761,4.126,1.976
			C76.704,37.03,83.936,39.686,95.592,31.755"/>
	</g>
</g>
<g id="mask">
	<g>
		<path fill="#FFFFFF" d="M225.857,46.548L225.857,46.548l-3.377,11.978l3.377-11.968V46.548z"/>
		<path fill="#FFFFFF" d="M243.239,72.55l-3.72-0.02L243.239,72.55z"/>
		<path fill="#FFFFFF" d="M242.28,90.435L242.28,90.435l-22.311,0.081L242.28,90.435z"/>
		<path fill="#FFFFFF" d="M246.958,72.57l-3.73-0.02L246.958,72.57z"/>
		<path fill="#FFFFFF" d="M244.236,88.923l3.892-14.821l-3.882,14.831l0,0L244.236,88.923z"/>
		<path fill="#FFFFFF" d="M326.384,20.659"/>
		<path fill="#FFFFFF" d="M307.772,20.659L307.772,20.659"/>
		<path fill="#FFFFFF" d="M325.144,19.125h-15.485c-0.857,0-1.714,0.686-1.896,1.533l-10.99,50.853
			c-0.18,0.837-1.038,1.522-1.894,1.522h-10.961c-10.837,0-9.586-7.501-7.368-17.774c0.021-0.102,0.041-0.203,0.07-0.314
			l6.886-34.289c0.172-0.837-0.393-1.532-1.249-1.532h-15.89c-0.856,0-1.713,0.695-1.885,1.532l-7.148,33.946
			c-3.932,17.967-2.894,35.105,18.501,35.64c0.351,0.011,0.624,0.011,0.624,0.011h33.573c0.856,0,1.714-0.687,1.885-1.533
			l14.479-68.074c0.181-0.836-0.382-1.532-1.241-1.532L325.144,19.125z"/>
		<path fill="#FFFFFF" d="M386.906,73.215c0.857,0,1.422,0.685,1.249,1.532"/>
		<path fill="#FFFFFF" d="M385.152,89.447L385.152,89.447"/>
		<path fill="#FFFFFF" d="M383.267,90.99h0.01c-4.557,0.041-18.249,0.142-28.542,0.142C367.256,91.131,383.267,90.99,383.267,90.99z
			"/>
		<path fill="#FFFFFF" d="M345.5,63.749c-0.01-0.806,0.907-2.188,1.764-2.188l-1.936-0.03C344.462,70.291,345.5,63.749,345.5,63.749
			z"/>
		<path fill="#FFFFFF" d="M386.906,73.215c0.857,0,1.422,0.685,1.249,1.532"/>
		<path fill="#FFFFFF" d="M383.276,90.99L383.276,90.99C379.938,91.02,379.93,91.02,383.276,90.99z"/>
		<path fill="#FFFFFF" d="M385.152,89.447L385.152,89.447"/>
		<path fill="#FFFFFF" d="M354.734,91.131"/>
		<path fill="#FFFFFF" d="M159.327,18.944h-16.998c-0.857,0-1.714,0.686-1.906,1.523l-3.227,14.234
			c-0.191,0.838,0.363,1.523,1.221,1.523h17.138c0.857,0,1.714-0.686,1.896-1.523l3.125-14.225l0,0
			c0.182-0.837-0.372-1.522-1.229-1.522L159.327,18.944z"/>
		<path fill="#FFFFFF" d="M155.626,42.617L155.626,42.617"/>
		<path fill="#FFFFFF" d="M106.236,119.057c0,0,8.57,0.111,14.023,0.111C116.116,119.169,109.291,119.088,106.236,119.057h0.01
			H106.236z"/>
		<path fill="#FFFFFF" d="M135.353,42.617"/>
		<path fill="#FFFFFF" d="M154.397,41.094h-17.139c-0.857,0-1.714,0.686-1.906,1.522l-10.112,46.125
			c-0.181,0.836-0.545,2.198-0.827,3.014c0,0-3.196,9.528-8.58,9.417c-0.231,0-0.454-0.01-0.676-0.01
			c-2.611-0.051-4.657-0.091-4.657-0.091l0,0c-0.856-0.011-1.724,0.654-1.925,1.491l-3.549,14.942
			c-0.203,0.837,0.342,1.522,1.189,1.542c3.054,0.042,9.89,0.111,14.024,0.111c13.438,0,20.526-7.451,25.073-28.884l10.304-47.667
			c0.182-0.837-0.373-1.522-1.23-1.522L154.397,41.094z"/>
		<path fill="#FFFFFF" d="M397.824,90.264c-0.856,0-1.412-0.687-1.239-1.532"/>
		<path fill="#FFFFFF" d="M415.74,88.722"/>
		<path fill="#FFFFFF" d="M396.776,89.498c-0.102-0.424-0.041-1.452,0.142-2.299l-0.322,1.523c-0.182,0.836,0.373,1.532,1.238,1.532
			h1.563c-0.856,0-2.51-0.343-2.609-0.766L396.776,89.498z"/>
		<path fill="#FFFFFF" d="M414.723,89.91c-0.465,0.192-1.554,0.343-2.421,0.343h1.563c0.858,0,1.705-0.686,1.876-1.532l0.313-1.533
			C415.881,88.025,415.187,89.719,414.723,89.91L414.723,89.91z"/>
		<path fill="#FFFFFF" d="M469.922,35.327c0.189,0.838-0.345,1.521-1.212,1.521"/>
		<path fill="#FFFFFF" d="M416.054,87.198"/>
		<path fill="#FFFFFF" d="M469.922,35.327l-1.766-7.461c-1.392-5.404-5.475-8.53-14.346-8.53l-40.844-0.021
			c-0.856,0-1.714,0.686-1.885,1.534l0,0l-14.155,66.37c-0.181,0.836-0.242,1.875-0.141,2.298c0.101,0.423,1.754,0.766,2.61,0.766
			h12.914c0.858,0,1.946-0.151,2.421-0.343c0.474-0.192,1.158-1.876,1.33-2.722l10.143-48.807c0.182-0.837,1.028-1.521,1.887-1.521
			l40.631-0.021c0.856,0,1.399-0.685,1.209-1.522L469.922,35.327z"/>
		<path fill="#FFFFFF" d="M506.095,8.802c-0.856,0-1.967,0.585-2.45,1.29l-28.753,42.132c-0.485,0.717-1.039,0.605-1.231-0.231
			l-2.116-9.285c-0.191-0.837-1.048-1.522-1.916-1.522h-18.49c-0.855,0-1.37,0.676-1.14,1.502l8.287,29.017
			c0.233,0.827,0.253,2.187,0.041,3.014l-3.607,14.045c-0.213,0.836,0.312,1.511,1.179,1.511h18.268
			c0.857,0,1.735-0.685,1.945-1.511l3.609-14.045c0.212-0.837,0.807-2.077,1.332-2.762l46.689-61.963
			c0.515-0.686,0.242-1.25-0.626-1.241L506.095,8.802z"/>
		<path fill="#FFFFFF" d="M375.353,45.137v-0.021c-0.11,0.938-0.968,1.613-1.826,1.613h-23.439c-0.806,0-1.22-0.554-1.099-1.229
			c0.01-0.021,0.01-0.041,0.02-0.051c0,0-0.01,0-0.01,0.01c0.01-0.03,0.01-0.051,0.01-0.081c0,0,0.041-0.161,0.111-0.403
			c2.238-5.948,6.796-9.86,15.365-9.86c9.647,0,11.535,4.718,10.878,10.011L375.353,45.137z M368.475,18.087
			c-30.083,0-37.211,18.257-41.214,36.688c-4.002,18.783-3.659,36.355,27.474,36.355c0,0,25.194-0.102,28.542-0.132
			c0.857-0.009,1.692-0.705,1.864-1.533l3.005-14.708c0.172-0.838-0.393-1.534-1.249-1.534h-27.987
			c-11.131,0-14.438-2.954-13.218-11.653h44.744v0.01c0.01,0,0.02,0,0.03,0c0.715-0.01,1.37-0.504,1.633-1.149
			c0.052-0.122,0.091-0.252,0.109-0.395v0.011c6.646-25.055,4.739-41.931-23.723-41.931L368.475,18.087z"/>
		<path fill="#FFFFFF" d="M226.281,45.045l-0.423,1.502c0,0.009,0,0.009,0,0.009l-3.377,11.978l-3.378,11.967
			c-0.231,0.827-1.129,1.502-1.986,1.502h-17.885c-13.56,0-16.867-10.606-13.56-26.253c3.307-15.999,9.779-25.951,23.128-26.959
			c18.238-1.371,21.888,11.453,17.492,26.264L226.281,45.045z M238.541,71.078c0,0,8.428-20.466,10.345-32.292
			C251.497,22.957,243.571,0,212.963,0c-30.438,0-43.646,21.919-48.696,45.742c-5.042,23.995,1.563,45.046,31.828,44.865
			l23.875-0.092l22.311-0.081c0.857-0.01,1.734-0.686,1.956-1.522l3.893-14.819c0.211-0.837-0.313-1.513-1.17-1.522l-3.731-0.02
			l-3.72-0.02c-0.736,0-1.15-0.475-1.06-1.111c0.021-0.11,0.041-0.23,0.092-0.353L238.541,71.078L238.541,71.078z"/>
		<path fill="#FFFFFF" d="M389.204,57.376c0,0.565-0.465,1.028-1.027,1.028c-0.565,0-1.029-0.464-1.029-1.028
			c0-0.563,0.465-1.028,1.029-1.028C388.74,56.347,389.204,56.803,389.204,57.376z"/>
	</g>
	<g>
		<path fill="#FFFFFF" d="M94.226,76.804l-0.432,1.119c-7.357,14.324-20.396,23.112-38.993,23.5
			c-8.693,0.179-16.976-2.051-22.388-4.476C20.737,91.701,10.915,81.974,5.55,71.581c-7.694-14.899-9.082-35.625,6.918-51.104
			c0.247,0-1.941,3.357-1.694,3.357l-0.44,1.432C-1.195,61.352,34.325,92.277,68.854,88.74
			C77.153,87.89,87.734,83.347,94.226,76.804"/>
		<path fill="#FFFFFF" d="M73.331,61.882c8.687,0.06,17.761-4,23.134-9.698C91.764,64.113,78.153,71.781,59.9,69.343
			c-15.285-2.044-29.844-17.42-31.343-32.828c-1.097-11.212,2.812-17.904,9.253-26.023c-2.238,4.247-3.075,7.521-3.284,9.609
			C32.081,44.356,53.907,61.753,73.331,61.882"/>
		<path fill="#FFFFFF" d="M95.592,31.755c-1.351,3.097-9.125,8.945-12.559,9.676c-13.596,2.896-22.305-3.55-26.866-10.885
			c-0.678-1.096-1.931-4.087-2.155-4.849c-1.77-6.012-0.957-15.108,4.321-19.816c-1.59,4.478-1.822,9.677-0.985,13.057
			c0.507,2.044,2.051,5.612,3.597,7.855c2.812,4.088,4.596,5.081,8.208,7.252c1.626,0.978,3.373,1.761,4.126,1.976
			C76.704,37.03,83.936,39.686,95.592,31.755"/>
	</g>
</g>
</svg>
