<?xml version="1.0" encoding="utf-8"?>
<!-- Generator: Adobe Illustrator 16.0.0, SVG Export Plug-In . SVG Version: 6.00 Build 0)  -->
<!DOCTYPE svg PUBLIC "-//W3C//DTD SVG 1.1//EN" "http://www.w3.org/Graphics/SVG/1.1/DTD/svg11.dtd">
<svg version="1.1" xmlns="http://www.w3.org/2000/svg" xmlns:xlink="http://www.w3.org/1999/xlink" x="0px" y="0px" width="374px"
	 height="528px" viewBox="0 0 374 528" enable-background="new 0 0 374 528" xml:space="preserve">
<g id="color">
	<path fill="#CCCCCC" d="M150.61,47.225h-33.293v23.971h57.111V0H150.61V47.225z M256.661,0.381h-58.036v24.92
		c7.749,7.773,11.792,11.511,23.206,22.768h-23.206v22.725h58.036V48.111l-23.207-22.768h23.207V0.381z"/>
	<path fill="#E6A329" d="M374,103.467H0L35.063,484.79L186.979,528l151.917-43.21L374,103.467z"/>
	<path fill="#F1BF22" d="M186.979,134.535v361.152l123.088-34.976l29.945-326.176H186.979z"/>
	<path fill="#FFFFFF" d="M186.979,228.707h58.858l1.77,27.373h47.678L284.9,181.315h-97.922V228.707z M186.979,323.199h56.541
		l-5.242,60.403l-51.299,14.805v48.704l95.731-27.245l13.184-143.384H186.979V323.199z"/>
	<path fill="#EBEBEB" d="M187.02,181.315H95.648L82.739,323.199H187.02v-46.568h-55.109l2.19-47.774h52.919V181.315z
		 M131.911,346.812H84.549l6.74,73.014l95.689,27.2v-48.576l-52.057-15.08L131.911,346.812z"/>
</g>
<g id="mask">
	<path fill="#FFFFFF" d="M150.61,47.225h-33.293v23.971h57.111V0H150.61V47.225z M256.661,0.381h-58.036v24.92
		c7.749,7.773,11.792,11.511,23.206,22.768h-23.206v22.725h58.036V48.111l-23.207-22.768h23.207V0.381z"/>
	<path fill="#FFFFFF" d="M0,103.467L35.063,484.79L186.979,528l151.917-43.21L374,103.467H0z M310.066,460.711l-123.067,34.97
		l-123.067-34.97L33.986,134.535h306.025L310.066,460.711z"/>
	<polygon fill="#FFFFFF" points="131.911,276.631 134.101,228.856 245.837,228.707 247.606,256.08 295.284,256.08 284.9,181.315 
		95.648,181.315 82.739,323.199 243.52,323.199 238.277,383.603 186.979,398.449 134.922,383.369 131.911,346.812 84.549,346.812 
		91.289,419.825 186.979,447.111 282.71,419.866 295.894,276.482 	"/>
</g>
</svg>