<?xml version="1.0" encoding="utf-8"?>
<!-- Generator: Adobe Illustrator 16.0.0, SVG Export Plug-In . SVG Version: 6.00 Build 0)  -->
<!DOCTYPE svg PUBLIC "-//W3C//DTD SVG 1.1//EN" "http://www.w3.org/Graphics/SVG/1.1/DTD/svg11.dtd">
<svg version="1.1" xmlns="http://www.w3.org/2000/svg" xmlns:xlink="http://www.w3.org/1999/xlink" x="0px" y="0px" width="512px"
	 height="528px" viewBox="0 0.001 512 528" enable-background="new 0 0.001 512 528" xml:space="preserve">
<g id="color">
	<path fill="#FF2D20" d="M511.708,119.45c0.19,0.706,0.292,1.428,0.292,2.158v113.336c0,2.961-1.591,5.694-4.149,7.168
		l-94.956,54.768v108.551c0,2.955-1.571,5.679-4.129,7.161l-198.21,114.31c-0.454,0.263-0.947,0.424-1.445,0.605
		c-0.181,0.061-0.357,0.171-0.554,0.222c-1.384,0.363-2.845,0.363-4.229,0c-0.228-0.061-0.434-0.182-0.65-0.263
		c-0.452-0.171-0.926-0.313-1.359-0.564L4.144,412.592C1.581,411.119,0,408.396,0,405.431V65.428c0-0.741,0.101-1.468,0.287-2.169
		c0.065-0.237,0.206-0.454,0.292-0.691c0.151-0.433,0.297-0.878,0.523-1.281c0.156-0.267,0.383-0.489,0.569-0.735
		c0.237-0.328,0.453-0.672,0.73-0.959c0.237-0.237,0.549-0.414,0.815-0.62c0.297-0.247,0.569-0.515,0.907-0.712h0.01l99.096-57.154
		c2.552-1.473,5.693-1.473,8.246,0l99.091,57.154h0.02c0.332,0.207,0.609,0.465,0.911,0.701c0.267,0.207,0.564,0.394,0.801,0.621
		c0.292,0.297,0.499,0.641,0.745,0.969c0.176,0.246,0.412,0.469,0.554,0.735c0.237,0.414,0.373,0.849,0.538,1.281
		c0.081,0.237,0.228,0.454,0.288,0.701c0.19,0.706,0.286,1.434,0.291,2.159v212.357l82.571-47.621V121.599
		c0-0.721,0.102-1.458,0.292-2.148c0.07-0.248,0.201-0.465,0.282-0.701c0.16-0.434,0.312-0.878,0.544-1.281
		c0.151-0.268,0.382-0.484,0.554-0.735c0.251-0.329,0.453-0.672,0.734-0.959c0.242-0.237,0.545-0.414,0.806-0.621
		c0.313-0.247,0.584-0.515,0.906-0.711h0.021l99.095-57.154c2.559-1.473,5.699-1.473,8.247,0l99.095,57.154
		c0.354,0.208,0.614,0.464,0.928,0.701c0.261,0.207,0.554,0.394,0.795,0.621c0.292,0.297,0.493,0.64,0.745,0.969
		c0.182,0.251,0.412,0.468,0.554,0.735c0.232,0.403,0.372,0.848,0.533,1.281C511.517,118.985,511.647,119.202,511.708,119.45z
		 M495.476,230.164v-94.247l-34.67,19.994l-47.911,27.633v94.241l82.591-47.621H495.476z M396.381,400.648v-94.306l-47.117,26.963
		l-134.564,76.926v95.204L396.381,400.648z M16.52,79.731v320.917l181.666,104.767v-95.173l-94.907-53.806l-0.03-0.021l-0.044-0.021
		c-0.318-0.192-0.584-0.453-0.887-0.677c-0.257-0.211-0.554-0.382-0.78-0.604l-0.02-0.029c-0.272-0.253-0.459-0.575-0.686-0.869
		c-0.207-0.271-0.453-0.515-0.619-0.806l-0.01-0.03c-0.182-0.304-0.298-0.687-0.434-1.029c-0.131-0.313-0.308-0.604-0.388-0.928
		v-0.021c-0.105-0.384-0.125-0.808-0.166-1.21c-0.04-0.303-0.126-0.616-0.126-0.928v-0.021V127.363L51.194,99.72L16.52,79.741
		V79.731z M107.362,17.82L24.796,65.428l82.545,47.606l82.551-47.617L107.342,17.82H107.362z M150.299,314.937l47.896-27.628V79.731
		l-34.68,20.004l-47.906,27.628V334.94L150.299,314.937z M404.647,74.002l-82.561,47.606l82.561,47.606l82.541-47.616
		L404.647,74.002z M396.381,183.544l-47.901-27.633l-34.67-19.994v94.247l47.891,27.617l34.681,20.004V183.544z M206.432,395.927
		l121.092-69.248l60.52-34.609l-82.49-47.571l-94.977,54.773l-86.564,49.933L206.432,395.927z"/>
</g>
<g id="mask">
	<path fill="#FFFFFF" d="M511.708,119.45c0.19,0.706,0.292,1.428,0.292,2.158v113.336c0,2.961-1.591,5.694-4.149,7.168
		l-94.956,54.768v108.551c0,2.955-1.571,5.679-4.129,7.161l-198.21,114.31c-0.454,0.263-0.947,0.424-1.445,0.605
		c-0.181,0.061-0.357,0.171-0.554,0.222c-1.384,0.363-2.845,0.363-4.229,0c-0.228-0.061-0.434-0.182-0.65-0.263
		c-0.452-0.171-0.926-0.313-1.359-0.564L4.144,412.592C1.581,411.119,0,408.396,0,405.431V65.428c0-0.741,0.101-1.468,0.287-2.169
		c0.065-0.237,0.206-0.454,0.292-0.691c0.151-0.433,0.297-0.878,0.523-1.281c0.156-0.267,0.383-0.489,0.569-0.735
		c0.237-0.328,0.453-0.672,0.73-0.959c0.237-0.237,0.549-0.414,0.815-0.62c0.297-0.247,0.569-0.515,0.907-0.712h0.01l99.096-57.154
		c2.552-1.473,5.693-1.473,8.246,0l99.091,57.154h0.02c0.332,0.207,0.609,0.465,0.911,0.701c0.267,0.207,0.564,0.394,0.801,0.621
		c0.292,0.297,0.499,0.641,0.745,0.969c0.176,0.246,0.412,0.469,0.554,0.735c0.237,0.414,0.373,0.849,0.538,1.281
		c0.081,0.237,0.228,0.454,0.288,0.701c0.19,0.706,0.286,1.434,0.291,2.159v212.357l82.571-47.621V121.599
		c0-0.721,0.102-1.458,0.292-2.148c0.07-0.248,0.201-0.465,0.282-0.701c0.16-0.434,0.312-0.878,0.544-1.281
		c0.151-0.268,0.382-0.484,0.554-0.735c0.251-0.329,0.453-0.672,0.734-0.959c0.242-0.237,0.545-0.414,0.806-0.621
		c0.313-0.247,0.584-0.515,0.906-0.711h0.021l99.095-57.154c2.559-1.473,5.699-1.473,8.247,0l99.095,57.154
		c0.354,0.208,0.614,0.464,0.928,0.701c0.261,0.207,0.554,0.394,0.795,0.621c0.292,0.297,0.493,0.64,0.745,0.969
		c0.182,0.251,0.412,0.468,0.554,0.735c0.232,0.403,0.372,0.848,0.533,1.281C511.517,118.985,511.647,119.202,511.708,119.45z
		 M495.476,230.164v-94.247l-34.67,19.994l-47.911,27.633v94.241l82.591-47.621H495.476z M396.381,400.648v-94.306l-47.117,26.963
		l-134.564,76.926v95.204L396.381,400.648z M16.52,79.731v320.917l181.666,104.767v-95.173l-94.907-53.806l-0.03-0.021l-0.044-0.021
		c-0.318-0.192-0.584-0.453-0.887-0.677c-0.257-0.211-0.554-0.382-0.78-0.604l-0.02-0.029c-0.272-0.253-0.459-0.575-0.686-0.869
		c-0.207-0.271-0.453-0.515-0.619-0.806l-0.01-0.03c-0.182-0.304-0.298-0.687-0.434-1.029c-0.131-0.313-0.308-0.604-0.388-0.928
		v-0.021c-0.105-0.384-0.125-0.808-0.166-1.21c-0.04-0.303-0.126-0.616-0.126-0.928v-0.021V127.363L51.194,99.72L16.52,79.741
		V79.731z M107.362,17.82L24.796,65.428l82.545,47.606l82.551-47.617L107.342,17.82H107.362z M150.299,314.937l47.896-27.628V79.731
		l-34.68,20.004l-47.906,27.628V334.94L150.299,314.937z M404.647,74.002l-82.561,47.606l82.561,47.606l82.541-47.616
		L404.647,74.002z M396.381,183.544l-47.901-27.633l-34.67-19.994v94.247l47.891,27.617l34.681,20.004V183.544z M206.432,395.927
		l121.092-69.248l60.52-34.609l-82.49-47.571l-94.977,54.773l-86.564,49.933L206.432,395.927z"/>
</g>
</svg>