<?xml version="1.0" encoding="utf-8"?>
<!-- Generator: Adobe Illustrator 16.0.0, SVG Export Plug-In . SVG Version: 6.00 Build 0)  -->
<!DOCTYPE svg PUBLIC "-//W3C//DTD SVG 1.1//EN" "http://www.w3.org/Graphics/SVG/1.1/DTD/svg11.dtd">
<svg version="1.1" id="Layer_1" xmlns="http://www.w3.org/2000/svg" xmlns:xlink="http://www.w3.org/1999/xlink" x="0px" y="0px"
	 width="528px" height="145px" viewBox="0 0 528 145" enable-background="new 0 0 528 145" xml:space="preserve">
<g id="color">
	<path fill="#FF2D20" d="M213.064,33.753v67.083h24.184v11.575h-37.063V33.753H213.064z M282.704,67.125v-7.078h12.206v52.364
		h-12.204v-7.081c-1.645,2.624-3.973,4.685-6.997,6.18c-3.022,1.498-6.069,2.249-9.128,2.249c-3.96,0-7.58-0.728-10.859-2.188
		c-3.2-1.402-6.078-3.449-8.458-6.016c-2.354-2.553-4.211-5.525-5.48-8.761c-1.322-3.366-1.985-6.954-1.963-10.569
		c0-3.667,0.652-7.168,1.96-10.506c1.261-3.258,3.121-6.254,5.483-8.818c2.38-2.565,5.258-4.613,8.458-6.012
		c3.279-1.463,6.899-2.192,10.859-2.192c3.059,0,6.105,0.752,9.128,2.249c3.021,1.498,5.353,3.557,6.997,6.18H282.704z
		 M281.583,92.633c0.754-2.05,1.132-4.219,1.123-6.402c0-2.251-0.374-4.384-1.123-6.404c-0.696-1.948-1.762-3.738-3.133-5.285
		c-1.365-1.515-3.022-2.736-4.871-3.598c-1.904-0.896-4.012-1.348-6.323-1.348c-2.316,0-4.406,0.452-6.273,1.348
		c-1.827,0.869-3.463,2.092-4.815,3.598c-1.366,1.538-2.411,3.332-3.074,5.282c-0.719,2.058-1.079,4.225-1.067,6.401
		c0,2.249,0.354,4.386,1.064,6.408c0.706,2.022,1.733,3.78,3.08,5.281c1.353,1.506,2.991,2.729,4.815,3.599
		c1.864,0.898,3.954,1.348,6.267,1.348c2.315,0,4.423-0.449,6.327-1.348c1.849-0.858,3.506-2.081,4.871-3.599
		C279.821,96.37,280.887,94.577,281.583,92.633z M304.537,112.411V60.047h33.146V72.1H316.74v40.317h-12.203V112.411z
		 M381.911,67.125v-7.078h12.201v52.364h-12.201v-7.081c-1.644,2.624-3.976,4.685-7,6.18c-3.023,1.498-6.064,2.249-9.127,2.249
		c-3.957,0-7.576-0.728-10.856-2.188c-3.201-1.402-6.078-3.449-8.458-6.016c-2.356-2.553-4.214-5.523-5.484-8.761
		c-1.32-3.366-1.985-6.954-1.959-10.569c0-3.667,0.65-7.168,1.959-10.506c1.259-3.258,3.118-6.251,5.484-8.818
		c2.377-2.565,5.257-4.613,8.458-6.012c3.28-1.463,6.899-2.192,10.856-2.192c3.063,0,6.104,0.752,9.127,2.249
		C377.936,62.443,380.268,64.502,381.911,67.125z M380.79,92.633c0.752-2.05,1.132-4.219,1.121-6.402
		c0-2.251-0.38-4.384-1.121-6.404c-0.698-1.948-1.764-3.738-3.135-5.285c-1.364-1.515-3.024-2.736-4.871-3.598
		c-1.904-0.896-4.014-1.348-6.326-1.348s-4.403,0.452-6.27,1.348c-1.827,0.869-3.462,2.092-4.815,3.598
		c-1.364,1.538-2.411,3.332-3.08,5.282c-0.713,2.058-1.077,4.225-1.062,6.401c0,2.249,0.349,4.386,1.062,6.408
		c0.709,2.022,1.737,3.78,3.08,5.281c1.351,1.506,2.988,2.729,4.815,3.599c1.866,0.898,3.957,1.348,6.27,1.348
		s4.422-0.449,6.326-1.348c1.85-0.858,3.507-2.081,4.871-3.599C379.026,96.37,380.092,94.577,380.79,92.633z M443.041,60.047h12.364
		l-20.029,52.364h-15.343l-20.028-52.364h12.36l15.342,40.101L443.041,60.047z M482.025,58.696
		c16.617,0,27.948,14.782,25.818,32.082h-40.488c0,4.52,4.549,13.253,15.341,13.253c9.279,0,15.503-8.195,15.506-8.201l8.245,6.405
		c-7.373,7.896-13.409,11.523-22.86,11.523c-16.892,0-28.337-10.724-28.337-27.528c0-15.202,11.828-27.534,26.771-27.534H482.025z
		 M467.39,81.678h29.248c-0.09-1.007-1.676-13.251-14.712-13.251C468.892,68.427,467.483,80.671,467.39,81.678z M515.791,112.411
		V33.753H528v78.658H515.791z"/>
	<path fill="#FF2D20" d="M140.026,32.803c0.053,0.194,0.081,0.393,0.081,0.593v31.125c0,0.813-0.436,1.563-1.136,1.968
		l-25.984,15.041v29.811c0,0.811-0.429,1.559-1.13,1.966l-54.239,31.393c-0.125,0.072-0.259,0.116-0.395,0.165
		c-0.049,0.018-0.098,0.047-0.152,0.063c-0.378,0.099-0.779,0.099-1.156,0c-0.063-0.018-0.12-0.051-0.179-0.073
		c-0.123-0.046-0.253-0.086-0.371-0.154l-54.23-31.393C0.433,112.901,0,112.153,0,111.34V17.967c0-0.203,0.028-0.402,0.079-0.595
		c0.018-0.065,0.056-0.125,0.08-0.19C0.2,17.063,0.24,16.94,0.302,16.83c0.042-0.073,0.104-0.134,0.155-0.202
		c0.065-0.09,0.124-0.184,0.201-0.263c0.064-0.065,0.149-0.114,0.222-0.171C0.961,16.126,1.036,16.054,1.128,16H1.13L28.248,0.304
		c0.698-0.405,1.559-0.405,2.256,0L57.62,16h0.006c0.091,0.056,0.166,0.126,0.249,0.191c0.074,0.057,0.154,0.108,0.219,0.171
		c0.08,0.082,0.137,0.176,0.204,0.266c0.047,0.068,0.113,0.129,0.151,0.202c0.065,0.113,0.102,0.233,0.147,0.352
		c0.022,0.065,0.063,0.125,0.08,0.193c0.051,0.193,0.077,0.394,0.079,0.592v58.319l22.596-13.079V33.393
		c0-0.197,0.028-0.399,0.08-0.589c0.019-0.068,0.055-0.128,0.077-0.192c0.043-0.119,0.084-0.241,0.148-0.353
		c0.042-0.073,0.105-0.133,0.152-0.202c0.069-0.089,0.124-0.184,0.201-0.263c0.066-0.065,0.149-0.113,0.221-0.171
		c0.086-0.067,0.16-0.142,0.248-0.195h0.006L109.6,15.733c0.7-0.405,1.559-0.405,2.256,0l27.117,15.694
		c0.096,0.058,0.168,0.128,0.254,0.192c0.071,0.058,0.151,0.108,0.218,0.171c0.08,0.082,0.134,0.177,0.204,0.266
		c0.049,0.069,0.113,0.129,0.152,0.202c0.063,0.111,0.102,0.233,0.146,0.353C139.974,32.676,140.009,32.734,140.026,32.803z
		 M135.584,63.207V37.325l-9.487,5.49l-13.111,7.589v25.882l22.601-13.079H135.584L135.584,63.207z M108.468,110.025V84.128
		l-12.893,7.404l-36.824,21.125v26.146L108.468,110.025z M4.521,21.896v88.13l49.711,28.771V112.66l-25.97-14.775l-0.008-0.006
		l-0.012-0.006c-0.087-0.053-0.16-0.124-0.243-0.187c-0.07-0.058-0.151-0.104-0.213-0.165l-0.005-0.009
		c-0.075-0.068-0.126-0.158-0.188-0.239c-0.057-0.073-0.124-0.141-0.17-0.22l-0.003-0.009c-0.049-0.083-0.081-0.189-0.118-0.282
		c-0.036-0.086-0.084-0.166-0.106-0.255v-0.006c-0.029-0.105-0.035-0.223-0.046-0.333c-0.011-0.083-0.034-0.169-0.034-0.254v-0.006
		V34.977l-13.107-7.593l-9.488-5.486V21.896z M29.379,4.894L6.785,17.967l22.588,13.074l22.59-13.077L29.374,4.894H29.379z
		 M41.129,86.488L54.234,78.9V21.896l-9.489,5.492l-13.109,7.589v57.005L41.129,86.488z M110.729,20.322L88.137,33.396
		l22.592,13.073l22.586-13.076L110.729,20.322z M108.468,50.404L95.36,42.815l-9.487-5.49v25.882l13.104,7.585l9.491,5.494V50.404
		L108.468,50.404z M56.489,108.729l33.136-19.018l16.562-9.504L83.613,67.145L57.624,82.187L33.936,95.898L56.489,108.729z"/>
</g>
<g id="mask">
	<path fill="#FFFFFF" d="M213.064,33.753v67.083h24.184v11.575h-37.063V33.753H213.064z M282.704,67.125v-7.078h12.206v52.364
		h-12.204v-7.081c-1.645,2.624-3.973,4.685-6.997,6.18c-3.022,1.498-6.069,2.249-9.128,2.249c-3.96,0-7.58-0.728-10.859-2.188
		c-3.2-1.402-6.078-3.449-8.458-6.016c-2.354-2.553-4.211-5.525-5.48-8.761c-1.322-3.366-1.985-6.954-1.963-10.569
		c0-3.667,0.652-7.168,1.96-10.506c1.261-3.258,3.121-6.254,5.483-8.818c2.38-2.565,5.258-4.613,8.458-6.012
		c3.279-1.463,6.899-2.192,10.859-2.192c3.059,0,6.105,0.752,9.128,2.249c3.021,1.498,5.353,3.557,6.997,6.18H282.704z
		 M281.583,92.633c0.754-2.05,1.132-4.219,1.123-6.402c0-2.251-0.374-4.384-1.123-6.404c-0.696-1.948-1.762-3.738-3.133-5.285
		c-1.365-1.515-3.022-2.736-4.871-3.598c-1.904-0.896-4.012-1.348-6.323-1.348c-2.316,0-4.406,0.452-6.273,1.348
		c-1.827,0.869-3.463,2.092-4.815,3.598c-1.366,1.538-2.411,3.332-3.074,5.282c-0.719,2.058-1.079,4.225-1.067,6.401
		c0,2.249,0.354,4.386,1.064,6.408c0.706,2.022,1.733,3.78,3.08,5.281c1.353,1.506,2.991,2.729,4.815,3.599
		c1.864,0.898,3.954,1.348,6.267,1.348c2.315,0,4.423-0.449,6.327-1.348c1.849-0.858,3.506-2.081,4.871-3.599
		C279.821,96.37,280.887,94.577,281.583,92.633z M304.537,112.411V60.047h33.146V72.1H316.74v40.317h-12.203V112.411z
		 M381.911,67.125v-7.078h12.201v52.364h-12.201v-7.081c-1.644,2.624-3.976,4.685-7,6.18c-3.023,1.498-6.064,2.249-9.127,2.249
		c-3.957,0-7.576-0.728-10.856-2.188c-3.201-1.402-6.078-3.449-8.458-6.016c-2.356-2.553-4.214-5.523-5.484-8.761
		c-1.32-3.366-1.985-6.954-1.959-10.569c0-3.667,0.65-7.168,1.959-10.506c1.259-3.258,3.118-6.251,5.484-8.818
		c2.377-2.565,5.257-4.613,8.458-6.012c3.28-1.463,6.899-2.192,10.856-2.192c3.063,0,6.104,0.752,9.127,2.249
		C377.936,62.443,380.268,64.502,381.911,67.125z M380.79,92.633c0.752-2.05,1.132-4.219,1.121-6.402
		c0-2.251-0.38-4.384-1.121-6.404c-0.698-1.948-1.764-3.738-3.135-5.285c-1.364-1.515-3.024-2.736-4.871-3.598
		c-1.904-0.896-4.014-1.348-6.326-1.348s-4.403,0.452-6.27,1.348c-1.827,0.869-3.462,2.092-4.815,3.598
		c-1.364,1.538-2.411,3.332-3.08,5.282c-0.713,2.058-1.077,4.225-1.062,6.401c0,2.249,0.349,4.386,1.062,6.408
		c0.709,2.022,1.737,3.78,3.08,5.281c1.351,1.506,2.988,2.729,4.815,3.599c1.866,0.898,3.957,1.348,6.27,1.348
		s4.422-0.449,6.326-1.348c1.85-0.858,3.507-2.081,4.871-3.599C379.026,96.37,380.092,94.577,380.79,92.633z M443.041,60.047h12.364
		l-20.029,52.364h-15.343l-20.028-52.364h12.36l15.342,40.101L443.041,60.047z M482.025,58.696
		c16.617,0,27.948,14.782,25.818,32.082h-40.488c0,4.52,4.549,13.253,15.341,13.253c9.279,0,15.503-8.195,15.506-8.201l8.245,6.405
		c-7.373,7.896-13.409,11.523-22.86,11.523c-16.892,0-28.337-10.724-28.337-27.528c0-15.202,11.828-27.534,26.771-27.534H482.025z
		 M467.39,81.678h29.248c-0.09-1.007-1.676-13.251-14.712-13.251C468.892,68.427,467.483,80.671,467.39,81.678z M515.791,112.411
		V33.753H528v78.658H515.791z"/>
	<path fill="#FFFFFF" d="M140.026,32.803c0.053,0.194,0.081,0.393,0.081,0.593v31.125c0,0.813-0.436,1.563-1.136,1.968
		l-25.984,15.041v29.811c0,0.811-0.429,1.559-1.13,1.966l-54.239,31.393c-0.125,0.072-0.259,0.116-0.395,0.165
		c-0.049,0.018-0.098,0.047-0.152,0.063c-0.378,0.099-0.779,0.099-1.156,0c-0.063-0.018-0.12-0.051-0.179-0.073
		c-0.123-0.046-0.253-0.086-0.371-0.154l-54.23-31.393C0.433,112.901,0,112.153,0,111.34V17.967c0-0.203,0.028-0.402,0.079-0.595
		c0.018-0.065,0.056-0.125,0.08-0.19C0.2,17.063,0.24,16.94,0.302,16.83c0.042-0.073,0.104-0.134,0.155-0.202
		c0.065-0.09,0.124-0.184,0.201-0.263c0.064-0.065,0.149-0.114,0.222-0.171C0.961,16.126,1.036,16.054,1.128,16H1.13L28.248,0.304
		c0.698-0.405,1.559-0.405,2.256,0L57.62,16h0.006c0.091,0.056,0.166,0.126,0.249,0.191c0.074,0.057,0.154,0.108,0.219,0.171
		c0.08,0.082,0.137,0.176,0.204,0.266c0.047,0.068,0.113,0.129,0.151,0.202c0.065,0.113,0.102,0.233,0.147,0.352
		c0.022,0.065,0.063,0.125,0.08,0.193c0.051,0.193,0.077,0.394,0.079,0.592v58.319l22.596-13.079V33.393
		c0-0.197,0.028-0.399,0.08-0.589c0.019-0.068,0.055-0.128,0.077-0.192c0.043-0.119,0.084-0.241,0.148-0.353
		c0.042-0.073,0.105-0.133,0.152-0.202c0.069-0.089,0.124-0.184,0.201-0.263c0.066-0.065,0.149-0.113,0.221-0.171
		c0.086-0.067,0.16-0.142,0.248-0.195h0.006L109.6,15.733c0.7-0.405,1.559-0.405,2.256,0l27.117,15.694
		c0.096,0.058,0.168,0.128,0.254,0.192c0.071,0.058,0.151,0.108,0.218,0.171c0.08,0.082,0.134,0.177,0.204,0.266
		c0.049,0.069,0.113,0.129,0.152,0.202c0.063,0.111,0.102,0.233,0.146,0.353C139.974,32.676,140.009,32.734,140.026,32.803z
		 M135.584,63.207V37.325l-9.487,5.49l-13.111,7.589v25.882l22.601-13.079H135.584L135.584,63.207z M108.468,110.025V84.128
		l-12.893,7.404l-36.824,21.125v26.146L108.468,110.025z M4.521,21.896v88.13l49.711,28.771V112.66l-25.97-14.775l-0.008-0.006
		l-0.012-0.006c-0.087-0.053-0.16-0.124-0.243-0.187c-0.07-0.058-0.151-0.104-0.213-0.165l-0.005-0.009
		c-0.075-0.068-0.126-0.158-0.188-0.239c-0.057-0.073-0.124-0.141-0.17-0.22l-0.003-0.009c-0.049-0.083-0.081-0.189-0.118-0.282
		c-0.036-0.086-0.084-0.166-0.106-0.255v-0.006c-0.029-0.105-0.035-0.223-0.046-0.333c-0.011-0.083-0.034-0.169-0.034-0.254v-0.006
		V34.977l-13.107-7.593l-9.488-5.486V21.896z M29.379,4.894L6.785,17.967l22.588,13.074l22.59-13.077L29.374,4.894H29.379z
		 M41.129,86.488L54.234,78.9V21.896l-9.489,5.492l-13.109,7.589v57.005L41.129,86.488z M110.729,20.322L88.137,33.396
		l22.592,13.073l22.586-13.076L110.729,20.322z M108.468,50.404L95.36,42.815l-9.487-5.49v25.882l13.104,7.585l9.491,5.494V50.404
		L108.468,50.404z M56.489,108.729l33.136-19.018l16.562-9.504L83.613,67.145L57.624,82.187L33.936,95.898L56.489,108.729z"/>
</g>
</svg>
