<svg xmlns="http://www.w3.org/2000/svg" x="0px" y="0px" width="100px" height="100px" viewBox="0 0 100 100" enable-background="new 0 0 100 100" xml:space="preserve">
<path d="M85.207,85.207H70.39V62.002c0-5.532-0.099-12.655-7.705-12.655c-7.719,0-8.898,6.028-8.898,12.254v23.606H38.968V37.488
	h14.225v6.521h0.199c2.896-4.951,8.301-7.921,14.035-7.707c15.018,0,17.786,9.877,17.786,22.729L85.207,85.207z M22.249,30.965
	c-0.001,0-0.001,0-0.002,0c-4.717,0-8.6-3.881-8.6-8.6c0-4.717,3.883-8.598,8.6-8.598s8.598,3.881,8.6,8.596v0.002
	C30.847,27.082,26.965,30.965,22.249,30.965 M29.658,85.207H14.825V37.488h14.833V85.207z M92.593,0.008H7.379
	c-4-0.047-7.33,3.207-7.379,7.207v85.57c0.047,4.002,3.377,7.258,7.379,7.215h85.214c4.012,0.051,7.354-3.205,7.407-7.215V7.209
	C99.946,3.201,96.601-0.053,92.593,0"/>
</svg>
