<?xml version="1.0" encoding="utf-8"?>
<!-- Generator: Adobe Illustrator 16.0.0, SVG Export Plug-In . SVG Version: 6.00 Build 0)  -->
<!DOCTYPE svg PUBLIC "-//W3C//DTD SVG 1.1//EN" "http://www.w3.org/Graphics/SVG/1.1/DTD/svg11.dtd">
<svg version="1.1" id="Layer_1" xmlns="http://www.w3.org/2000/svg" xmlns:xlink="http://www.w3.org/1999/xlink" x="0px" y="0px"
	 width="100px" height="100px" viewBox="0 0 100 100" enable-background="new 0 0 100 100" xml:space="preserve">
<path d="M53.265,96.511c13.336-15.043,34.908-38.314,34.908-56.197C88.172,19.029,71.142,2,50.14,2
	C28.858,2,11.828,19.029,11.828,40.313c0,17.883,21.572,41.152,34.908,56.197C48.439,98.497,51.561,98.497,53.265,96.511
	L53.265,96.511z M50.143,22.152c9.931,0,18.162,7.947,18.162,18.164c0,9.933-8.231,18.162-18.162,18.162
	c-10.217,0-18.448-8.229-18.448-18.162C31.695,30.1,39.926,22.152,50.143,22.152z"/>
</svg>
