<?xml version="1.0" encoding="utf-8"?>
<!-- Generator: Adobe Illustrator 16.0.0, SVG Export Plug-In . SVG Version: 6.00 Build 0)  -->
<!DOCTYPE svg PUBLIC "-//W3C//DTD SVG 1.1//EN" "http://www.w3.org/Graphics/SVG/1.1/DTD/svg11.dtd">
<svg version="1.1" xmlns="http://www.w3.org/2000/svg" xmlns:xlink="http://www.w3.org/1999/xlink" x="0px" y="0px" width="528px"
	 height="360px" viewBox="0 0.001 528 360" enable-background="new 0 0.001 528 360" xml:space="preserve">
<g id="color">
	<path fill="#00758F" d="M126.943,327.961h-20.372c-0.717-34.522-2.702-66.984-5.948-97.394h-0.18l-31.018,97.394H53.914
		l-30.83-97.394h-0.182c-2.288,29.204-3.727,61.666-4.327,97.394H0c1.2-43.45,4.204-84.182,9.012-122.201h25.25l29.392,89.789h0.18
		l29.572-89.789h24.16c5.29,44.528,8.414,85.271,9.374,122.201"/>
	<path fill="#00758F" d="M215.314,237.802c-8.296,45.192-19.239,78.032-32.821,98.52C171.909,352.109,160.316,360,147.691,360
		c-3.365,0-7.516-1.018-12.44-3.04v-10.894c2.406,0.354,5.229,0.543,8.476,0.543c5.889,0,10.636-1.636,14.247-4.897
		c4.324-3.973,6.488-8.44,6.488-13.391c0-3.381-1.688-10.319-5.049-20.814l-22.357-69.705h20.014l16.046,52.133
		c3.605,11.836,5.109,20.099,4.507,24.809c8.777-23.534,14.908-49.183,18.396-76.941H215.314"/>
	<path fill="#F29111" d="M304.555,294.089c0,10.363-3.792,18.871-11.354,25.528c-7.567,6.627-17.732,9.949-30.461,9.949
		c-11.906,0-23.445-3.823-34.622-11.41l5.229-10.495c9.618,4.826,18.323,7.236,26.139,7.236c7.329,0,13.068-1.638,17.219-4.874
		c4.143-3.259,6.624-7.806,6.624-13.571c0-7.256-5.04-13.458-14.287-18.662c-8.538-4.703-25.601-14.522-25.601-14.522
		c-9.245-6.771-13.88-14.035-13.88-26.006c0-9.899,3.456-17.898,10.36-23.987c6.919-6.1,15.847-9.151,26.778-9.151
		c11.3,0,21.576,3.027,30.83,9.062l-4.701,10.487c-7.919-3.37-15.729-5.062-23.426-5.062c-6.247,0-11.062,1.506-14.418,4.535
		c-3.375,3.003-5.461,6.867-5.461,11.578c0,7.235,5.15,13.515,14.659,18.817c8.645,4.706,26.125,14.717,26.125,14.717
		C299.818,275.015,304.555,282.222,304.555,294.089"/>
	<path fill="#F29111" d="M340.974,303.517c-4.929-7.968-7.4-20.749-7.4-38.377c0-30.771,9.321-46.166,27.952-46.166
		c9.74,0,16.89,3.683,21.461,11.04c4.925,7.969,7.394,20.641,7.394,38.021c0,31.018-9.319,46.533-27.95,46.533
		C352.692,314.568,345.542,310.888,340.974,303.517 M413.461,330.91l-22.373-11.077c1.991-1.64,3.883-3.409,5.597-5.458
		c9.499-11.212,14.252-27.805,14.252-49.776c0-40.428-15.809-60.652-47.423-60.652c-15.508,0-27.593,5.127-36.246,15.395
		c-9.503,11.226-14.248,27.757-14.248,49.602c0,21.479,4.206,37.238,12.62,47.248c7.667,9.048,19.262,13.579,34.785,13.579
		c5.792,0,11.104-0.716,15.934-2.147l29.137,17.021l7.944-13.735"/>
	<path fill="#F29111" d="M486.496,327.961h-57.879V205.76h19.476v107.169h38.403V327.961"/>
	<path fill="#F29111" d="M500.383,327.95h3.229v-12.435h4.222v-2.538h-11.837v2.538h4.387V327.95L500.383,327.95z M524.942,327.95
		h3.039v-14.973h-4.575l-3.722,10.205l-4.055-10.205h-4.408v14.973h2.878v-11.396h0.164l4.246,11.396h2.192l4.24-11.396V327.95"/>
	<path fill="#00758F" d="M510.942,164.827c-11.772-0.296-20.886,0.884-28.532,4.135c-2.206,0.884-5.731,0.884-6.034,3.69
		c1.185,1.179,1.325,3.098,2.364,4.728c1.759,2.953,4.841,6.934,7.642,9.007c3.09,2.363,6.178,4.718,9.416,6.784
		c5.734,3.559,12.206,5.616,17.786,9.162c3.247,2.063,6.47,4.719,9.716,6.939c1.613,1.182,2.634,3.104,4.701,3.833v-0.446
		c-1.037-1.325-1.326-3.245-2.35-4.73c-1.469-1.463-2.941-2.801-4.416-4.271c-4.267-5.759-9.567-10.773-15.29-14.908
		c-4.711-3.256-15.01-7.687-16.914-13.134c0,0-0.154-0.156-0.298-0.302c3.236-0.3,7.064-1.483,10.152-2.379
		c4.992-1.324,9.552-1.024,14.698-2.35c2.356-0.596,4.711-1.339,7.075-2.065v-1.337c-2.662-2.652-4.567-6.2-7.359-8.709
		c-7.495-6.494-15.74-12.839-24.269-18.162c-4.565-2.954-10.447-4.863-15.305-7.38c-1.756-0.888-4.692-1.325-5.729-2.81
		c-2.648-3.248-4.123-7.524-6.031-11.369c-4.262-8.112-8.388-17.116-12.057-25.693c-2.646-5.754-4.265-11.509-7.501-16.828
		c-15.155-25.105-31.622-40.305-56.918-55.221c-5.441-3.104-11.91-4.432-18.818-6.057c-3.683-0.154-7.356-0.442-11.032-0.586
		c-2.356-1.038-4.713-3.846-6.77-5.174c-8.386-5.313-29.996-16.827-36.178-1.621c-3.972,9.603,5.883,19.048,9.268,23.922
		c2.498,3.392,5.738,7.237,7.494,11.071c1.031,2.511,1.327,5.173,2.36,7.827c2.351,6.495,4.553,13.732,7.648,19.789
		c1.611,3.102,3.374,6.354,5.432,9.146c1.188,1.635,3.24,2.364,3.683,5.029c-2.051,2.95-2.21,7.378-3.386,11.072
		c-5.291,16.686-3.237,37.355,4.267,49.608c2.348,3.691,7.943,11.814,15.444,8.707c6.618-2.653,5.147-11.07,7.058-18.447
		c0.44-1.785,0.145-2.956,1.024-4.136v0.299c2.06,4.128,4.124,8.104,6.034,12.253c4.564,7.228,12.499,14.759,19.123,19.774
		c3.52,2.668,6.317,7.237,10.728,8.868v-0.447h-0.289c-0.885-1.325-2.206-1.92-3.384-2.949c-2.646-2.658-5.581-5.909-7.648-8.86
		c-6.175-8.266-11.624-17.425-16.465-26.873c-2.359-4.587-4.416-9.604-6.329-14.178c-0.879-1.763-0.879-4.428-2.354-5.313
		c-2.213,3.245-5.439,6.054-7.055,10.029c-2.797,6.356-3.089,14.179-4.126,22.304c-0.585,0.154-0.29,0-0.585,0.293
		c-4.7-1.179-6.318-6.052-8.088-10.172c-4.412-10.497-5.153-27.329-1.323-39.438c1.025-3.095,5.45-12.84,3.678-15.793
		c-0.891-2.817-3.829-4.426-5.443-6.65c-1.907-2.804-3.979-6.341-5.288-9.448c-3.531-8.266-5.308-17.424-9.119-25.689
		c-1.767-3.846-4.862-7.833-7.353-11.37c-2.8-3.987-5.887-6.792-8.095-11.511c-0.729-1.628-1.761-4.287-0.587-6.054
		c0.288-1.183,0.885-1.628,2.064-1.925c1.899-1.624,7.349,0.439,9.257,1.325c5.445,2.209,10.005,4.288,14.557,7.383
		c2.063,1.479,4.268,4.284,6.911,5.028h3.096c4.702,1.025,10.001,0.287,14.416,1.621c7.791,2.509,14.848,6.2,21.177,10.188
		c19.259,12.256,35.144,29.683,45.875,50.498c1.767,3.392,2.511,6.496,4.123,10.032c3.091,7.25,6.919,14.632,10.001,21.712
		c3.085,6.94,6.031,14.021,10.45,19.789c2.2,3.095,11.026,4.72,14.998,6.346c2.937,1.324,7.501,2.507,10.149,4.129
		c5.001,3.095,9.99,6.645,14.704,10.045c2.346,1.773,9.703,5.46,10.146,8.418"/>
	<path fill="#00758F" d="M360.927,36.501c-2.494,0-4.253,0.303-6.028,0.741v0.297h0.284c1.188,2.356,3.25,3.994,4.708,6.057
		c1.186,2.363,2.216,4.716,3.391,7.082c0.145-0.145,0.287-0.299,0.287-0.299c2.072-1.471,3.101-3.83,3.101-7.379
		c-0.891-1.041-1.028-2.067-1.77-3.104C364.02,38.422,362.107,37.684,360.927,36.501"/>
</g>
<g id="mask">
	<path fill="#FFFFFF" d="M126.943,327.961h-20.372c-0.717-34.522-2.702-66.984-5.948-97.394h-0.18l-31.018,97.394H53.914
		l-30.83-97.394h-0.182c-2.288,29.204-3.727,61.666-4.327,97.394H0c1.2-43.45,4.204-84.182,9.012-122.201h25.25l29.392,89.789h0.18
		l29.572-89.789h24.16c5.29,44.528,8.414,85.271,9.374,122.201"/>
	<path fill="#FFFFFF" d="M215.314,237.802c-8.296,45.192-19.239,78.032-32.821,98.52C171.909,352.109,160.316,360,147.691,360
		c-3.365,0-7.516-1.018-12.44-3.04v-10.894c2.406,0.354,5.229,0.543,8.476,0.543c5.889,0,10.636-1.636,14.247-4.897
		c4.324-3.973,6.488-8.44,6.488-13.391c0-3.381-1.688-10.319-5.049-20.814l-22.357-69.705h20.014l16.046,52.133
		c3.605,11.836,5.109,20.099,4.507,24.809c8.777-23.534,14.908-49.183,18.396-76.941H215.314"/>
	<path fill="#FFFFFF" d="M304.555,294.089c0,10.363-3.792,18.871-11.354,25.528c-7.567,6.627-17.732,9.949-30.461,9.949
		c-11.906,0-23.445-3.823-34.622-11.41l5.229-10.495c9.618,4.826,18.323,7.236,26.139,7.236c7.329,0,13.068-1.638,17.219-4.874
		c4.143-3.259,6.624-7.806,6.624-13.571c0-7.256-5.04-13.458-14.287-18.662c-8.538-4.703-25.601-14.522-25.601-14.522
		c-9.245-6.771-13.88-14.035-13.88-26.006c0-9.899,3.456-17.898,10.36-23.987c6.919-6.1,15.847-9.151,26.778-9.151
		c11.3,0,21.576,3.027,30.83,9.062l-4.701,10.487c-7.919-3.37-15.729-5.062-23.426-5.062c-6.247,0-11.062,1.506-14.418,4.535
		c-3.375,3.003-5.461,6.867-5.461,11.578c0,7.235,5.15,13.515,14.659,18.817c8.645,4.706,26.125,14.717,26.125,14.717
		C299.818,275.015,304.555,282.222,304.555,294.089"/>
	<path fill="#FFFFFF" d="M340.974,303.517c-4.929-7.968-7.4-20.749-7.4-38.377c0-30.771,9.321-46.166,27.952-46.166
		c9.74,0,16.89,3.683,21.461,11.04c4.925,7.969,7.394,20.641,7.394,38.021c0,31.018-9.319,46.533-27.95,46.533
		C352.692,314.568,345.542,310.888,340.974,303.517 M413.461,330.91l-22.373-11.077c1.991-1.64,3.883-3.409,5.597-5.458
		c9.499-11.212,14.252-27.805,14.252-49.776c0-40.428-15.809-60.652-47.423-60.652c-15.508,0-27.593,5.127-36.246,15.395
		c-9.503,11.226-14.248,27.757-14.248,49.602c0,21.479,4.206,37.238,12.62,47.248c7.667,9.048,19.262,13.579,34.785,13.579
		c5.792,0,11.104-0.716,15.934-2.147l29.137,17.021l7.944-13.735"/>
	<path fill="#FFFFFF" d="M486.496,327.961h-57.879V205.76h19.476v107.169h38.403V327.961"/>
	<path fill="#FFFFFF" d="M500.383,327.95h3.229v-12.435h4.222v-2.538h-11.837v2.538h4.387V327.95L500.383,327.95z M524.942,327.95
		h3.039v-14.973h-4.575l-3.722,10.205l-4.055-10.205h-4.408v14.973h2.878v-11.396h0.164l4.246,11.396h2.192l4.24-11.396V327.95"/>
	<path fill="#FFFFFF" d="M510.942,164.827c-11.772-0.296-20.886,0.884-28.532,4.135c-2.206,0.884-5.731,0.884-6.034,3.69
		c1.185,1.179,1.325,3.098,2.364,4.728c1.759,2.953,4.841,6.934,7.642,9.007c3.09,2.363,6.178,4.718,9.416,6.784
		c5.734,3.559,12.206,5.616,17.786,9.162c3.247,2.063,6.47,4.719,9.716,6.939c1.613,1.182,2.634,3.104,4.701,3.833v-0.446
		c-1.037-1.325-1.326-3.245-2.35-4.73c-1.469-1.463-2.941-2.801-4.416-4.271c-4.267-5.759-9.567-10.773-15.29-14.908
		c-4.711-3.256-15.01-7.687-16.914-13.134c0,0-0.154-0.156-0.298-0.302c3.236-0.3,7.064-1.483,10.152-2.379
		c4.992-1.324,9.552-1.024,14.698-2.35c2.356-0.596,4.711-1.339,7.075-2.065v-1.337c-2.662-2.652-4.567-6.2-7.359-8.709
		c-7.495-6.494-15.74-12.839-24.269-18.162c-4.565-2.954-10.447-4.863-15.305-7.38c-1.756-0.888-4.692-1.325-5.729-2.81
		c-2.648-3.248-4.123-7.524-6.031-11.369c-4.262-8.112-8.388-17.116-12.057-25.693c-2.646-5.754-4.265-11.509-7.501-16.828
		c-15.155-25.105-31.622-40.305-56.918-55.221c-5.441-3.104-11.91-4.432-18.818-6.057c-3.683-0.154-7.356-0.442-11.032-0.586
		c-2.356-1.038-4.713-3.846-6.77-5.174c-8.386-5.313-29.996-16.827-36.178-1.621c-3.972,9.603,5.883,19.048,9.268,23.922
		c2.498,3.392,5.738,7.237,7.494,11.071c1.031,2.511,1.327,5.173,2.36,7.827c2.351,6.495,4.553,13.732,7.648,19.789
		c1.611,3.102,3.374,6.354,5.432,9.146c1.188,1.635,3.24,2.364,3.683,5.029c-2.051,2.95-2.21,7.378-3.386,11.072
		c-5.291,16.686-3.237,37.355,4.267,49.608c2.348,3.691,7.943,11.814,15.444,8.707c6.618-2.653,5.147-11.07,7.058-18.447
		c0.44-1.785,0.145-2.956,1.024-4.136v0.299c2.06,4.128,4.124,8.104,6.034,12.253c4.564,7.228,12.499,14.759,19.123,19.774
		c3.52,2.668,6.317,7.237,10.728,8.868v-0.447h-0.289c-0.885-1.325-2.206-1.92-3.384-2.949c-2.646-2.658-5.581-5.909-7.648-8.86
		c-6.175-8.266-11.624-17.425-16.465-26.873c-2.359-4.587-4.416-9.604-6.329-14.178c-0.879-1.763-0.879-4.428-2.354-5.313
		c-2.213,3.245-5.439,6.054-7.055,10.029c-2.797,6.356-3.089,14.179-4.126,22.304c-0.585,0.154-0.29,0-0.585,0.293
		c-4.7-1.179-6.318-6.052-8.088-10.172c-4.412-10.497-5.153-27.329-1.323-39.438c1.025-3.095,5.45-12.84,3.678-15.793
		c-0.891-2.817-3.829-4.426-5.443-6.65c-1.907-2.804-3.979-6.341-5.288-9.448c-3.531-8.266-5.308-17.424-9.119-25.689
		c-1.767-3.846-4.862-7.833-7.353-11.37c-2.8-3.987-5.887-6.792-8.095-11.511c-0.729-1.628-1.761-4.287-0.587-6.054
		c0.288-1.183,0.885-1.628,2.064-1.925c1.899-1.624,7.349,0.439,9.257,1.325c5.445,2.209,10.005,4.288,14.557,7.383
		c2.063,1.479,4.268,4.284,6.911,5.028h3.096c4.702,1.025,10.001,0.287,14.416,1.621c7.791,2.509,14.848,6.2,21.177,10.188
		c19.259,12.256,35.144,29.683,45.875,50.498c1.767,3.392,2.511,6.496,4.123,10.032c3.091,7.25,6.919,14.632,10.001,21.712
		c3.085,6.94,6.031,14.021,10.45,19.789c2.2,3.095,11.026,4.72,14.998,6.346c2.937,1.324,7.501,2.507,10.149,4.129
		c5.001,3.095,9.99,6.645,14.704,10.045c2.346,1.773,9.703,5.46,10.146,8.418"/>
	<path fill="#FFFFFF" d="M360.927,36.501c-2.494,0-4.253,0.303-6.028,0.741v0.297h0.284c1.188,2.356,3.25,3.994,4.708,6.057
		c1.186,2.363,2.216,4.716,3.391,7.082c0.145-0.145,0.287-0.299,0.287-0.299c2.072-1.471,3.101-3.83,3.101-7.379
		c-0.891-1.041-1.028-2.067-1.77-3.104C364.02,38.422,362.107,37.684,360.927,36.501"/>
</g>
</svg>