<?xml version="1.0" encoding="utf-8"?>
<!-- Generator: Adobe Illustrator 16.0.0, SVG Export Plug-In . SVG Version: 6.00 Build 0)  -->
<!DOCTYPE svg PUBLIC "-//W3C//DTD SVG 1.1//EN" "http://www.w3.org/Graphics/SVG/1.1/DTD/svg11.dtd">
<svg version="1.1" xmlns="http://www.w3.org/2000/svg" xmlns:xlink="http://www.w3.org/1999/xlink" x="0px" y="0px" width="528px"
	 height="514px" viewBox="1034.5 1435.5 528 514" enable-background="new 1034.5 1435.5 528 514" xml:space="preserve">
<g id="color">
	
		<radialGradient id="square_1_" cx="850.5532" cy="1106.5264" r="0.1606" gradientTransform="matrix(2291.6716 0 0 -2215.3037 -1947973.75 2452854)" gradientUnits="userSpaceOnUse">
		<stop  offset="0" style="stop-color:#34364E;stop-opacity:0.98"/>
		<stop  offset="1" style="stop-color:#0C0824"/>
	</radialGradient>
	<path id="square" fill="url(#square_1_)" d="M1056.5,1457.466h484v470.067h-484V1457.466z"/>
	<path id="text" fill="#31C5F0" d="M1056.5,1457.466h484v470.067h-484V1457.466z M1034.5,1949.5h528v-514h-528V1949.5z
		 M1390.46,1646.372c-17.38,0-23.319,8.786-23.319,16.034c0,7.907,3.959,13.399,27.28,25.48
		c34.539,16.694,45.319,32.729,45.319,56.233c0,35.145-26.84,54.034-63.14,54.034c-19.141,0-35.641-3.953-45.101-9.443
		c-1.54-0.659-1.76-1.758-1.76-3.516v-32.29c0-2.196,1.1-2.856,2.641-1.757c13.859,9.007,29.699,12.96,44.22,12.96
		c17.38,0,24.64-7.249,24.64-17.134c0-7.907-5.06-14.937-27.28-26.359c-31.24-14.937-44.22-30.093-44.22-55.354
		c0-28.336,22.221-51.839,60.72-51.839c18.92,0,32.12,2.856,39.38,6.15c1.76,1.099,2.2,2.855,2.2,4.393v30.093
		c0,1.757-1.101,2.856-3.301,2.196C1419.06,1650.106,1404.76,1646.372,1390.46,1646.372L1390.46,1646.372z M1201.26,1672.511
		c5.06,0.439,9.021,0.439,17.82,0.439c25.741,0,49.94-9.006,49.94-43.932c0-27.896-17.381-41.955-46.64-41.955
		c-8.799,0-17.16,0.44-21.121,0.659V1672.511z M1162.101,1555.872c0-1.538,3.081-2.637,4.839-2.637
		c14.081-0.658,34.98-1.098,56.76-1.098c60.939,0,84.699,33.389,84.699,76.002c0,55.793-40.479,79.735-90.199,79.735
		c-8.36,0-11.219-0.439-17.16-0.439v84.35c0,1.757-0.66,2.635-2.64,2.635h-33.66c-1.76,0-2.641-0.659-2.641-2.635L1162.101,1555.872
		L1162.101,1555.872z"/>
</g>
<g id="mask">
	<path id="white" fill="#FFFFFF" d="M1056.5,1457.466h484v470.067h-484V1457.466z M1034.5,1949.5h528v-514h-528V1949.5z
		 M1390.46,1646.372c-17.38,0-23.319,8.786-23.319,16.034c0,7.907,3.959,13.399,27.28,25.48
		c34.539,16.694,45.319,32.729,45.319,56.233c0,35.145-26.84,54.034-63.14,54.034c-19.141,0-35.641-3.953-45.101-9.443
		c-1.54-0.659-1.76-1.758-1.76-3.516v-32.29c0-2.196,1.1-2.856,2.641-1.757c13.859,9.007,29.699,12.96,44.22,12.96
		c17.38,0,24.64-7.249,24.64-17.134c0-7.907-5.06-14.937-27.28-26.359c-31.24-14.937-44.22-30.093-44.22-55.354
		c0-28.336,22.221-51.839,60.72-51.839c18.92,0,32.12,2.856,39.38,6.15c1.76,1.099,2.2,2.855,2.2,4.393v30.093
		c0,1.757-1.101,2.856-3.301,2.196C1419.06,1650.106,1404.76,1646.372,1390.46,1646.372L1390.46,1646.372z M1201.26,1672.511
		c5.06,0.439,9.021,0.439,17.82,0.439c25.741,0,49.94-9.006,49.94-43.932c0-27.896-17.381-41.955-46.64-41.955
		c-8.799,0-17.16,0.44-21.121,0.659V1672.511z M1162.101,1555.872c0-1.538,3.081-2.637,4.839-2.637
		c14.081-0.658,34.98-1.098,56.76-1.098c60.939,0,84.699,33.389,84.699,76.002c0,55.793-40.479,79.735-90.199,79.735
		c-8.36,0-11.219-0.439-17.16-0.439v84.35c0,1.757-0.66,2.635-2.64,2.635h-33.66c-1.76,0-2.641-0.659-2.641-2.635L1162.101,1555.872
		L1162.101,1555.872z"/>
</g>
</svg>