<?xml version="1.0" encoding="utf-8"?>
<!-- Generator: Adobe Illustrator 16.0.0, SVG Export Plug-In . SVG Version: 6.00 Build 0)  -->
<!DOCTYPE svg PUBLIC "-//W3C//DTD SVG 1.1//EN" "http://www.w3.org/Graphics/SVG/1.1/DTD/svg11.dtd">
<svg version="1.1" xmlns="http://www.w3.org/2000/svg" xmlns:xlink="http://www.w3.org/1999/xlink" x="0px" y="0px" width="528px"
	 height="275px" viewBox="0 0 528 275" enable-background="new 0 0 528 275" xml:space="preserve">
<g id="color">
	<ellipse fill="#8993BE" cx="264" cy="137.5" rx="264" ry="137.5"/>
	<path fill="#232531" d="M169.971,72.368h-66.901L74.137,218.915h34.357l7.233-37.994h32.544c30.742,1.81,65.097-23.52,65.097-66.94
		C213.368,88.65,198.902,74.178,169.971,72.368z M144.658,153.784H122.96h-0.002L132,99.506h23.506
		c12.658,0,21.697,5.427,21.697,16.282C175.397,146.547,160.931,151.974,144.658,153.784z"/>
	<path fill="#232531" d="M206.646,180.921l28.931-146.545h34.357l-7.233,37.992h32.546c28.933,1.81,39.781,16.282,36.166,34.376
		l-12.657,74.177h-36.164l12.658-66.94c1.807-9.047,1.807-14.474-10.849-14.474h-27.124l-16.273,81.415H206.646z"/>
	<path fill="#232531" d="M412.273,72.368H345.37l-28.931,146.547h34.355l7.233-37.994h32.548c30.739,1.81,65.097-23.52,65.097-66.94
		C455.673,88.65,441.207,74.178,412.273,72.368z M386.96,153.784h-21.699h-0.002l9.042-54.278h23.508
		c12.658,0,21.698,5.427,21.698,16.282C417.7,146.547,403.234,151.974,386.96,153.784z"/>
</g>
<g id="mask">
	<path fill="#FFFFFF" d="M397.809,99.506h-23.508l-9.042,54.278h0.002h21.699c16.273-1.81,30.74-7.237,32.546-37.996
		C419.507,104.934,410.467,99.506,397.809,99.506z"/>
	<path fill="#FFFFFF" d="M264,0C118.197,0,0,61.561,0,137.5S118.197,275,264,275c145.803,0,264-61.561,264-137.5S409.804,0,264,0z
		 M148.271,180.921h-32.544l-7.233,37.994H74.137l28.933-146.547h66.901c28.931,1.81,43.397,16.282,43.397,41.613
		C213.368,157.401,179.013,182.731,148.271,180.921z M284.401,99.506h-27.124l-16.273,81.415h-34.357l28.931-146.545h34.357
		l-7.233,37.992h32.546c28.933,1.81,39.781,16.282,36.166,34.376l-12.657,74.177h-36.164l12.658-66.94
		C297.056,104.934,297.056,99.506,284.401,99.506z M390.576,180.921h-32.548l-7.233,37.994h-34.355L345.37,72.368h66.903
		c28.933,1.81,43.399,16.282,43.399,41.613C455.673,157.401,421.315,182.731,390.576,180.921z"/>
	<path fill="#FFFFFF" d="M155.506,99.506H132l-9.042,54.278h0.002h21.698c16.273-1.81,30.739-7.237,32.546-37.996
		C177.204,104.934,168.164,99.506,155.506,99.506z"/>
</g>
</svg>