<svg version="1.1" id="php" xmlns="http://www.w3.org/2000/svg" xmlns:xlink="http://www.w3.org/1999/xlink" x="0px" y="0px"
	 viewBox="0.5 1296.5 1295.998 652.274"
	 enable-background="new 0.5 1296.5 1295.998 652.274" xml:space="preserve">
<path fill="#FFFFFF" d="M953.287,1434.559h192.203c56.413,0.481,97.302,16.731,122.63,48.771
	c25.348,32.026,33.706,75.779,25.109,131.24c-3.35,25.336-10.757,50.207-22.232,74.589c-11.001,24.382-26.307,46.373-45.897,65.978
	c-23.905,24.87-49.486,40.645-76.738,47.334c-27.253,6.695-55.461,10.041-84.627,10.041h-86.07l-27.246,136.264h-99.686
	L953.287,1434.559L953.287,1434.559 M1037.205,1516.319l-43.031,215.148c2.87,0.475,5.738,0.715,8.599,0.715
	c3.348,0,6.691,0,10.04,0c45.899,0.476,84.148-4.063,114.75-13.632c30.594-10.035,51.157-44.942,61.668-104.706
	c8.605-50.2,0-79.127-25.811-86.777c-25.336-7.651-57.129-11.238-95.383-10.757c-5.746,0.475-11.238,0.715-16.498,0.715
	c-4.785,0-9.796,0-15.058,0L1037.205,1516.319"/>
<path fill="#FFFFFF" d="M555.476,1296.5h98.969l-27.97,136.979h88.938c48.763,0.955,85.1,10.999,109.005,30.121
	c24.382,19.129,31.556,55.467,21.522,109.016l-48.061,238.815H697.474l45.9-228.059c4.773-23.907,3.348-40.881-4.303-50.922
	c-7.653-10.042-24.143-15.063-49.486-15.063l-79.606-0.715l-58.809,294.765h-98.969L555.476,1296.5L555.476,1296.5"/>
<path fill="#FFFFFF" d="M103.057,1434.559H295.26c56.419,0.481,97.297,16.731,122.636,48.771
	c25.343,32.026,33.707,75.779,25.102,131.24c-3.349,25.336-10.757,50.207-22.231,74.589c-10.994,24.382-26.3,46.373-45.899,65.978
	c-23.905,24.87-49.483,40.645-76.739,47.334c-27.252,6.695-55.466,10.041-84.626,10.041h-86.063l-27.253,136.264H0.5
	L103.057,1434.559L103.057,1434.559 M186.964,1516.319l-43.027,215.148c2.866,0.475,5.737,0.715,8.605,0.715
	c3.348,0,6.689,0,10.04,0c45.898,0.476,84.151-4.063,114.748-13.632c30.594-10.035,51.164-44.942,61.677-104.706
	c8.599-50.2,0-79.127-25.818-86.777c-25.337-7.651-57.13-11.238-95.384-10.757c-5.737,0.475-11.238,0.715-16.494,0.715
	c-4.785,0-9.807,0-15.062,0L186.964,1516.319"/>
</svg>
