<?xml version="1.0" encoding="utf-8"?>
<!-- Generator: Adobe Illustrator 16.0.0, SVG Export Plug-In . SVG Version: 6.00 Build 0)  -->
<!DOCTYPE svg PUBLIC "-//W3C//DTD SVG 1.1//EN" "http://www.w3.org/Graphics/SVG/1.1/DTD/svg11.dtd">
<svg version="1.1" xmlns="http://www.w3.org/2000/svg" xmlns:xlink="http://www.w3.org/1999/xlink" x="0px" y="0px" width="528px"
	 height="528px" viewBox="1034.5 1466.5 528 528" enable-background="new 1034.5 1466.5 528 528" xml:space="preserve">
<g id="color">
	<linearGradient id="topleft" gradientUnits="userSpaceOnUse" x1="1103.0894" y1="1875.1797" x2="1219.7953" y2="1492.3997">
		<stop  offset="0" style="stop-color:#765AF8"/>
		<stop  offset="0.4" style="stop-color:#B345F1"/>
		<stop  offset="1" style="stop-color:#FE318E"/>
	</linearGradient>
	<polygon id="topleft" fill="url(#topleft)" points="1333.197,1581.151 1308.306,1505.723 1124.26,1466.5 1034.5,1568.328 
		1085.037,1870.797 1245.7,1869.289 1242.188,1674.406 1315.094,1711.643 	"/>
	<linearGradient id="topright" gradientUnits="userSpaceOnUse" x1="1308.3486" y1="1515.6318" x2="1386.3781" y2="1748.1482">
		<stop  offset="0.709" style="stop-color:#B345F1"/>
		<stop  offset="1" style="stop-color:#765AF8"/>
	</linearGradient>
	<path id="topright" fill="url(#topright)" d="M1201.197,1775.758l9.806-145.578l149.349-132l133.508,24.137l68.641,171.224
		l-71.657,70.903l-116.914-18.857l-72.411,76.183L1201.197,1775.758z"/>
	<linearGradient id="bottom" gradientUnits="userSpaceOnUse" x1="1180.5171" y1="1612.791" x2="1460.5984" y2="1920.3043">
		<stop  offset="0.6162" style="stop-color:#B345F1"/>
		<stop  offset="1" style="stop-color:#765AF8"/>
	</linearGradient>
	<path id="bottom" fill="url(#bottom)" d="M1360.352,1498.18l-214.217,190.08l41.486,244.389l178.011,61.852l196.869-117.668
		L1360.352,1498.18z"/>
	<path id="square" d="M1135.574,1567.574h325.852v325.852h-325.852V1567.574z"/>
	<path id="text" fill="#FFFFFF" d="M1166.5,1832.328h122.194v20.366H1166.5V1832.328z M1164.992,1609.814h55.063
		c32.434,0,52.045,18.857,52.045,46.766v0.754c0,31.68-24.137,47.521-55.063,47.521h-22.628v40.731h-29.417V1609.814
		L1164.992,1609.814z M1218.546,1677.7c15.085,0,23.383-9.052,23.383-20.366v-0.754c0-13.577-9.051-20.365-24.137-20.365h-22.629
		v41.485H1218.546z M1279.643,1725.975l17.35-21.12c12.068,9.806,24.891,16.595,40.73,16.595c12.068,0,19.611-4.526,19.611-12.823
		v-0.755c0-7.543-4.525-11.314-27.154-17.348c-27.154-6.789-45.257-14.332-45.257-41.486v-0.754
		c0-24.892,19.611-40.732,47.521-40.732c19.611,0,36.959,6.035,50.537,17.35l-15.84,22.628
		c-12.069-8.297-24.138-13.577-35.452-13.577s-17.349,5.28-17.349,12.068v0.755c0,9.052,6.034,12.068,29.418,18.103
		c27.154,7.543,42.994,17.349,42.994,40.731v0.755c0,27.154-20.366,42.24-49.783,42.24
		C1316.604,1747.849,1296.237,1740.306,1279.643,1725.975"/>
</g>
<g id="mask">
	<path id="white" fill="#FFFFFF" d="M1498.471,1756.896l64.029,119.937L1365.631,1994.5l-178.011-61.852l-6.658-39.223h280.464
		v-325.852h-325.852v302.748l-50.537,0.475l-50.537-302.469l89.76-101.828l184.046,39.223l9.862,29.887l42.184-37.43l133.508,24.137
		l68.641,171.224L1498.471,1756.896z M1166.5,1852.694h122.194v-20.366H1166.5V1852.694z M1279.643,1725.975
		c16.595,14.331,36.961,21.874,57.326,22.629c29.417,0,49.783-15.086,49.783-42.24v-0.755c0-23.383-15.84-33.188-42.994-40.731
		c-23.384-6.034-29.418-9.051-29.418-18.103v-0.755c0-6.788,6.034-12.068,17.349-12.068s23.383,5.28,35.452,13.577l15.84-22.628
		c-13.578-11.314-30.926-17.35-50.537-17.35c-27.909,0-47.521,15.841-47.521,40.732v0.754c0,27.154,18.103,34.697,45.257,41.486
		c22.629,6.033,27.154,9.805,27.154,17.348v0.755c0,8.297-7.543,12.823-19.611,12.823c-15.84,0-28.662-6.789-40.73-16.595
		L1279.643,1725.975 M1272.1,1656.58v0.754c0,31.68-24.137,47.521-55.063,47.521h-22.628v40.731h-29.417v-135.771h55.063
		C1252.488,1609.814,1272.1,1628.672,1272.1,1656.58z M1241.929,1656.58c0-13.577-9.051-20.365-24.137-20.365h-22.629v41.485h23.383
		c15.085,0,23.383-9.052,23.383-20.366V1656.58z"/>
</g>
</svg>