<?xml version="1.0" encoding="UTF-8"?>
<svg width="752pt" height="752pt" version="1.1" viewBox="0 0 752 752" xmlns="http://www.w3.org/2000/svg">
 <g>
  <path d="m220.81 379.98 0.046875 48.07c0 2.2266 1.4219 4.2617 3.5039 4.9727 21.5 7.625 134.45 47.832 149.89 53.324 1.1367 0.42578 2.3672 0.37891 3.5039 0l149.84-53.277c2.1328-0.75781 3.5039-2.7461 3.5508-5.0195l0.046875-48.07c0-3.6953-3.6484-6.25-7.1055-5.0195l-146.34 52.234c-1.1367 0.42578-2.4141 0.42578-3.5508 0l-146.34-52.234c-3.4023-1.2344-7.0508 1.3242-7.0508 5.0195z"/>
  <path d="m588.88 322.72-211.07-76.434c-1.1836-0.42578-2.4609-0.42578-3.5977 0l-211.08 76.434c-4.6875 1.7031-4.6406 8.3828 0.09375 9.9922l39.023 13.355c-11.887 9.5664-19.652 23.535-21.168 39.211l-2.8906 29.551c-3.6484 2.2266-6.1094 6.2031-6.1094 10.75 0 4.6406 2.5586 8.668 6.2969 10.844-0.56641 30.641-6.3945 57.066-21.832 78.945 0.37891 0.28516 0.80469 0.42578 1.2305 0.1875 0.47266-0.1875 0.85156-0.14062 1.0898 0.1875 0.37891 0.33203 0.85156 0.37891 1.375 0.23828 0.37891-0.23828 0.80469-0.37891 1.2773 0.1875 0.47266 0.47266 0.94531 0.51953 1.5156 0.23828 0.56641-0.61719 1.0898-0.42578 1.5625 0.23828 0.33203 0.47266 0.71094 0.94531 1.4219 0.23828 0.61719-0.37891 1.1367-0.23828 1.6094 0.28516 0.37891 0.61719 0.85156 0.66406 1.375 0.23828 0.42578-0.23828 0.85156-0.1875 1.1836 0.1875 0.28516 0.47266 0.51953 0.47266 0.80469 0.14062 0.42578-0.47266 0.71094-0.37891 0.94531 0.14062 0.28516 0.23828 0.61719 0.47266 0.89844 0.14062 0.47266-0.23828 0.89844-0.09375 1.3242 0.23828 0.42578 0.37891 0.80469 0.75781 1.1836 0.1875 0.61719-0.23828 1.043-0.1875 1.2305 0.1875 0.37891 0.47266 0.85156 0.56641 1.4219 0.23828 0.56641-0.14062 1.043-0.09375 1.4688 0.23828 0.37891 0.42578 0.85156 0.47266 1.3242 0.23828 0.56641-0.37891 0.99609-0.1875 1.3242 0.23828 0.33203 0.51953 0.75781 0.47266 1.2305 0.1875 14.918-8.8086 15.676-40.773 8.1914-83.684 3.4102-2.2734 5.6836-6.1094 5.6836-10.562 0-4.5-2.4141-8.4766-5.9688-10.703l2.7461-28.367c1.4688-15.156 10.512-28.227 23.867-35.094l156.23 53.469c1.1367 0.37891 2.3203 0.37891 3.457 0l211.07-72.172c4.8945-1.5547 4.9453-8.2305 0.25391-9.9375z"/>
 </g>
</svg>
