<?xml version="1.0" encoding="utf-8"?>
<!-- Generator: Adobe Illustrator 16.0.0, SVG Export Plug-In . SVG Version: 6.00 Build 0)  -->
<!DOCTYPE svg PUBLIC "-//W3C//DTD SVG 1.1//EN" "http://www.w3.org/Graphics/SVG/1.1/DTD/svg11.dtd">
<svg version="1.1" xmlns="http://www.w3.org/2000/svg" xmlns:xlink="http://www.w3.org/1999/xlink" x="0px" y="0px" width="528px"
	 height="522px" viewBox="0 0 528 522" enable-background="new 0 0 528 522" xml:space="preserve">
<g id="color">
	<path fill="#2489CA" d="M5.023,182.029c0,0-12.86-9.264,2.573-21.633l35.954-32.129c0,0,10.288-10.816,21.166-1.392
		l331.791,251.031v120.375c0,0-0.161,18.902-24.434,16.814L5.023,182.029z"/>
	<path fill="#1070B3" d="M90.543,259.62l-85.52,77.697c0,0-8.788,6.533,0,18.207l39.705,36.091c0,0,9.431,10.12,23.363-1.392
		l90.664-68.702L90.543,259.62z"/>
	<path fill="#0877B9" d="M240.685,260.262l156.84-119.679L396.507,20.85c0,0-6.698-26.132-29.042-12.529L158.755,198.146
		L240.685,260.262z"/>
	<path fill="#3C99D4" d="M372.073,515.257c9.108,9.317,20.147,6.265,20.147,6.265l122.225-60.188
		c15.646-10.656,13.45-23.882,13.45-23.882V78.039c0-15.796-16.183-21.258-16.183-21.258L405.777,5.75
		c-23.148-14.297-38.313,2.571-38.313,2.571s19.505-14.03,29.042,12.529v475.236c0,3.267-0.697,6.479-2.09,9.371
		c-2.786,5.622-8.841,10.871-23.362,8.675L372.073,515.257z"/>
</g>
<g id="mask">
	<path fill="#FFFFFF" d="M527.895,437.452V78.039c0-15.796-16.183-21.258-16.183-21.258L405.777,5.75
		c-23.148-14.297-38.313,2.571-38.313,2.571l0,0L158.828,198.08l-94.112-71.205c-10.878-9.424-21.166,1.392-21.166,1.392
		L7.596,160.396c-15.433,12.369-2.573,21.633-2.573,21.633l85.514,77.597L5.023,337.317c0,0-8.788,6.533,0,18.207l39.705,36.091
		c0,0,9.431,10.12,23.363-1.392l90.659-68.699l213.322,193.733c9.108,9.317,20.147,6.265,20.147,6.265l122.225-60.188
		C530.091,450.678,527.895,437.452,527.895,437.452z M240.85,260.137L396.507,141.36v236.546L240.85,260.137z"/>
</g>
</svg>