<?xml version="1.0" encoding="utf-8"?>
<!-- Generator: Adobe Illustrator 16.0.0, SVG Export Plug-In . SVG Version: 6.00 Build 0)  -->
<!DOCTYPE svg PUBLIC "-//W3C//DTD SVG 1.1//EN" "http://www.w3.org/Graphics/SVG/1.1/DTD/svg11.dtd">
<svg version="1.1" id="Layer_1" xmlns="http://www.w3.org/2000/svg" xmlns:xlink="http://www.w3.org/1999/xlink" x="0px" y="0px"
	 width="528px" height="138px" viewBox="0 0 528 138" enable-background="new 0 0 528 138" xml:space="preserve">
<g id="color">
	<g>
		<polygon fill="#FFFFFF" points="250.315,91.76 228.296,29.668 215.347,29.668 244.482,108.581 256.148,108.581 285.283,29.668 
			272.334,29.668 		"/>
		<path fill="#FFFFFF" d="M331.513,83.796c0,3.233-0.696,5.903-2.069,7.936c-1.395,2.063-3.126,3.61-5.145,4.598
			c-2.051,1.003-4.074,1.512-6.015,1.512c-3.243,0-5.823-1.057-7.889-3.23c-2.089-2.198-3.104-5.104-3.104-8.888V48.638H295.45
			v37.677c0,5.056,0.856,9.329,2.544,12.699c1.72,3.434,4.132,6.043,7.17,7.756c2.999,1.693,6.461,2.551,10.289,2.551
			c4.627,0,8.535-1.111,11.616-3.302c1.733-1.233,3.219-2.634,4.443-4.19v6.752h11.842V48.638h-11.842V83.796z"/>
		<path fill="#FFFFFF" d="M403.105,54.584c-2.532-2.347-5.386-4.071-8.481-5.124c-3.053-1.037-6.189-1.563-9.323-1.563
			c-5.442,0-10.279,1.348-14.375,4.007c-4.082,2.649-7.297,6.372-9.558,11.063c-2.237,4.644-3.372,10.057-3.372,16.087
			c0,6.034,1.136,11.412,3.376,15.984c2.268,4.627,5.557,8.279,9.775,10.854c4.212,2.57,9.274,3.873,15.048,3.873
			c4.045,0,7.752-0.639,11.02-1.899c3.297-1.272,6.111-3.087,8.366-5.396c2.27-2.324,3.908-5.065,4.87-8.147l0.465-1.488
			l-11.352-3.168l-0.491,1.304c-0.662,1.756-1.605,3.234-2.803,4.392c-1.2,1.161-2.647,2.042-4.304,2.62
			c-1.703,0.596-3.645,0.897-5.771,0.897c-3.264,0-6.152-0.711-8.587-2.112c-2.409-1.386-4.319-3.455-5.679-6.148
			c-1.067-2.114-1.731-4.64-1.98-7.529h41.465v-5.222c0-5.473-0.749-10.17-2.227-13.96
			C407.694,60.079,405.648,56.942,403.105,54.584z M377.085,61.098c2.277-1.536,5.041-2.314,8.216-2.314
			c2.874,0,5.392,0.658,7.481,1.956c2.097,1.302,3.74,3.106,4.886,5.363c0.962,1.895,1.532,4.041,1.701,6.396h-29.318
			c0.281-1.846,0.844-3.621,1.678-5.295C372.969,64.713,374.771,62.658,377.085,61.098z"/>
		<path fill="#FFFFFF" d="M431.806,92.802c-2.247,0-4.202,0.81-5.81,2.408c-1.606,1.598-2.421,3.542-2.421,5.778
			c0,2.237,0.814,4.181,2.421,5.778c1.606,1.598,3.561,2.408,5.81,2.408c1.519,0,2.918-0.379,4.161-1.127
			c1.216-0.731,2.206-1.723,2.941-2.947c0.749-1.247,1.129-2.63,1.129-4.112c0-2.235-0.814-4.179-2.422-5.778
			C436.008,93.611,434.054,92.802,431.806,92.802z"/>
		<path fill="#FFFFFF" d="M466.19,29.455c-1.517-1.432-3.354-2.159-5.464-2.159s-3.948,0.727-5.465,2.159
			c-1.539,1.453-2.319,3.231-2.319,5.286c0,2.055,0.78,3.833,2.319,5.287c1.516,1.432,3.354,2.158,5.465,2.158
			c2.109,0,3.948-0.726,5.464-2.158c1.539-1.453,2.319-3.231,2.319-5.287C468.51,32.687,467.729,30.908,466.19,29.455z"/>
		<path fill="#FFFFFF" d="M454.88,111.213c0,2.527-0.517,4.462-1.535,5.749c-0.946,1.194-2.479,1.774-4.688,1.774h-3.164v11.184
			h3.313c3.934,0,7.27-0.78,9.916-2.319c2.683-1.56,4.718-3.792,6.051-6.634c1.294-2.76,1.95-6.042,1.95-9.755V48.638H454.88
			V111.213z"/>
		<path fill="#FFFFFF" d="M523.799,80.379c-2.699-2.724-6.792-4.763-12.16-6.058l-8.487-2.074c-3.148-0.782-5.46-1.746-6.87-2.864
			c-1.218-0.965-1.811-2.262-1.811-3.964c0-1.933,0.924-3.505,2.824-4.809c2.053-1.408,4.7-2.122,7.871-2.122
			c2.307,0,4.195,0.357,5.613,1.063c1.422,0.707,2.553,1.601,3.362,2.656c0.862,1.125,1.523,2.286,1.966,3.452l0.495,1.302
			l10.784-3.036l-0.509-1.508c-1.458-4.323-3.958-7.857-7.429-10.502c-3.499-2.666-8.305-4.018-14.283-4.018
			c-4.221,0-8.059,0.754-11.408,2.244c-3.396,1.51-6.118,3.631-8.094,6.304c-2.014,2.725-3.035,5.894-3.035,9.419
			c0,4.307,1.373,7.952,4.08,10.835c2.644,2.816,6.779,4.903,12.297,6.203l9.539,2.223c2.593,0.6,4.508,1.485,5.69,2.63
			c1.094,1.059,1.625,2.333,1.625,3.896c0,1.947-0.981,3.599-3.001,5.051c-2.145,1.542-5.135,2.324-8.886,2.324
			c-3.269,0-5.916-0.682-7.868-2.027c-1.93-1.33-3.211-3.3-3.918-6.023l-0.378-1.457l-11.236,2.793l0.3,1.428
			c1.099,5.224,3.762,9.26,7.916,11.996c4.061,2.675,9.22,4.031,15.334,4.031c4.639,0,8.783-0.792,12.316-2.353
			c3.586-1.585,6.431-3.796,8.457-6.572c2.06-2.821,3.104-6.063,3.104-9.635C528,86.836,526.587,83.193,523.799,80.379z"/>
	</g>
	<g>
		<path fill="#41B883" d="M128.818,0h32.205L80.511,138L0,0h61.591l18.92,32L99.029,0H128.818z"/>
		<path fill="#35495E" d="M31.802,0l48.709,83.2L128.818,0H99.029L80.511,32L61.591,0H31.802z"/>
	</g>
</g>
<g id="mask">
	<g>
		<polygon fill="#FFFFFF" points="250.315,91.76 228.296,29.668 215.347,29.668 244.482,108.581 256.148,108.581 285.283,29.668 
			272.334,29.668 		"/>
		<path fill="#FFFFFF" d="M331.513,83.796c0,3.233-0.696,5.903-2.069,7.936c-1.395,2.063-3.126,3.61-5.145,4.598
			c-2.051,1.003-4.074,1.512-6.015,1.512c-3.243,0-5.823-1.057-7.889-3.23c-2.089-2.198-3.104-5.104-3.104-8.888V48.638H295.45
			v37.677c0,5.056,0.856,9.329,2.544,12.699c1.72,3.434,4.132,6.043,7.17,7.756c2.999,1.693,6.461,2.551,10.289,2.551
			c4.627,0,8.535-1.111,11.616-3.302c1.733-1.233,3.219-2.634,4.443-4.19v6.752h11.842V48.638h-11.842V83.796z"/>
		<path fill="#FFFFFF" d="M403.105,54.584c-2.532-2.347-5.386-4.071-8.481-5.124c-3.053-1.037-6.189-1.563-9.323-1.563
			c-5.442,0-10.279,1.348-14.375,4.007c-4.082,2.649-7.297,6.372-9.558,11.063c-2.237,4.644-3.372,10.057-3.372,16.087
			c0,6.034,1.136,11.412,3.376,15.984c2.268,4.627,5.557,8.279,9.775,10.854c4.212,2.57,9.274,3.873,15.048,3.873
			c4.045,0,7.752-0.639,11.02-1.899c3.297-1.272,6.111-3.087,8.366-5.396c2.27-2.324,3.908-5.065,4.87-8.147l0.465-1.488
			l-11.352-3.168l-0.491,1.304c-0.662,1.756-1.605,3.234-2.803,4.392c-1.2,1.161-2.647,2.042-4.304,2.62
			c-1.703,0.596-3.645,0.897-5.771,0.897c-3.264,0-6.152-0.711-8.587-2.112c-2.409-1.386-4.319-3.455-5.679-6.148
			c-1.067-2.114-1.731-4.64-1.98-7.529h41.465v-5.222c0-5.473-0.749-10.17-2.227-13.96
			C407.694,60.079,405.648,56.942,403.105,54.584z M377.085,61.098c2.277-1.536,5.041-2.314,8.216-2.314
			c2.874,0,5.392,0.658,7.481,1.956c2.097,1.302,3.74,3.106,4.886,5.363c0.962,1.895,1.532,4.041,1.701,6.396h-29.318
			c0.281-1.846,0.844-3.621,1.678-5.295C372.969,64.713,374.771,62.658,377.085,61.098z"/>
		<path fill="#FFFFFF" d="M431.806,92.802c-2.247,0-4.202,0.81-5.81,2.408c-1.606,1.598-2.421,3.542-2.421,5.778
			c0,2.237,0.814,4.181,2.421,5.778c1.606,1.598,3.561,2.408,5.81,2.408c1.519,0,2.918-0.379,4.161-1.127
			c1.216-0.731,2.206-1.723,2.941-2.947c0.749-1.247,1.129-2.63,1.129-4.112c0-2.235-0.814-4.179-2.422-5.778
			C436.008,93.611,434.054,92.802,431.806,92.802z"/>
		<path fill="#FFFFFF" d="M466.19,29.455c-1.517-1.432-3.354-2.159-5.464-2.159s-3.948,0.727-5.465,2.159
			c-1.539,1.453-2.319,3.231-2.319,5.286c0,2.055,0.78,3.833,2.319,5.287c1.516,1.432,3.354,2.158,5.465,2.158
			c2.109,0,3.948-0.726,5.464-2.158c1.539-1.453,2.319-3.231,2.319-5.287C468.51,32.687,467.729,30.908,466.19,29.455z"/>
		<path fill="#FFFFFF" d="M454.88,111.213c0,2.527-0.517,4.462-1.535,5.749c-0.946,1.194-2.479,1.774-4.688,1.774h-3.164v11.184
			h3.313c3.934,0,7.27-0.78,9.916-2.319c2.683-1.56,4.718-3.792,6.051-6.634c1.294-2.76,1.95-6.042,1.95-9.755V48.638H454.88
			V111.213z"/>
		<path fill="#FFFFFF" d="M523.799,80.379c-2.699-2.724-6.792-4.763-12.16-6.058l-8.487-2.074c-3.148-0.782-5.46-1.746-6.87-2.864
			c-1.218-0.965-1.811-2.262-1.811-3.964c0-1.933,0.924-3.505,2.824-4.809c2.053-1.408,4.7-2.122,7.871-2.122
			c2.307,0,4.195,0.357,5.613,1.063c1.422,0.707,2.553,1.601,3.362,2.656c0.862,1.125,1.523,2.286,1.966,3.452l0.495,1.302
			l10.784-3.036l-0.509-1.508c-1.458-4.323-3.958-7.857-7.429-10.502c-3.499-2.666-8.305-4.018-14.283-4.018
			c-4.221,0-8.059,0.754-11.408,2.244c-3.396,1.51-6.118,3.631-8.094,6.304c-2.014,2.725-3.035,5.894-3.035,9.419
			c0,4.307,1.373,7.952,4.08,10.835c2.644,2.816,6.779,4.903,12.297,6.203l9.539,2.223c2.593,0.6,4.508,1.485,5.69,2.63
			c1.094,1.059,1.625,2.333,1.625,3.896c0,1.947-0.981,3.599-3.001,5.051c-2.145,1.542-5.135,2.324-8.886,2.324
			c-3.269,0-5.916-0.682-7.868-2.027c-1.93-1.33-3.211-3.3-3.918-6.023l-0.378-1.457l-11.236,2.793l0.3,1.428
			c1.099,5.224,3.762,9.26,7.916,11.996c4.061,2.675,9.22,4.031,15.334,4.031c4.639,0,8.783-0.792,12.316-2.353
			c3.586-1.585,6.431-3.796,8.457-6.572c2.06-2.821,3.104-6.063,3.104-9.635C528,86.836,526.587,83.193,523.799,80.379z"/>
	</g>
	<path fill="#FFFFFF" d="M161.022,0L80.511,138L0,0h61.591l18.92,32L99.029,0H161.022z"/>
</g>
</svg>
