<?xml version="1.0" encoding="utf-8"?>
<!-- Generator: Adobe Illustrator 16.0.0, SVG Export Plug-In . SVG Version: 6.00 Build 0)  -->
<!DOCTYPE svg PUBLIC "-//W3C//DTD SVG 1.1//EN" "http://www.w3.org/Graphics/SVG/1.1/DTD/svg11.dtd">
<svg version="1.1" id="Layer_1" xmlns="http://www.w3.org/2000/svg" xmlns:xlink="http://www.w3.org/1999/xlink" x="0px" y="0px"
	 width="528px" height="106px" viewBox="0 0 528 106" enable-background="new 0 0 528 106" xml:space="preserve">
<g id="color">
	<g>
		<path fill="#FFFFFF" d="M513.478,81.869c-4.764,0-8.932-2.49-10.716-4.033c-0.595,0.594-1.666,2.373-1.904,4.033h-2.263v-16.37
			h2.381c0.952,7.83,6.428,12.457,13.453,12.457c3.811,0,6.906-2.137,6.906-5.693c0-3.083-2.736-5.457-7.62-7.711l-6.788-3.202
			c-4.762-2.256-8.334-6.172-8.334-11.39c0-5.694,5.358-10.557,12.74-10.557c3.93,0,7.263,1.426,9.288,3.086
			c0.596-0.477,1.19-1.78,1.545-3.204h2.265v13.999h-2.499c-0.833-5.575-3.929-10.202-10.239-10.202
			c-3.333,0-6.431,1.896-6.431,4.864c0,3.084,2.5,4.744,8.214,7.353l6.547,3.202C525.739,61.229,528,65.62,528,69.179
			C528.001,76.649,521.454,81.869,513.478,81.869z"/>
		<path fill="#FFFFFF" d="M476.807,81.869c-4.761,0-8.929-2.49-10.714-4.033c-0.596,0.594-1.667,2.373-1.904,4.033h-2.264v-16.37
			h2.381c0.954,7.83,6.429,12.457,13.454,12.457c3.812,0,6.908-2.137,6.908-5.693c0-3.083-2.738-5.457-7.622-7.711l-6.786-3.202
			c-4.764-2.256-8.335-6.172-8.335-11.39c0-5.694,5.36-10.557,12.74-10.557c3.929,0,7.261,1.426,9.289,3.086
			c0.595-0.477,1.191-1.78,1.548-3.204h2.261v13.999h-2.5c-0.833-5.575-3.928-10.202-10.238-10.202
			c-3.333,0-6.431,1.896-6.431,4.864c0,3.084,2.5,4.744,8.216,7.353l6.545,3.202c5.716,2.729,7.977,7.12,7.977,10.679
			C491.333,76.649,484.784,81.869,476.807,81.869z"/>
		<path fill="#FFFFFF" d="M452.639,69.177l-0.596,2.135c-1.071,3.914-2.382,5.338-10.836,5.338h-1.666
			c-6.192,0-7.262-1.424-7.262-9.843v-5.456c9.287,0,10.002,0.829,10.002,6.998h2.262V50.67h-2.262
			c0,6.169-0.715,6.999-10.002,6.999V44.383h6.544c8.457,0,9.763,1.425,10.837,5.338l0.597,2.256h1.903l-0.832-11.151h-35.005v2.253
			c6.664,0,7.739,1.423,7.739,9.845v15.186c0,7.705-0.911,9.646-6.167,9.925c-4.994-0.762-8.424-3.476-13.119-8.618l-5.478-5.932
			c7.383-1.307,11.312-5.933,11.312-11.153c0-6.522-5.596-11.506-16.073-11.506h-20.952v2.253c6.665,0,7.738,1.424,7.738,9.844
			v15.187c0,8.425-1.07,9.967-7.738,9.967v2.254h23.693v-2.254c-6.666,0-7.741-1.542-7.741-9.967v-4.267h2.027l13.214,16.487h48.935
			l0.714-11.149L452.639,69.177L452.639,69.177z M389.54,60.158V44.384h4.878c5.36,0,7.742,3.679,7.742,7.947
			c0,4.153-2.381,7.829-7.742,7.829L389.54,60.158L389.54,60.158z"/>
		<path fill="#FFFFFF" d="M354.417,77.954v2.372h-27.265v-2.372c7.978,0,9.407-2.017,9.407-13.881V45.095
			c0-11.865-1.429-13.76-9.407-13.76v-2.376h24.645c12.262,0,19.051,6.288,19.051,14.713c0,8.184-6.789,14.59-19.051,14.59h-6.787
			v5.812C345.01,75.939,346.439,77.954,354.417,77.954z M351.796,33.229h-6.787v20.644h6.787c6.668,0,9.763-4.626,9.763-10.201
			C361.56,37.978,358.465,33.229,351.796,33.229z"/>
		<path fill="#FFFFFF" d="M300.603,40.823h-21.312v2.254c6.664,0,7.737,1.424,7.737,9.844v15.188c0,8.424-1.07,9.967-7.737,9.967
			c-5.119-0.714-8.574-3.441-13.336-8.66l-5.477-5.932c7.381-1.307,11.31-5.933,11.31-11.153c0-6.522-5.595-11.506-16.073-11.506
			h-20.955v2.253c6.667,0,7.739,1.424,7.739,9.844v15.187c0,8.425-1.072,9.967-7.739,9.967v2.254h23.691v-2.254
			c-6.665,0-7.736-1.542-7.736-9.967v-4.267h2.023l13.216,16.487h34.648c17.023,0,24.408-9.015,24.408-19.812
			C325.011,49.721,317.629,40.823,300.603,40.823z M250.719,60.158V44.384h4.88c5.357,0,7.74,3.679,7.74,7.947
			c0,4.153-2.383,7.829-7.74,7.829L250.719,60.158L250.719,60.158z M300.961,76.649h-0.834c-4.282,0-4.88-1.064-4.88-6.522V44.383
			c0,0,5.241,0,5.715,0c12.382,0,14.643,9.015,14.643,16.015C315.604,67.634,313.342,76.649,300.961,76.649z"/>
		<path fill="#FFFFFF" d="M208.928,81.869c-13.096,0-23.811-9.608-23.811-21.354c0-11.627,10.716-21.234,23.811-21.234
			c13.096,0,23.812,9.607,23.812,21.234C232.74,72.261,222.024,81.869,208.928,81.869z M208.928,42.96
			c-10.952,0-14.763,9.844-14.763,17.556c0,7.831,3.812,17.559,14.763,17.559c11.073,0,14.884-9.728,14.884-17.559
			C223.812,52.804,220.001,42.96,208.928,42.96z"/>
		<path fill="#FFFFFF" d="M168.45,64.551l8.215-24.204c2.383-6.998,1.311-9.012-6.309-9.012V28.96h22.383v2.375
			c-7.5,0-9.286,1.776-12.263,10.437l-13.574,40.573h-1.547l-12.145-37.132l-12.381,37.132h-1.549l-13.215-40.571
			c-2.857-8.66-4.762-10.437-11.667-10.437v-2.374h26.431v2.374c-7.025,0-8.932,1.659-6.43,9.012l7.977,24.204L154.4,28.962h2.263
			L168.45,64.551z"/>
	</g>
	<g>
		<path fill="#72AEE6" d="M53.192,0C23.863,0,0,23.774,0,52.998C0,82.224,23.863,106,53.192,106
			c29.329,0,53.195-23.774,53.195-53.002C106.386,23.774,82.521,0,53.192,0z M53.192,103.568c-27.984,0-50.753-22.687-50.753-50.57
			c0-27.883,22.768-50.566,50.753-50.566c27.984,0,50.75,22.686,50.75,50.566C103.942,80.883,81.176,103.568,53.192,103.568z"/>
		<path fill="#72AEE6" d="M93.231,31.185c0.196,1.448,0.308,3.005,0.308,4.675c0,4.614-0.865,9.801-3.47,16.285L76.131,92.298
			c13.566-7.882,22.691-22.525,22.691-39.3C98.822,45.094,96.796,37.661,93.231,31.185z"/>
		<path fill="#72AEE6" d="M53.993,56.975L40.301,96.613c4.088,1.198,8.412,1.854,12.891,1.854c5.314,0,10.41-0.918,15.153-2.577
			c-0.122-0.195-0.234-0.401-0.325-0.627L53.993,56.975z"/>
		<path fill="#72AEE6" d="M83.997,50.704c0-5.62-2.025-9.511-3.763-12.541c-2.313-3.744-4.48-6.916-4.48-10.66
			c0-4.181,3.181-8.07,7.662-8.07c0.202,0,0.395,0.025,0.591,0.036C75.888,12.06,65.072,7.534,53.192,7.534
			c-15.941,0-29.967,8.149-38.126,20.492c1.071,0.033,2.08,0.055,2.938,0.055c4.772,0,12.161-0.576,12.161-0.576
			c2.459-0.146,2.75,3.454,0.292,3.745c0,0-2.471,0.289-5.222,0.433L41.851,80.93l9.986-29.838l-7.109-19.411
			c-2.457-0.143-4.785-0.434-4.785-0.434c-2.459-0.143-2.171-3.89,0.288-3.744c0,0,7.536,0.577,12.02,0.577
			c4.772,0,12.161-0.577,12.161-0.577c2.461-0.146,2.751,3.455,0.292,3.744c0,0-2.477,0.291-5.223,0.434l16.49,48.875l4.552-15.154
			C82.495,59.112,83.997,54.596,83.997,50.704z"/>
		<path fill="#72AEE6" d="M7.561,52.998c0,17.997,10.497,33.549,25.718,40.921L11.512,34.495C8.98,40.148,7.561,46.407,7.561,52.998
			z"/>
	</g>
</g>
<g id="mask">
	<g>
		<path fill="#FFFFFF" d="M513.478,81.869c-4.764,0-8.932-2.49-10.716-4.033c-0.595,0.594-1.666,2.373-1.904,4.033h-2.263v-16.37
			h2.381c0.952,7.83,6.428,12.457,13.453,12.457c3.811,0,6.906-2.137,6.906-5.693c0-3.083-2.736-5.457-7.62-7.711l-6.788-3.202
			c-4.762-2.256-8.334-6.172-8.334-11.39c0-5.694,5.358-10.557,12.74-10.557c3.93,0,7.263,1.426,9.288,3.086
			c0.596-0.477,1.19-1.78,1.545-3.204h2.265v13.999h-2.499c-0.833-5.575-3.929-10.202-10.239-10.202
			c-3.333,0-6.431,1.896-6.431,4.864c0,3.084,2.5,4.744,8.214,7.353l6.547,3.202C525.739,61.229,528,65.62,528,69.179
			C528.001,76.649,521.454,81.869,513.478,81.869z"/>
		<path fill="#FFFFFF" d="M476.807,81.869c-4.761,0-8.929-2.49-10.714-4.033c-0.596,0.594-1.667,2.373-1.904,4.033h-2.264v-16.37
			h2.381c0.954,7.83,6.429,12.457,13.454,12.457c3.812,0,6.908-2.137,6.908-5.693c0-3.083-2.738-5.457-7.622-7.711l-6.786-3.202
			c-4.764-2.256-8.335-6.172-8.335-11.39c0-5.694,5.36-10.557,12.74-10.557c3.929,0,7.261,1.426,9.289,3.086
			c0.595-0.477,1.191-1.78,1.548-3.204h2.261v13.999h-2.5c-0.833-5.575-3.928-10.202-10.238-10.202
			c-3.333,0-6.431,1.896-6.431,4.864c0,3.084,2.5,4.744,8.216,7.353l6.545,3.202c5.716,2.729,7.977,7.12,7.977,10.679
			C491.333,76.649,484.784,81.869,476.807,81.869z"/>
		<path fill="#FFFFFF" d="M452.639,69.177l-0.596,2.135c-1.071,3.914-2.382,5.338-10.836,5.338h-1.666
			c-6.192,0-7.262-1.424-7.262-9.843v-5.456c9.287,0,10.002,0.829,10.002,6.998h2.262V50.67h-2.262
			c0,6.169-0.715,6.999-10.002,6.999V44.383h6.544c8.457,0,9.763,1.425,10.837,5.338l0.597,2.256h1.903l-0.832-11.151h-35.005v2.253
			c6.664,0,7.739,1.423,7.739,9.845v15.186c0,7.705-0.911,9.646-6.167,9.925c-4.994-0.762-8.424-3.476-13.119-8.618l-5.478-5.932
			c7.383-1.307,11.312-5.933,11.312-11.153c0-6.522-5.596-11.506-16.073-11.506h-20.952v2.253c6.665,0,7.738,1.424,7.738,9.844
			v15.187c0,8.425-1.07,9.967-7.738,9.967v2.254h23.693v-2.254c-6.666,0-7.741-1.542-7.741-9.967v-4.267h2.027l13.214,16.487h48.935
			l0.714-11.149L452.639,69.177L452.639,69.177z M389.54,60.158V44.384h4.878c5.36,0,7.742,3.679,7.742,7.947
			c0,4.153-2.381,7.829-7.742,7.829L389.54,60.158L389.54,60.158z"/>
		<path fill="#FFFFFF" d="M354.417,77.954v2.372h-27.265v-2.372c7.978,0,9.407-2.017,9.407-13.881V45.095
			c0-11.865-1.429-13.76-9.407-13.76v-2.376h24.645c12.262,0,19.051,6.288,19.051,14.713c0,8.184-6.789,14.59-19.051,14.59h-6.787
			v5.812C345.01,75.939,346.439,77.954,354.417,77.954z M351.796,33.229h-6.787v20.644h6.787c6.668,0,9.763-4.626,9.763-10.201
			C361.56,37.978,358.465,33.229,351.796,33.229z"/>
		<path fill="#FFFFFF" d="M300.603,40.823h-21.312v2.254c6.664,0,7.737,1.424,7.737,9.844v15.188c0,8.424-1.07,9.967-7.737,9.967
			c-5.119-0.714-8.574-3.441-13.336-8.66l-5.477-5.932c7.381-1.307,11.31-5.933,11.31-11.153c0-6.522-5.595-11.506-16.073-11.506
			h-20.955v2.253c6.667,0,7.739,1.424,7.739,9.844v15.187c0,8.425-1.072,9.967-7.739,9.967v2.254h23.691v-2.254
			c-6.665,0-7.736-1.542-7.736-9.967v-4.267h2.023l13.216,16.487h34.648c17.023,0,24.408-9.015,24.408-19.812
			C325.011,49.721,317.629,40.823,300.603,40.823z M250.719,60.158V44.384h4.88c5.357,0,7.74,3.679,7.74,7.947
			c0,4.153-2.383,7.829-7.74,7.829L250.719,60.158L250.719,60.158z M300.961,76.649h-0.834c-4.282,0-4.88-1.064-4.88-6.522V44.383
			c0,0,5.241,0,5.715,0c12.382,0,14.643,9.015,14.643,16.015C315.604,67.634,313.342,76.649,300.961,76.649z"/>
		<path fill="#FFFFFF" d="M208.928,81.869c-13.096,0-23.811-9.608-23.811-21.354c0-11.627,10.716-21.234,23.811-21.234
			c13.096,0,23.812,9.607,23.812,21.234C232.74,72.261,222.024,81.869,208.928,81.869z M208.928,42.96
			c-10.952,0-14.763,9.844-14.763,17.556c0,7.831,3.812,17.559,14.763,17.559c11.073,0,14.884-9.728,14.884-17.559
			C223.812,52.804,220.001,42.96,208.928,42.96z"/>
		<path fill="#FFFFFF" d="M168.45,64.551l8.215-24.204c2.383-6.998,1.311-9.012-6.309-9.012V28.96h22.383v2.375
			c-7.5,0-9.286,1.776-12.263,10.437l-13.574,40.573h-1.547l-12.145-37.132l-12.381,37.132h-1.549l-13.215-40.571
			c-2.857-8.66-4.762-10.437-11.667-10.437v-2.374h26.431v2.374c-7.025,0-8.932,1.659-6.43,9.012l7.977,24.204L154.4,28.962h2.263
			L168.45,64.551z"/>
	</g>
	<g>
		<path fill="#FFFFFF" d="M53.192,0C23.863,0,0,23.774,0,52.998C0,82.224,23.863,106,53.192,106
			c29.329,0,53.195-23.774,53.195-53.002C106.386,23.774,82.521,0,53.192,0z M53.192,103.568c-27.984,0-50.753-22.687-50.753-50.57
			c0-27.883,22.768-50.566,50.753-50.566c27.984,0,50.75,22.686,50.75,50.566C103.942,80.883,81.176,103.568,53.192,103.568z"/>
		<path fill="#FFFFFF" d="M93.231,31.185c0.196,1.448,0.308,3.005,0.308,4.675c0,4.614-0.865,9.801-3.47,16.285L76.131,92.298
			c13.566-7.882,22.691-22.525,22.691-39.3C98.822,45.094,96.796,37.661,93.231,31.185z"/>
		<path fill="#FFFFFF" d="M53.993,56.975L40.301,96.613c4.088,1.198,8.412,1.854,12.891,1.854c5.314,0,10.41-0.918,15.153-2.577
			c-0.122-0.195-0.234-0.401-0.325-0.627L53.993,56.975z"/>
		<path fill="#FFFFFF" d="M83.997,50.704c0-5.62-2.025-9.511-3.763-12.541c-2.313-3.744-4.48-6.916-4.48-10.66
			c0-4.181,3.181-8.07,7.662-8.07c0.202,0,0.395,0.025,0.591,0.036C75.888,12.06,65.072,7.534,53.192,7.534
			c-15.941,0-29.967,8.149-38.126,20.492c1.071,0.033,2.08,0.055,2.938,0.055c4.772,0,12.161-0.576,12.161-0.576
			c2.459-0.146,2.75,3.454,0.292,3.745c0,0-2.471,0.289-5.222,0.433L41.851,80.93l9.986-29.838l-7.109-19.411
			c-2.457-0.143-4.785-0.434-4.785-0.434c-2.459-0.143-2.171-3.89,0.288-3.744c0,0,7.536,0.577,12.02,0.577
			c4.772,0,12.161-0.577,12.161-0.577c2.461-0.146,2.751,3.455,0.292,3.744c0,0-2.477,0.291-5.223,0.434l16.49,48.875l4.552-15.154
			C82.495,59.112,83.997,54.596,83.997,50.704z"/>
		<path fill="#FFFFFF" d="M7.561,52.998c0,17.997,10.497,33.549,25.718,40.921L11.512,34.495C8.98,40.148,7.561,46.407,7.561,52.998
			z"/>
	</g>
</g>
</svg>
