<?xml version="1.0" encoding="UTF-8"?>
<svg width="752pt" height="752pt" version="1.1" viewBox="0 0 752 752" xmlns="http://www.w3.org/2000/svg">
 <g>
  <path d="m564.25 232.74c-2.7539-2.9688-6.6055-4.6797-10.656-4.7344h-103.59v-29.598c0-3.9258-1.5625-7.6914-4.3359-10.465-2.7773-2.7773-6.5391-4.3359-10.465-4.3359h-118.39c-3.9258 0-7.6914 1.5586-10.465 4.3359-2.7773 2.7734-4.3359 6.5391-4.3359 10.465v29.598h-103.59c-4.0312 0.015626-7.8789 1.6719-10.656 4.5859l188.25 175.38zm-232.65-19.535h88.797v14.801h-88.797zm14.801 118.39c0-3.9219 1.5586-7.6875 4.3359-10.465 2.7734-2.7734 6.5391-4.332 10.465-4.332h29.598c5.2891 0 10.172 2.8203 12.816 7.3984 2.6445 4.5781 2.6445 10.223 0 14.801-2.6445 4.5781-7.5273 7.3984-12.816 7.3984h-29.598c-3.9258 0-7.6914-1.5586-10.465-4.3359-2.7773-2.7734-4.3359-6.5391-4.3359-10.465z"/>
  <path d="m386.07 438.9c-2.7305 2.5547-6.3242 3.9844-10.066 3.9961-3.7383-0.011719-7.332-1.4414-10.062-3.9961l-182.33-169.9v240.2c0 3.9258 1.5586 7.6914 4.3359 10.465 2.7734 2.7773 6.5391 4.3359 10.465 4.3359h355.18c3.9258 0 7.6914-1.5586 10.465-4.3359 2.7773-2.7734 4.3359-6.5391 4.3359-10.465v-239.9z"/>
 </g>
</svg>